{
.appVersion = "3436";
.formatVersion = 3;
DisplayStrings = (
"Hamburgevons
Hamburgefonstiv
xrllay vision
nneennooeoo
HAMBURGEVONS
111l234567890    
",
"Ё",
"→",
"de que no a la el y es en lo un por qué me una te se los con para mi está si sí pero las bien yo su eso aquí del al como le tu más todo ya muy esto vamos ha ahora esta hay estoy algo tú tengo así nada nos cuando cómo él sé estás sólo o quiero este tiene gracias he puedo bueno soy era ser vez hacer todos ella son fue eres usted tienes puede señor ese voy quién casa creo porque tan favor hola dónde nunca sus sabes dos verdad quieres mucho entonces estaba",
N,
"ŋ",
"гґ",
"@",
B
);
classes = (
{
automatic = 1;

glyphs = (
{
glyphname = A;
kernLeft = LHAuppers;
kernRight = Auppers;
lastChange = "2026-06-15 00:40:03 +0000";
layers = (
{
anchors = (
{
name = bottom;
pos = (341,0);
},
{
name = ogonek;
pos = (613,10);
},
{
name = top;
pos = (341,700);
}
);
guides = (
{
angle = 66.8014;
pos = (212,343);
}
);
layerId = m01;
shapes = (
{
closed = 1;
nodes = (
(281,0,l),
(302,83,l),
(171,104,ls),
(137,110,o),
(116,116,o),
(126,141,cs),
(150,199,l),
(368,199,l),
(448,1,l),
(641,1,l),
(342,718,l),
(40,0,l)
);
},
{
closed = 1;
nodes = (
(263,462,l),
(359,224,l),
(161,224,l)
);
}
);
width = 681;
}
);
unicode = 65;
},
{
glyphname = AE;
kernLeft = LHAE;
lastChange = "2026-06-12 00:58:30 +0000";
layers = (
{
anchors = (
{
name = bottom;
pos = (465,0);
},
{
name = top;
pos = (551,700);
}
);
guides = (
{
angle = 60.2838;
pos = (325,440);
}
);
layerId = m01;
shapes = (
{
closed = 1;
nodes = (
(281,0,l),
(302,83,l),
(210,104,ls),
(176,112,o),
(141,118,o),
(155,142,cs),
(188,199,l),
(447,199,l),
(448,0,l),
(889,0,l),
(889,173,l),
(881,173,l),
(813,62,o),
(750,33,o),
(622,32,c),
(622,337,l),
(735,337,o),
(775,330,o),
(819,260,c),
(827,260,l),
(827,441,l),
(819,441,l),
(773,378,o),
(735,373,o),
(622,373,c),
(621,670,l),
(733,670,o),
(826,626,o),
(881,532,c),
(889,532,l),
(889,700,l),
(446,700,l),
(40,0,l)
);
},
{
closed = 1;
nodes = (
(446,652,l),
(447,224,l),
(202,224,l)
);
}
);
width = 979;
}
);
metricLeft = A;
metricRight = E;
unicode = 198;
},
{
glyphname = B;
kernRight = RHroundedUpper;
lastChange = "2026-06-15 00:52:44 +0000";
layers = (
{
anchors = (
{
name = bottom;
pos = (390,0);
},
{
name = center;
pos = (215,210);
},
{
name = top;
pos = (390,700);
}
);
layerId = m01;
shapes = (
{
closed = 1;
nodes = (
(430,0,l),
(604,0,o),
(700,72,o),
(700,193,cs),
(700,289,o),
(621,352,o),
(521,370,c),
(613,396,o),
(666,454,o),
(666,530,cs),
(666,637,o),
(561,700,o),
(399,700,c),
(90,700,l),
(90,685,l),
(132,669,l),
(132,0,l)
);
},
{
closed = 1;
nodes = (
(302,346,l),
(356,346,ls),
(463,346,o),
(522,287,o),
(522,193,cs),
(522,92,o),
(456,32,o),
(362,30,cs),
(302,29,l)
);
},
{
closed = 1;
nodes = (
(302,671,l),
(355,670,ls),
(435,668,o),
(494,611,o),
(494,530,cs),
(494,442,o),
(435,382,o),
(355,380,cs),
(302,379,l)
);
}
);
width = 760;
}
);
metricLeft = "=H-20";
metricRight = "=P+10";
unicode = 66;
},
{
glyphname = C;
kernLeft = roundedUppers;
kernRight = RHCGuppers;
lastChange = "2026-06-12 01:11:27 +0000";
layers = (
{
anchors = (
{
name = bottom;
pos = (359,0);
},
{
name = top;
pos = (359,700);
}
);
layerId = m01;
shapes = (
{
closed = 1;
nodes = (
(497,-9,o),
(583,17,o),
(635,58,c),
(647,221,l),
(627,221,l),
(595,73,o),
(491,22,o),
(425,22,cs),
(315,22,o),
(265,161,o),
(265,346,cs),
(265,527,o),
(302,673,o),
(410,673,cs),
(462,673,o),
(553,632,o),
(595,438,c),
(615,438,l),
(639,644,l),
(548,694,o),
(481,710,o),
(391,705,cs),
(201,694,o),
(70,548,o),
(70,349,cs),
(70,147,o),
(195,-9,o),
(397,-9,cs)
);
}
);
width = 717;
}
);
metricLeft = O;
metricRight = "=O";
unicode = 67;
},
{
glyphname = D;
kernRight = RHroundedUpper;
lastChange = "2026-06-10 22:39:36 +0000";
layers = (
{
anchors = (
{
name = bottom;
pos = (400,0);
},
{
name = center;
pos = (225,350);
},
{
name = top;
pos = (400,700);
}
);
layerId = m01;
shapes = (
{
closed = 1;
nodes = (
(391,0,ls),
(526,0,o),
(710,39,o),
(710,350,cs),
(710,661,o),
(526,700,o),
(391,700,cs),
(306,700,l),
(131,700,l),
(90,700,l),
(90,685,l),
(131,669,l),
(131,0,l)
);
},
{
closed = 1;
nodes = (
(306,672,l),
(359,672,ls),
(434,672,o),
(536,614,o),
(536,350,cs),
(536,86,o),
(434,28,o),
(359,28,cs),
(306,28,l)
);
}
);
width = 780;
}
);
metricLeft = "=H-20";
metricRight = O;
unicode = 68;
},
{
glyphname = E;
lastChange = "2026-06-12 00:17:19 +0000";
layers = (
{
anchors = (
{
name = bottom;
pos = (333,0);
},
{
name = ogonek;
pos = (559,10);
},
{
name = top;
pos = (333,700);
},
{
name = top_viet;
pos = (336,741);
},
{
name = topleft;
pos = (70,700);
}
);
layerId = m01;
shapes = (
{
closed = 1;
nodes = (
(575,0,l),
(575,173,l),
(566,173,l),
(499,62,o),
(436,33,o),
(308,32,c),
(308,337,l),
(423,337,o),
(461,330,o),
(505,260,c),
(513,260,l),
(513,441,l),
(505,441,l),
(459,378,o),
(422,373,o),
(308,373,c),
(307,670,l),
(419,670,o),
(512,626,o),
(567,531,c),
(575,531,l),
(575,700,l),
(90,700,l),
(90,684,l),
(132,668,l),
(132,0,l)
);
}
);
width = 665;
}
);
metricLeft = "=H-20";
metricRight = "=H-20";
unicode = 69;
},
{
glyphname = Schwa;
kernLeft = roundedUppers;
kernRight = RHroundedUpper;
lastChange = "2026-06-10 21:56:56 +0000";
layers = (
{
layerId = m01;
shapes = (
{
closed = 1;
nodes = (
(555,-11,o),
(687,104,o),
(687,340,cs),
(687,587,o),
(555,711,o),
(377,711,cs),
(169,711,o),
(68,549,o),
(70,453,c),
(268,453,l),
(281,522,l),
(147,545,l),
(183,577,o),
(225,593,o),
(275,593,cs),
(400,593,o),
(498,522,o),
(498,348,c),
(70,348,l),
(70,127,o),
(184,-11,o),
(376,-11,cs)
);
},
{
closed = 1;
nodes = (
(311,15,o),
(248,103,o),
(248,278,c),
(498,278,l),
(498,103,o),
(450,15,o),
(377,15,cs)
);
}
);
width = 757;
}
);
metricLeft = O;
metricRight = O;
unicode = 399;
},
{
glyphname = Ezh;
kernLeft = roundedUppers;
kernRight = RHroundedUpper;
lastChange = "2026-06-12 00:21:25 +0000";
layers = (
{
anchors = (
{
name = bottom;
pos = (366,0);
},
{
name = top;
pos = (366,700);
}
);
layerId = m01;
shapes = (
{
closed = 1;
nodes = (
(544,-13,o),
(651,63,o),
(651,201,cs),
(651,291,o),
(610,416,o),
(447,415,c),
(634,613,l),
(634,703,l),
(140,702,l),
(140,703,l),
(123,523,l),
(147,523,l),
(152,569,o),
(179,617,o),
(279,617,cs),
(505,617,l),
(298,401,l),
(298,371,l),
(329,371,ls),
(440,371,o),
(478,296,o),
(478,189,cs),
(478,92,o),
(449,25,o),
(370,25,cs),
(302,27,o),
(253,98,o),
(263,238,c),
(90,216,l),
(90,66,o),
(216,-19,o),
(374,-16,cs)
);
}
);
width = 711;
}
);
metricLeft = "=|E";
metricRight = B;
unicode = 439;
},
{
glyphname = F;
kernRight = RHTuppers;
lastChange = "2026-06-10 22:43:32 +0000";
layers = (
{
anchors = (
{
name = bottom;
pos = (333,0);
},
{
name = top;
pos = (333,700);
}
);
layerId = m01;
shapes = (
{
closed = 1;
nodes = (
(308,0,l),
(308,337,l),
(423,337,o),
(461,330,o),
(506,260,c),
(513,260,l),
(513,440,l),
(506,440,l),
(459,378,o),
(421,373,o),
(308,373,c),
(307,670,l),
(419,670,o),
(512,627,o),
(567,532,c),
(575,532,l),
(575,700,l),
(90,700,l),
(90,684,l),
(132,668,l),
(134,0,l)
);
}
);
width = 655;
}
);
metricLeft = "=H-20";
metricRight = "=H-30";
unicode = 70;
},
{
glyphname = G;
kernLeft = roundedUppers;
kernRight = RHCGuppers;
lastChange = "2026-06-12 02:39:46 +0000";
layers = (
{
anchors = (
{
name = bottom;
pos = (358,0);
},
{
name = top;
pos = (358,700);
}
);
layerId = m01;
shapes = (
{
closed = 1;
nodes = (
(446,-16,o),
(546,13,o),
(616,85,c),
(616,0,l),
(645,0,l),
(645,364,l),
(344,364,l),
(344,335,l),
(461,335,l),
(460,125,ls),
(460,98,o),
(451,64,o),
(434,44,cs),
(416,21,o),
(386,17,o),
(359,22,cs),
(241,45,o),
(257,381,o),
(264,472,cs),
(269,546,o),
(292,675,o),
(381,681,cs),
(497,689,o),
(540,533,o),
(568,437,c),
(640,628,l),
(555,692,o),
(456,721,o),
(351,708,cs),
(240,694,o),
(146,638,o),
(104,533,cs),
(58,419,o),
(60,288,o),
(104,174,cs),
(144,68,o),
(234,3,o),
(345,-7,cs)
);
}
);
width = 765;
}
);
metricLeft = O;
metricRight = "=O+50";
unicode = 71;
},
{
glyphname = Gstroke;
kernLeft = roundedUppers;
kernRight = RHCGuppers;
lastChange = "2026-06-13 08:21:10 +0000";
layers = (
{
anchors = (
{
name = bottom;
pos = (358,0);
},
{
name = top;
pos = (358,700);
}
);
layerId = m01;
shapes = (
{
closed = 1;
nodes = (
(446,-16,o),
(546,13,o),
(616,85,c),
(616,0,l),
(645,0,l),
(645,364,l),
(344,364,l),
(344,304,l),
(461,304,l),
(460,125,ls),
(460,98,o),
(451,64,o),
(434,44,cs),
(416,21,o),
(386,17,o),
(359,22,cs),
(241,45,o),
(257,381,o),
(264,472,cs),
(269,546,o),
(292,675,o),
(381,681,cs),
(497,689,o),
(540,533,o),
(568,437,c),
(640,628,l),
(555,692,o),
(456,721,o),
(351,708,cs),
(240,694,o),
(146,638,o),
(104,533,cs),
(58,419,o),
(60,288,o),
(104,174,cs),
(144,68,o),
(234,3,o),
(345,-7,cs)
);
},
{
pos = (322,-301);
ref = strokeshortcomb;
scale = (1.1156,1);
}
);
width = 786;
}
);
metricLeft = G;
metricRight = "=G-20";
unicode = 484;
},
{
glyphname = H;
lastChange = "2026-06-11 01:22:10 +0000";
layers = (
{
anchors = (
{
name = bottom;
pos = (397,0);
},
{
name = center;
pos = (397,560);
},
{
name = top;
pos = (397,700);
},
{
name = topleft;
pos = (80,700);
}
);
layerId = m01;
shapes = (
{
closed = 1;
nodes = (
(684,0,l),
(684,700,l),
(519,700,l),
(519,0,l)
);
},
{
closed = 1;
nodes = (
(265,0,l),
(265,700,l),
(110,700,l),
(110,0,l)
);
},
{
closed = 1;
nodes = (
(531,304,l),
(457,411,l),
(259,411,l),
(333,304,l)
);
}
);
width = 794;
}
);
unicode = 72;
},
{
glyphname = I;
lastChange = "2026-06-10 22:39:58 +0000";
layers = (
{
anchors = (
{
name = bottom;
pos = (215,0);
},
{
name = ogonek;
pos = (320,10);
},
{
name = top;
pos = (200,700);
},
{
name = topleft;
pos = (70,700);
}
);
layerId = m01;
shapes = (
{
closed = 1;
nodes = (
(300,0,l),
(300,713,l),
(90,697,l),
(90,684,l),
(134,667,l),
(134,0,l)
);
}
);
width = 410;
}
);
metricLeft = "=H-20";
metricRight = H;
unicode = 73;
},
{
glyphname = J;
kernRight = RHroundedUpper;
lastChange = "2026-06-12 01:01:54 +0000";
layers = (
{
anchors = (
{
name = bottom;
pos = (304,0);
},
{
name = top;
pos = (304,700);
}
);
layerId = m01;
shapes = (
{
closed = 1;
nodes = (
(497,-8,o),
(557,70,o),
(557,254,cs),
(557,700,l),
(387,700,l),
(385,200,ls),
(385,131,o),
(386,22,o),
(300,24,cs),
(213,26,o),
(209,183,o),
(209,260,c),
(40,245,l),
(40,94,o),
(113,-8,o),
(296,-8,cs)
);
}
);
width = 667;
},
{
associatedMasterId = m01;
layerId = "DEE0B8B6-D144-472D-98F5-AD853ACBC6A8";
name = Redraw;
width = 600;
}
);
metricLeft = A;
metricRight = H;
unicode = 74;
},
{
glyphname = K;
kernRight = RHKuppers;
lastChange = "2026-06-12 01:10:15 +0000";
layers = (
{
anchors = (
{
name = bottom;
pos = (404,0);
},
{
name = top;
pos = (404,700);
}
);
layerId = m01;
shapes = (
{
closed = 1;
nodes = (
(737,0,l),
(441,427,l),
(704,701,l),
(434,701,l),
(420,624,l),
(548,602,ls),
(554,601,o),
(556,591,o),
(550,585,cs),
(305,335,l),
(305,311,l),
(312,311,l),
(526,0,l)
);
},
{
closed = 1;
nodes = (
(312,0,l),
(312,700,l),
(90,700,l),
(90,685,l),
(134,668,l),
(134,0,l)
);
}
);
width = 777;
}
);
metricLeft = "=H-20";
metricRight = "=H-70";
unicode = 75;
},
{
glyphname = L;
kernRight = RHLuppers;
lastChange = "2026-06-12 01:12:30 +0000";
layers = (
{
anchors = (
{
name = _dot;
pos = (421,358);
},
{
name = bottom;
pos = (322,0);
},
{
name = center;
pos = (220,356);
},
{
name = top;
pos = (322,700);
},
{
name = topright;
pos = (380,785);
}
);
layerId = m01;
shapes = (
{
closed = 1;
nodes = (
(563,0,l),
(563,178,l),
(555,178,l),
(499,79,o),
(423,29,o),
(310,29,c),
(310,700,l),
(90,700,l),
(90,685,l),
(134,668,l),
(134,0,l)
);
}
);
width = 643;
}
);
metricLeft = "=H-20";
metricRight = "=H-30";
unicode = 76;
},
{
glyphname = M;
lastChange = "2026-06-12 00:20:37 +0000";
layers = (
{
anchors = (
{
name = bottom;
pos = (463,0);
},
{
name = top;
pos = (463,700);
}
);
layerId = m01;
shapes = (
{
closed = 1;
nodes = (
(684,578,l),
(684,0,l),
(855,0,l),
(853,700,l),
(690,700,l),
(523,241,l),
(282,700,l),
(90,700,l),
(90,685,l),
(132,669,l),
(132,0,l),
(291,0,l),
(280,68,l),
(185,91,ls),
(166,96,o),
(160,104,o),
(160,127,cs),
(160,561,l),
(465,-12,l)
);
}
);
width = 965;
}
);
metricLeft = "=H-20";
metricRight = H;
unicode = 77;
},
{
glyphname = N;
lastChange = "2026-06-12 02:11:02 +0000";
layers = (
{
anchors = (
{
name = bottom;
pos = (409,0);
},
{
name = top;
pos = (409,700);
}
);
layerId = m01;
shapes = (
{
closed = 1;
nodes = (
(323,0,l),
(312,78,l),
(187,101,ls),
(168,105,o),
(162,114,o),
(162,137,cs),
(160,586,l),
(570,0,l),
(696,0,l),
(695,701,l),
(505,701,l),
(516,623,l),
(641,600,ls),
(660,596,o),
(666,587,o),
(666,564,cs),
(667,175,l),
(303,700,l),
(90,700,l),
(90,685,l),
(132,669,l),
(133,0,l)
);
}
);
width = 806;
}
);
metricLeft = "=H-20";
metricRight = H;
unicode = 78;
},
{
glyphname = Eng;
lastChange = "2026-06-13 08:21:55 +0000";
layers = (
{
layerId = m01;
shapes = (
{
ref = N;
},
{
closed = 1;
nodes = (
(667,-34,ls),
(667,-57,o),
(661,-66,o),
(642,-70,cs),
(517,-93,l),
(506,-171,l),
(696,-171,l),
(696,56,l),
(667,56,l)
);
}
);
width = 806;
}
);
metricLeft = N;
metricRight = N;
unicode = 330;
},
{
glyphname = O;
kernLeft = roundedUppers;
kernRight = RHroundedUpper;
lastChange = "2026-06-12 00:56:45 +0000";
layers = (
{
anchors = (
{
name = bottom;
pos = (374,0);
},
{
name = center;
pos = (374,350);
},
{
name = ogonek;
pos = (508,10);
},
{
name = top;
pos = (374,700);
},
{
name = top_viet;
pos = (375,724);
},
{
name = topleft;
pos = (50,700);
},
{
name = topright;
pos = (512,594);
}
);
layerId = m01;
shapes = (
{
closed = 1;
nodes = (
(592,-11,o),
(677,150,o),
(677,349,cs),
(677,548,o),
(592,710,o),
(375,710,cs),
(155,710,o),
(70,548,o),
(70,349,cs),
(70,150,o),
(155,-11,o),
(375,-11,cs)
);
},
{
closed = 1;
nodes = (
(287,19,o),
(254,164,o),
(254,346,cs),
(254,527,o),
(287,680,o),
(374,680,cs),
(460,680,o),
(493,527,o),
(493,346,cs),
(493,164,o),
(460,19,o),
(374,19,cs)
);
}
);
width = 747;
}
);
unicode = 79;
},
{
glyphname = OE;
kernLeft = roundedUppers;
lastChange = "2026-06-12 00:21:25 +0000";
layers = (
{
anchors = (
{
name = bottom;
pos = (600,0);
},
{
name = top;
pos = (591,700);
}
);
guides = (
{
angle = 180;
pos = (417,531);
},
{
angle = 180;
pos = (377,441);
},
{
angle = 180;
pos = (382,260);
},
{
pos = (381,173);
}
);
layerId = m01;
shapes = (
{
closed = 1;
nodes = (
(408,-11,o),
(439,-7,o),
(466,0,c),
(947,0,l),
(947,173,l),
(938,173,l),
(871,62,o),
(808,33,o),
(680,32,c),
(680,337,l),
(795,337,o),
(833,330,o),
(878,260,c),
(885,260,l),
(885,441,l),
(877,441,l),
(831,378,o),
(794,373,o),
(680,373,c),
(679,670,l),
(791,670,o),
(884,626,o),
(939,531,c),
(947,531,l),
(947,700,l),
(466,699,l),
(439,706,o),
(408,710,o),
(375,710,cs),
(155,710,o),
(70,548,o),
(70,349,cs),
(70,150,o),
(155,-11,o),
(375,-11,cs)
);
},
{
closed = 1;
nodes = (
(287,29,o),
(254,164,o),
(254,346,cs),
(254,527,o),
(287,661,o),
(374,680,cs),
(411,688,o),
(494,674,o),
(494,599,cs),
(496,100,ls),
(496,28,o),
(415,14,o),
(374,19,cs)
);
}
);
width = 1037;
}
);
metricLeft = O;
metricRight = E;
unicode = 338;
},
{
glyphname = P;
kernRight = RHTuppers;
lastChange = "2026-06-15 00:29:28 +0000";
layers = (
{
anchors = (
{
name = bottom;
pos = (355,0);
},
{
name = top;
pos = (355,700);
}
);
layerId = m01;
shapes = (
{
closed = 1;
nodes = (
(277,0,l),
(277,280,l),
(409,280,ls),
(553,280,o),
(649,352,o),
(649,496,cs),
(649,632,o),
(553,700,o),
(409,700,cs),
(70,700,l),
(70,685,l),
(112,669,l),
(112,0,l)
);
},
{
closed = 1;
nodes = (
(277,671,l),
(332,670,ls),
(412,669,o),
(471,611,o),
(471,496,cs),
(471,372,o),
(412,312,o),
(332,311,cs),
(277,310,l)
);
}
);
width = 699;
}
);
metricLeft = "=H-40";
unicode = 80;
},
{
glyphname = Thorn;
lastChange = "2026-06-10 23:33:28 +0000";
layers = (
{
anchors = (
{
name = bottom;
pos = (374,0);
},
{
name = top;
pos = (374,700);
}
);
layerId = m01;
shapes = (
{
closed = 1;
nodes = (
(285,0,l),
(285,140,l),
(407,140,ls),
(551,140,o),
(647,212,o),
(647,356,cs),
(647,492,o),
(551,560,o),
(407,560,cs),
(285,560,l),
(285,700,l),
(110,700,l),
(110,0,l)
);
},
{
closed = 1;
nodes = (
(285,531,l),
(330,530,ls),
(410,528,o),
(479,471,o),
(479,356,cs),
(479,232,o),
(410,173,o),
(330,171,cs),
(285,170,l)
);
}
);
width = 697;
}
);
metricLeft = H;
metricRight = P;
unicode = 222;
},
{
glyphname = Q;
kernLeft = roundedUppers;
kernRight = RHroundedUpper;
lastChange = "2026-06-12 00:56:24 +0000";
layers = (
{
anchors = (
{
name = bottom;
pos = (374,0);
},
{
name = top;
pos = (374,700);
}
);
layerId = m01;
shapes = (
{
closed = 1;
nodes = (
(395,-11,o),
(413,-10,o),
(431,-7,c),
(442,-45,ls),
(451,-74,o),
(471,-133,o),
(555,-138,cs),
(654,-144,l),
(654,-19,l),
(561,-13,ls),
(537,-11,o),
(522,0,o),
(511,16,c),
(629,70,o),
(677,198,o),
(677,349,cs),
(677,548,o),
(592,710,o),
(375,710,cs),
(155,710,o),
(70,548,o),
(70,349,cs),
(70,150,o),
(155,-11,o),
(375,-11,cs)
);
},
{
closed = 1;
nodes = (
(319,19,o),
(286,77,o),
(269,164,c),
(282,169,o),
(303,174,o),
(319,173,cs),
(374,168,o),
(398,134,o),
(409,93,cs),
(415,71,o),
(418,55,o),
(422,38,c),
(407,25,o),
(392,19,o),
(374,19,cs)
);
},
{
closed = 1;
nodes = (
(257,240,o),
(254,292,o),
(254,346,cs),
(254,527,o),
(287,680,o),
(374,680,cs),
(460,680,o),
(493,527,o),
(493,346,cs),
(493,260,o),
(486,184,o),
(469,125,c),
(466,132,o),
(464,136,o),
(460,142,cs),
(422,202,o),
(353,204,o),
(338,205,cs),
(316,206,o),
(280,202,o),
(263,196,c)
);
}
);
width = 747;
}
);
metricLeft = O;
metricRight = O;
unicode = 81;
},
{
glyphname = R;
lastChange = "2026-06-12 01:42:48 +0000";
layers = (
{
anchors = (
{
name = bottom;
pos = (360,0);
},
{
name = top;
pos = (360,700);
}
);
layerId = m01;
shapes = (
{
closed = 1;
nodes = (
(277,0,l),
(277,314,l),
(466,0,l),
(669,0,l),
(454,319,l),
(555,347,o),
(636,401,o),
(636,509,cs),
(636,596,o),
(578,700,o),
(394,700,cs),
(70,700,l),
(70,685,l),
(112,669,l),
(114,0,l)
);
},
{
closed = 1;
nodes = (
(277,671,l),
(385,671,o),
(472,650,o),
(472,512,cs),
(472,359,o),
(355,352,o),
(277,352,c)
);
}
);
width = 719;
}
);
metricLeft = "=H-40";
metricRight = P;
unicode = 82;
},
{
glyphname = S;
lastChange = "2026-06-10 22:50:32 +0000";
layers = (
{
anchors = (
{
name = bottom;
pos = (334,0);
},
{
name = top;
pos = (334,700);
}
);
layerId = m01;
shapes = (
{
closed = 1;
nodes = (
(477,-10,o),
(597,62,o),
(597,219,cs),
(597,448,o),
(229,395,o),
(229,562,cs),
(229,615,o),
(266,673,o),
(328,673,cs),
(455,673,o),
(518,496,o),
(518,468,c),
(539,468,l),
(555,656,l),
(475,683,o),
(421,705,o),
(327,705,cs),
(156,705,o),
(70,616,o),
(70,497,cs),
(70,242,o),
(438,314,o),
(438,130,cs),
(438,80,o),
(399,22,o),
(333,22,cs),
(174,22,o),
(102,219,o),
(95,248,c),
(72,248,l),
(72,46,l),
(119,25,o),
(215,-10,o),
(321,-10,cs)
);
}
);
width = 667;
}
);
metricLeft = O;
metricRight = O;
unicode = 83;
},
{
glyphname = Germandbls;
lastChange = "2026-06-11 02:59:00 +0000";
layers = (
{
anchors = (
{
name = bottom;
pos = (447,0);
},
{
name = top;
pos = (447,700);
}
);
layerId = m01;
shapes = (
{
closed = 1;
nodes = (
(668,-13,o),
(741,43,o),
(741,155,cs),
(741,308,o),
(539,328,o),
(538,476,cs),
(538,612,o),
(585,630,o),
(667,688,c),
(667,714,l),
(90,714,l),
(90,699,l),
(132,683,l),
(132,0,l),
(302,0,l),
(302,689,l),
(625,689,l),
(554,663,o),
(399,656,o),
(399,415,cs),
(399,230,o),
(589,197,o),
(589,98,cs),
(589,58,o),
(566,32,o),
(523,31,cs),
(467,31,o),
(436,68,o),
(430,142,c),
(381,142,l),
(381,20,l),
(421,-2,o),
(468,-13,o),
(522,-13,cs)
);
}
);
width = 801;
}
);
metricLeft = B;
metricRight = B;
unicode = 7838;
},
{
glyphname = T;
kernLeft = LHTuppers;
kernRight = RHTuppers;
lastChange = "2026-06-15 00:30:06 +0000";
layers = (
{
anchors = (
{
name = bottom;
pos = (351,0);
},
{
name = center;
pos = (351,350);
},
{
name = top;
pos = (351,700);
}
);
layerId = m01;
shapes = (
{
closed = 1;
nodes = (
(439,0,l),
(438,673,l),
(528,673,o),
(640,620,o),
(640,514,c),
(651,514,l),
(651,700,l),
(50,700,l),
(50,514,l),
(61,514,l),
(61,620,o),
(171,673,o),
(263,673,c),
(264,0,l)
);
}
);
width = 701;
}
);
unicode = 84;
},
{
glyphname = U;
kernLeft = roundedUppers;
kernRight = RHroundedUpper;
lastChange = "2026-06-12 02:44:22 +0000";
layers = (
{
anchors = (
{
name = bottom;
pos = (391,0);
},
{
name = ogonek;
pos = (598,38);
},
{
name = top;
pos = (391,700);
},
{
name = topright;
pos = (535,594);
}
);
layerId = m01;
shapes = (
{
closed = 1;
nodes = (
(593,28,o),
(642,110,o),
(640,221,cs),
(639,701,l),
(482,701,l),
(474,629,l),
(584,608,l),
(603,604,o),
(610,597,o),
(610,568,c),
(612,222,ls),
(612,167,o),
(604,134,o),
(579,98,cs),
(535,33,o),
(421,9,o),
(356,56,cs),
(321,82,o),
(304,131,o),
(304,175,cs),
(302,701,l),
(80,701,l),
(80,686,l),
(122,670,l),
(124,222,ls),
(124,139,o),
(165,58,o),
(239,21,cs),
(304,-11,o),
(405,-18,o),
(475,-1,cs)
);
}
);
width = 750;
}
);
metricLeft = "=H-30";
metricRight = H;
unicode = 85;
},
{
glyphname = V;
kernLeft = LHVWuppers;
kernRight = VWuppers;
lastChange = "2026-06-12 02:09:22 +0000";
layers = (
{
anchors = (
{
name = bottom;
pos = (374,0);
},
{
name = top;
pos = (374,700);
}
);
layerId = m01;
shapes = (
{
closed = 1;
nodes = (
(420,0,l),
(708,700,l),
(447,700,l),
(432,621,l),
(613,593,ls),
(625,591,o),
(621,580,o),
(617,569,cs),
(457,168,l),
(254,700,l),
(40,700,l),
(342,0,l)
);
}
);
width = 748;
}
);
metricLeft = A;
metricRight = A;
unicode = 86;
},
{
glyphname = W;
kernLeft = LHVWuppers;
kernRight = VWuppers;
lastChange = "2026-06-12 01:41:01 +0000";
layers = (
{
anchors = (
{
name = bottom;
pos = (517,0);
},
{
name = top;
pos = (517,700);
}
);
layerId = m01;
shapes = (
{
closed = 1;
nodes = (
(368,0,l),
(523,411,l),
(692,0,l),
(732,0,l),
(1020,700,l),
(772,700,l),
(757,621,l),
(915,593,ls),
(927,591,o),
(923,580,o),
(919,569,cs),
(785,230,l),
(604,700,l),
(405,700,l),
(503,460,l),
(418,234,l),
(234,700,l),
(40,700,l),
(327,0,l)
);
}
);
width = 1060;
}
);
metricLeft = A;
metricRight = A;
unicode = 87;
},
{
glyphname = X;
lastChange = "2026-06-10 22:50:41 +0000";
layers = (
{
anchors = (
{
name = bottom;
pos = (372,0);
},
{
name = top;
pos = (372,700);
}
);
guides = (
{
angle = 79.249;
pos = (310,40);
}
);
layerId = m01;
shapes = (
{
closed = 1;
nodes = (
(704,0,l),
(478,369,l),
(701,700,l),
(453,700,l),
(438,621,l),
(561,597,ls),
(574,594,o),
(575,586,o),
(566,573,cs),
(455,405,l),
(274,700,l),
(47,700,l),
(269,339,l),
(40,0,l),
(302,0,l),
(317,79,l),
(180,103,ls),
(167,105,o),
(168,116,o),
(175,127,cs),
(291,303,l),
(477,0,l)
);
}
);
width = 744;
}
);
metricLeft = A;
metricRight = A;
unicode = 88;
},
{
glyphname = Y;
kernLeft = LHVWuppers;
kernRight = RHYuppers;
lastChange = "2026-06-15 00:29:41 +0000";
layers = (
{
anchors = (
{
name = bottom;
pos = (341,0);
},
{
name = top;
pos = (319,700);
},
{
name = topleft;
pos = (-9,700);
}
);
layerId = m01;
shapes = (
{
closed = 1;
nodes = (
(431,0,l),
(431,281,l),
(626,700,l),
(371,700,l),
(358,621,l),
(494,593,ls),
(533,584,o),
(530,564,o),
(524,550,cs),
(418,323,l),
(234,700,l),
(40,700,l),
(254,287,l),
(256,0,l)
);
}
);
width = 666;
},
{
associatedMasterId = m01;
layerId = "78C25D96-9D34-4DAD-8021-9C9C71E25B26";
name = "7 May 26 at 11:43";
shapes = (
{
closed = 1;
nodes = (
(367,621,l),
(367,621,o),
(377,675,o),
(380,699,c),
(635,699,l),
(440,281,l),
(440,0,l),
(255,0,l),
(253,287,l),
(40,699,l),
(244,699,l),
(431,329,l),
(533,550,l),
(539,564,o),
(542,584,o),
(503,593,c)
);
}
);
width = 675;
}
);
metricLeft = A;
metricRight = A;
unicode = 89;
},
{
glyphname = Z;
lastChange = "2026-06-12 01:41:53 +0000";
layers = (
{
anchors = (
{
name = bottom;
pos = (351,0);
},
{
name = center;
pos = (351,350);
},
{
name = top;
pos = (351,700);
}
);
layerId = m01;
shapes = (
{
closed = 1;
nodes = (
(637,0,l),
(637,196,l),
(559,185,l),
(526,60,ls),
(521,41,o),
(513,34,o),
(490,34,cs),
(282,34,l),
(642,700,l),
(90,700,l),
(90,504,l),
(168,515,l),
(201,640,ls),
(206,666,o),
(214,666,o),
(237,666,cs),
(424,666,l),
(60,0,l)
);
}
);
width = 702;
}
);
metricLeft = "=A+20";
metricRight = "=A+20";
unicode = 90;
},
{
glyphname = Saltillo;
lastChange = "2026-06-04 23:27:33 +0000";
layers = (
{
layerId = m01;
shapes = (
{
closed = 1;
nodes = (
(107,432,l),
(131,701,l),
(20,701,l),
(44,432,l)
);
}
);
width = 151;
}
);
unicode = 42891;
},
{
glyphname = E.ss01;
lastChange = "2026-06-12 01:01:03 +0000";
layers = (
{
anchors = (
{
name = bottom;
pos = (333,0);
},
{
name = ogonek;
pos = (559,10);
},
{
name = top;
pos = (333,700);
},
{
name = topleft;
pos = (70,700);
}
);
layerId = m01;
shapes = (
{
closed = 1;
nodes = (
(575,0,l),
(573,170,l),
(497,159,l),
(464,53,ls),
(458,34,o),
(451,28,o),
(428,28,cs),
(308,28,l),
(308,337,l),
(414,337,ls),
(427,337,o),
(429,336,o),
(434,324,cs),
(452,278,l),
(493,272,l),
(493,436,l),
(452,430,l),
(434,384,ls),
(429,372,o),
(427,371,o),
(414,371,cs),
(308,371,l),
(308,373,l),
(307,670,l),
(307,672,l),
(428,672,ls),
(451,672,o),
(458,666,o),
(464,647,cs),
(497,541,l),
(573,530,l),
(575,700,l),
(90,700,l),
(90,685,l),
(132,669,l),
(134,0,l)
);
}
);
width = 665;
}
);
metricLeft = "=H-20";
metricRight = E;
},
{
glyphname = F.ss01;
kernRight = RHTuppers;
lastChange = "2026-06-10 22:54:04 +0000";
layers = (
{
anchors = (
{
name = bottom;
pos = (333,0);
},
{
name = top;
pos = (333,700);
}
);
layerId = m01;
shapes = (
{
closed = 1;
nodes = (
(308,0,l),
(307,337,l),
(414,337,ls),
(427,337,o),
(429,336,o),
(434,324,cs),
(452,278,l),
(493,272,l),
(493,436,l),
(452,430,l),
(434,384,ls),
(429,372,o),
(427,371,o),
(414,371,cs),
(307,371,l),
(307,670,l),
(307,672,l),
(428,672,ls),
(451,672,o),
(458,666,o),
(464,647,cs),
(497,541,l),
(573,530,l),
(575,700,l),
(90,700,l),
(90,685,l),
(132,669,l),
(134,0,l)
);
}
);
width = 655;
}
);
metricLeft = "=H-20";
metricRight = F;
},
{
glyphname = K.ss01;
lastChange = "2026-06-15 00:33:24 +0000";
layers = (
{
anchors = (
{
name = bottom;
pos = (424,0);
},
{
name = top;
pos = (424,700);
}
);
layerId = m01;
shapes = (
{
closed = 1;
nodes = (
(314,0,l),
(314,700,l),
(90,700,l),
(90,685,l),
(134,668,l),
(134,0,l)
);
},
{
closed = 1;
nodes = (
(758,0,l),
(753,1,o),
(427,434,o),
(427,434,c),
(329,326,l),
(483,117,ls),
(493,104,o),
(491,95,o),
(478,93,cs),
(392,79,l),
(407,0,l)
);
},
{
closed = 1;
nodes = (
(706,701,l),
(436,701,l),
(422,624,l),
(550,602,ls),
(556,601,o),
(558,591,o),
(552,585,cs),
(307,335,l),
(307,288,l)
);
}
);
width = 798;
}
);
metricLeft = "=H-20";
metricRight = K;
},
{
glyphname = L.ss01;
lastChange = "2026-06-10 22:53:56 +0000";
layers = (
{
anchors = (
{
name = bottom;
pos = (327,0);
},
{
name = center;
pos = (210,350);
},
{
name = top;
pos = (327,700);
},
{
name = topright;
pos = (416,781);
}
);
layerId = m01;
shapes = (
{
closed = 1;
nodes = (
(563,0,l),
(563,180,l),
(485,169,l),
(452,53,ls),
(447,34,o),
(439,28,o),
(416,28,cs),
(310,28,l),
(310,699,l),
(90,699,l),
(90,684,l),
(134,667,l),
(134,0,l)
);
}
);
width = 643;
}
);
metricLeft = "=H-20";
metricRight = L;
},
{
glyphname = M.ss01;
lastChange = "2026-06-10 22:53:11 +0000";
layers = (
{
anchors = (
{
name = bottom;
pos = (454,0);
},
{
name = top;
pos = (454,700);
}
);
layerId = m01;
shapes = (
{
closed = 1;
nodes = (
(598,557,l),
(598,0,l),
(775,0,l),
(773,700,l),
(610,700,l),
(466,272,l),
(282,700,l),
(90,700,l),
(90,685,l),
(132,669,l),
(132,631,l),
(133,0,l),
(161,0,l),
(162,557,l),
(405,-12,l)
);
}
);
width = 885;
}
);
metricLeft = "=H-20";
metricRight = H;
},
{
glyphname = R.ss01;
lastChange = "2026-06-15 00:32:33 +0000";
layers = (
{
anchors = (
{
name = bottom;
pos = (370,0);
},
{
name = top;
pos = (370,700);
}
);
layerId = m01;
shapes = (
{
closed = 1;
nodes = (
(265,0,l),
(266,304,l),
(280,303,o),
(295,302,o),
(308,303,c),
(424,127,ls),
(431,116,o),
(432,106,o),
(419,103,cs),
(326,79,l),
(341,0,l),
(659,0,l),
(654,1,o),
(508,222,o),
(445,317,c),
(540,341,o),
(614,398,o),
(614,509,cs),
(614,596,o),
(556,700,o),
(372,700,cs),
(90,700,l),
(92,0,l)
);
},
{
closed = 1;
nodes = (
(266,671,l),
(373,671,o),
(440,650,o),
(440,512,cs),
(440,359,o),
(343,352,o),
(267,352,c)
);
}
);
width = 709;
}
);
metricLeft = "=H-20";
metricRight = P;
},
{
glyphname = T.ss01;
kernLeft = LHTuppers;
kernRight = RHTuppers;
lastChange = "2026-06-10 22:53:17 +0000";
layers = (
{
anchors = (
{
name = bottom;
pos = (369,0);
},
{
name = center;
pos = (369,350);
},
{
name = top;
pos = (369,700);
}
);
layerId = m01;
shapes = (
{
closed = 1;
nodes = (
(457,0,l),
(456,672,l),
(540,672,ls),
(563,672,o),
(571,666,o),
(576,647,cs),
(609,531,l),
(687,520,l),
(687,700,l),
(50,700,l),
(50,520,l),
(128,531,l),
(161,647,ls),
(166,666,o),
(174,672,o),
(197,672,cs),
(281,672,l),
(282,0,l)
);
}
);
width = 737;
}
);
metricLeft = T;
metricRight = T;
},
{
glyphname = Z.ss01;
lastChange = "2026-06-10 22:53:49 +0000";
layers = (
{
anchors = (
{
name = bottom;
pos = (346,0);
},
{
name = center;
pos = (346,350);
},
{
name = top;
pos = (346,700);
}
);
layerId = m01;
shapes = (
{
closed = 1;
nodes = (
(263,0,l),
(642,700,l),
(433,700,l),
(50,0,l)
);
},
{
closed = 1;
nodes = (
(637,0,l),
(639,240,l),
(614,240,l),
(576,108,o),
(493,33,o),
(349,33,cs),
(269,33,l),
(245,0,l)
);
},
{
closed = 1;
nodes = (
(104,460,l),
(142,592,o),
(225,667,o),
(369,667,cs),
(449,667,l),
(473,700,l),
(81,700,l),
(79,460,l)
);
}
);
width = 692;
}
);
metricLeft = "=A+10";
metricRight = "=A+10";
},
{
glyphname = a;
kernLeft = LHalowers;
kernRight = RHlowerangled;
lastChange = "2026-06-15 00:37:47 +0000";
layers = (
{
anchors = (
{
name = bottom;
pos = (299,0);
},
{
name = ogonek;
pos = (521,10);
},
{
name = top;
pos = (294,470);
}
);
layerId = m01;
shapes = (
{
closed = 1;
nodes = (
(250,-9,o),
(295,14,o),
(331,60,c),
(334,46,o),
(361,-7,o),
(428,-7,cs),
(498,-7,o),
(529,29,o),
(537,52,c),
(525,64,l),
(499,41,o),
(473,49,o),
(474,119,cs),
(474,302,ls),
(474,419,o),
(407,478,o),
(273,478,cs),
(201,478,o),
(155,460,o),
(90,426,c),
(139,315,l),
(147,315,l),
(208,406,ls),
(235,443,o),
(250,457,o),
(269,457,cs),
(312,457,o),
(327,410,o),
(323,316,c),
(155,284,o),
(60,240,o),
(60,118,cs),
(60,31,o),
(125,-9,o),
(198,-9,cs)
);
},
{
closed = 1;
nodes = (
(222,53,o),
(201,80,o),
(201,141,cs),
(201,240,o),
(279,273,o),
(323,293,c),
(323,86,ls),
(323,76,o),
(295,53,o),
(267,53,cs)
);
}
);
width = 587;
}
);
unicode = 97;
},
{
glyphname = ae;
kernLeft = LHalowers;
kernRight = RHroundedlow;
lastChange = "2026-06-15 00:51:49 +0000";
layers = (
{
anchors = (
{
name = bottom;
pos = (405,0);
},
{
name = top;
pos = (418,470);
}
);
layerId = m01;
shapes = (
{
closed = 1;
nodes = (
(650,-16,o),
(703,43,o),
(745,125,c),
(729,138,l),
(699,93,o),
(661,70,o),
(613,71,cs),
(536,71,o),
(471,132,o),
(471,255,c),
(750,255,l),
(750,403,o),
(674,475,o),
(546,475,cs),
(499,475,o),
(454,463,o),
(418,439,c),
(384,465,o),
(336,478,o),
(273,478,cs),
(201,478,o),
(155,460,o),
(90,426,c),
(139,315,l),
(147,315,l),
(208,406,ls),
(235,443,o),
(250,457,o),
(269,457,cs),
(312,457,o),
(327,410,o),
(323,316,c),
(155,284,o),
(60,240,o),
(60,118,cs),
(60,31,o),
(126,-9,o),
(198,-16,cs),
(250,-21,o),
(334,-12,o),
(373,74,c),
(414,19,o),
(477,-16,o),
(545,-16,cs)
);
},
{
closed = 1;
nodes = (
(222,53,o),
(201,80,o),
(201,141,cs),
(201,240,o),
(279,273,o),
(323,293,c),
(323,108,ls),
(323,70,o),
(295,53,o),
(267,53,cs)
);
},
{
closed = 1;
nodes = (
(471,392,o),
(496,451,o),
(545,451,cs),
(589,451,o),
(611,392,o),
(611,275,c),
(471,275,l)
);
}
);
width = 815;
}
);
metricLeft = a;
metricRight = e;
unicode = 230;
},
{
glyphname = b;
kernRight = RHroundedlow;
lastChange = "2026-06-11 23:47:58 +0000";
layers = (
{
anchors = (
{
name = bottom;
pos = (290,0);
},
{
name = center;
pos = (150,640);
},
{
name = top;
pos = (290,470);
}
);
layerId = m01;
shapes = (
{
closed = 1;
nodes = (
(453,-9,o),
(549,65,o),
(549,250,cs),
(549,401,o),
(461,481,o),
(348,481,cs),
(304,481,o),
(264,458,o),
(230,424,c),
(239,392,l),
(263,424,o),
(286,439,o),
(310,439,cs),
(360,439,o),
(395,384,o),
(395,251,cs),
(395,93,o),
(360,29,o),
(309,29,cs),
(279,29,o),
(255,42,o),
(237,80,c),
(211,71,l),
(232,31,o),
(268,-8,o),
(331,-9,cs)
);
},
{
closed = 1;
nodes = (
(247,0,l),
(247,713,l),
(50,697,l),
(50,684,l),
(94,667,l),
(94,-1,l)
);
}
);
width = 614;
}
);
metricLeft = n;
metricRight = o;
unicode = 98;
},
{
glyphname = c;
kernLeft = roundedLow;
kernRight = RHroundedlow;
lastChange = "2026-06-12 01:26:06 +0000";
layers = (
{
anchors = (
{
name = bottom;
pos = (274,0);
},
{
name = top;
pos = (294,470);
}
);
layerId = m01;
shapes = (
{
closed = 1;
nodes = (
(401,-7,o),
(454,33,o),
(483,137,c),
(464,144,l),
(437,58,o),
(389,25,o),
(333,26,cs),
(261,26,o),
(225,97,o),
(225,240,cs),
(225,384,o),
(251,456,o),
(303,456,cs),
(353,456,o),
(393,397,o),
(421,277,c),
(432,277,l),
(482,414,l),
(433,456,o),
(371,478,o),
(298,478,cs),
(165,478,o),
(65,399,o),
(65,240,cs),
(65,75,o),
(165,-8,o),
(300,-8,cs)
);
}
);
width = 528;
}
);
metricLeft = o;
metricRight = "=o-20";
unicode = 99;
},
{
glyphname = d;
kernLeft = roundedLow;
lastChange = "2026-06-12 01:15:00 +0000";
layers = (
{
anchors = (
{
name = bottom;
pos = (303,0);
},
{
name = center;
pos = (442,575);
},
{
name = top;
pos = (254,470);
},
{
name = topright;
pos = (538,800);
}
);
guides = (
{
angle = 90;
pos = (367,357);
}
);
layerId = m01;
shapes = (
{
closed = 1;
nodes = (
(314,-9,o),
(350,14,o),
(384,48,c),
(375,80,l),
(351,48,o),
(328,33,o),
(304,33,cs),
(254,33,o),
(219,98,o),
(219,221,cs),
(219,369,o),
(246,443,o),
(305,443,cs),
(335,443,o),
(359,430,o),
(377,392,c),
(403,401,l),
(382,441,o),
(346,481,o),
(283,481,cs),
(153,481,o),
(65,407,o),
(65,222,cs),
(65,71,o),
(153,-9,o),
(266,-9,cs)
);
},
{
closed = 1;
nodes = (
(521,0,l),
(521,713,l),
(324,697,l),
(324,684,l),
(368,667,l),
(368,-1,l)
);
}
);
width = 611;
}
);
metricLeft = o;
metricRight = l;
unicode = 100;
},
{
glyphname = eth;
kernLeft = roundedLow;
kernRight = RHroundedlow;
lastChange = "2026-06-12 02:04:34 +0000";
layers = (
{
anchors = (
{
name = bottom;
pos = (327,0);
},
{
name = top;
pos = (327,800);
}
);
layerId = m01;
shapes = (
{
closed = 1;
nodes = (
(484,-16,o),
(588,88,o),
(588,295,c),
(592,521,o),
(431,698,o),
(184,781,c),
(156,733,l),
(262,676,o),
(338,592,o),
(380,489,c),
(211,548,o),
(65,417,o),
(65,247,c),
(65,72,o),
(180,-16,o),
(322,-16,c)
);
},
{
closed = 1;
nodes = (
(264,32,o),
(231,105,o),
(231,252,c),
(231,390,o),
(262,459,o),
(323,459,c),
(388,459,o),
(421,394,o),
(421,263,c),
(421,109,o),
(391,32,o),
(330,32,c)
);
},
{
attr = {
strokeWidth = 50;
};
closed = 0;
nodes = (
(513,737,l),
(162,573,l)
);
}
);
width = 653;
}
);
metricLeft = d;
metricRight = o;
unicode = 240;
},
{
glyphname = e;
kernLeft = roundedLow;
kernRight = RHroundedlow;
lastChange = "2026-06-14 20:34:34 +0000";
layers = (
{
anchors = (
{
name = bottom;
pos = (283,0);
},
{
name = ogonek;
pos = (471,42);
},
{
name = top;
pos = (283,470);
}
);
layerId = m01;
shapes = (
{
closed = 1;
nodes = (
(401,-8,o),
(454,43,o),
(496,125,c),
(480,138,l),
(450,93,o),
(412,70,o),
(364,71,cs),
(287,71,o),
(222,132,o),
(222,255,c),
(501,255,l),
(501,403,o),
(425,475,o),
(297,475,cs),
(177,475,o),
(65,398,o),
(65,240,cs),
(65,75,o),
(177,-8,o),
(296,-8,cs)
);
},
{
closed = 1;
nodes = (
(222,392,o),
(247,451,o),
(296,451,cs),
(340,451,o),
(362,392,o),
(362,275,c),
(222,275,l)
);
}
);
width = 566;
}
);
metricLeft = o;
metricRight = o;
unicode = 101;
},
{
glyphname = schwa;
kernLeft = roundedLow;
kernRight = RHroundedlow;
lastChange = "2026-06-11 23:47:58 +0000";
layers = (
{
anchors = (
{
name = bottom;
pos = (278,0);
},
{
name = ogonekabove;
pos = (76,460);
},
{
name = top;
pos = (278,470);
}
);
layerId = m01;
shapes = (
{
closed = 1;
nodes = (
(389,-5,o),
(491,72,o),
(491,230,cs),
(491,395,o),
(389,478,o),
(270,478,cs),
(165,478,o),
(112,427,o),
(70,345,c),
(86,332,l),
(116,377,o),
(154,400,o),
(202,399,cs),
(279,399,o),
(344,358,o),
(344,245,c),
(65,245,l),
(65,97,o),
(141,-5,o),
(269,-5,cs)
);
},
{
closed = 1;
nodes = (
(226,19,o),
(204,88,o),
(204,205,c),
(344,205,l),
(344,88,o),
(319,19,o),
(270,19,cs)
);
}
);
width = 556;
}
);
metricLeft = o;
metricRight = o;
unicode = 601;
},
{
glyphname = ezh;
kernLeft = LHlowerangled;
lastChange = "2026-06-11 23:47:58 +0000";
layers = (
{
anchors = (
{
name = bottom;
pos = (273,-45);
},
{
name = top;
pos = (273,488);
}
);
layerId = m01;
shapes = (
{
closed = 1;
nodes = (
(410,-59,o),
(495,1,o),
(495,110,cs),
(495,182,o),
(462,281,o),
(333,280,c),
(481,437,l),
(481,508,l),
(90,508,l),
(77,366,l),
(96,366,l),
(99,402,o),
(121,440,o),
(200,440,cs),
(379,440,l),
(215,268,l),
(215,245,l),
(239,245,ls),
(327,245,o),
(357,186,o),
(357,101,cs),
(357,24,o),
(335,-29,o),
(272,-29,cs),
(218,-28,o),
(179,28,o),
(188,139,c),
(50,122,l),
(50,3,o),
(150,-64,o),
(276,-62,cs)
);
}
);
width = 560;
}
);
metricLeft = n;
metricRight = b;
unicode = 658;
},
{
glyphname = f;
kernRight = RHFTlower;
lastChange = "2026-06-14 20:33:13 +0000";
layers = (
{
anchors = (
{
name = bottom;
pos = (261,0);
},
{
name = top;
pos = (261,700);
}
);
layerId = m01;
shapes = (
{
closed = 1;
nodes = (
(283,-1,l),
(284,595,ls),
(284,648,o),
(298,674,o),
(325,674,cs),
(356,674,o),
(389,620,o),
(422,514,c),
(432,514,l),
(481,654,l),
(434,684,o),
(382,699,o),
(325,699,cs),
(192,699,o),
(126,630,o),
(126,493,cs),
(126,-1,l)
);
},
{
closed = 1;
nodes = (
(418,437,l),
(418,470,l),
(50,470,l),
(50,437,l)
);
}
);
width = 496;
}
);
metricLeft = t;
metricRight = "=t-35";
unicode = 102;
},
{
glyphname = g;
kernLeft = roundedLow;
lastChange = "2026-06-15 00:35:37 +0000";
layers = (
{
anchors = (
{
name = bottom;
pos = (303,-222);
},
{
name = top;
pos = (303,523);
}
);
layerId = m01;
shapes = (
{
closed = 1;
nodes = (
(459,-230,o),
(540,-169,o),
(540,-46,cs),
(540,29,o),
(493,86,o),
(374,86,cs),
(239,86,ls),
(182,86,o),
(167,98,o),
(167,122,cs),
(166,138,o),
(181,153,o),
(210,167,c),
(179,173,l),
(118,153,o),
(83,101,o),
(83,52,cs),
(84,15,o),
(101,-12,o),
(134,-31,c),
(65,-167,l),
(121,-209,o),
(198,-230,o),
(296,-230,cs)
);
},
{
closed = 1;
nodes = (
(274,-128,l),
(174,-111,ls),
(139,-104,o),
(133,-85,o),
(157,-41,c),
(165,-45,o),
(177,-46,o),
(185,-46,cs),
(351,-49,ls),
(400,-49,o),
(424,-71,o),
(424,-116,cs),
(424,-177,o),
(357,-208,o),
(288,-208,cs),
(257,-208,l)
);
},
{
closed = 1;
nodes = (
(421,143,o),
(508,202,o),
(508,317,cs),
(508,424,o),
(415,480,o),
(297,480,cs),
(178,480,o),
(84,424,o),
(84,317,cs),
(84,202,o),
(172,143,o),
(297,143,cs)
);
},
{
closed = 1;
nodes = (
(251,165,o),
(229,216,o),
(229,315,cs),
(229,409,o),
(251,458,o),
(296,458,cs),
(340,458,o),
(362,409,o),
(362,315,cs),
(362,216,o),
(340,165,o),
(296,165,cs)
);
},
{
closed = 1;
nodes = (
(417,472,o),
(428,487,o),
(450,487,cs),
(525,487,l),
(536,579,l),
(505,579,ls),
(412,579,o),
(385,530,o),
(385,451,c),
(415,440,l)
);
}
);
width = 615;
}
);
metricLeft = o;
metricRight = "=o+10";
unicode = 103;
},
{
glyphname = h;
kernRight = RHlowerangled;
lastChange = "2026-06-10 21:55:27 +0000";
layers = (
{
anchors = (
{
name = bottom;
pos = (284,0);
},
{
name = center;
pos = (172,570);
},
{
name = top;
pos = (175,684);
}
);
layerId = m01;
shapes = (
{
closed = 1;
nodes = (
(257,0,l),
(257,713,l),
(50,697,l),
(50,684,l),
(94,667,l),
(94,0,l)
);
},
{
closed = 1;
nodes = (
(527,0,l),
(527,324,ls),
(527,434,o),
(438,478,o),
(384,478,cs),
(317,478,o),
(270,448,o),
(235,392,c),
(253,363,l),
(267,397,o),
(289,415,o),
(318,415,cs),
(365,415,o),
(371,377,o),
(371,301,cs),
(371,0,l)
);
}
);
width = 607;
}
);
metricLeft = n;
metricRight = n;
unicode = 104;
},
{
glyphname = i;
kernLeft = LHlowerangled;
kernRight = RHlowerangled;
lastChange = "2026-06-12 01:51:24 +0000";
layers = (
{
anchors = (
{
name = bottom;
pos = (176,0);
}
);
layerId = m01;
shapes = (
{
closed = 1;
nodes = (
(223,539,o),
(261,577,o),
(261,625,cs),
(261,672,o),
(223,710,o),
(176,710,cs),
(128,710,o),
(90,672,o),
(90,625,cs),
(90,577,o),
(128,539,o),
(176,539,cs)
);
},
{
pos = (9,0);
ref = idotless;
}
);
width = 351;
}
);
metricLeft = idotless;
metricRight = idotless;
unicode = 105;
},
{
glyphname = idotless;
kernLeft = LHlowerangled;
kernRight = RHlowerangled;
lastChange = "2026-06-11 03:17:45 +0000";
layers = (
{
anchors = (
{
name = bottom;
pos = (167,0);
},
{
name = ogonek;
pos = (253,0);
},
{
name = top;
pos = (167,470);
}
);
layerId = m01;
shapes = (
{
closed = 1;
nodes = (
(243,0,l),
(243,483,l),
(90,467,l),
(90,0,l)
);
}
);
width = 333;
}
);
metricLeft = "=|l";
metricRight = l;
unicode = 305;
},
{
glyphname = j;
kernLeft = lhjlowers;
kernRight = rhjlowers;
lastChange = "2026-06-12 01:35:03 +0000";
layers = (
{
layerId = m01;
shapes = (
{
closed = 1;
nodes = (
(330,539,o),
(368,577,o),
(368,625,cs),
(368,672,o),
(330,710,o),
(283,710,cs),
(235,710,o),
(197,672,o),
(197,625,cs),
(197,577,o),
(235,539,o),
(283,539,cs)
);
},
{
ref = jdotless;
}
);
width = 458;
}
);
metricLeft = jdotless;
metricRight = jdotless;
unicode = 106;
},
{
glyphname = jdotless;
kernLeft = lhjlowers;
kernRight = rhjlowers;
lastChange = "2026-06-12 01:28:01 +0000";
layers = (
{
anchors = (
{
name = bottom;
pos = (284,-200);
},
{
name = top;
pos = (284,470);
}
);
layerId = m01;
shapes = (
{
closed = 1;
nodes = (
(293,-228,o),
(359,-155,o),
(359,-10,c),
(359,483,l),
(206,467,l),
(206,-10,l),
(206,-154,o),
(201,-198,o),
(170,-198,c),
(134,-198,o),
(122,-154,o),
(117,-68,c),
(32,-75,l),
(20,-192,l),
(65,-216,o),
(115,-228,o),
(174,-228,c)
);
}
);
width = 449;
}
);
metricRight = l;
unicode = 567;
},
{
glyphname = k;
lastChange = "2026-06-10 23:52:39 +0000";
layers = (
{
anchors = (
{
name = bottom;
pos = (310,0);
},
{
name = top;
pos = (310,700);
}
);
layerId = m01;
shapes = (
{
closed = 1;
nodes = (
(580,0,l),
(387,304,l),
(572,477,l),
(355,477,l),
(340,413,l),
(435,386,l),
(168,136,l),
(207,136,l),
(282,206,l),
(387,0,l)
);
},
{
closed = 1;
nodes = (
(247,0,l),
(247,713,l),
(50,697,l),
(50,684,l),
(94,667,l),
(94,0,l)
);
}
);
width = 620;
}
);
metricLeft = n;
metricRight = x;
unicode = 107;
},
{
glyphname = l;
lastChange = "2026-06-10 23:37:44 +0000";
layers = (
{
anchors = (
{
name = bottom;
pos = (168,0);
},
{
name = center;
pos = (159,381);
},
{
name = top;
pos = (154,700);
},
{
name = topright;
pos = (245,800);
}
);
layerId = m01;
shapes = (
{
closed = 1;
nodes = (
(242,0,l),
(242,713,l),
(50,697,l),
(50,684,l),
(94,667,l),
(94,0,l)
);
}
);
width = 332;
}
);
metricLeft = n;
unicode = 108;
},
{
glyphname = m;
kernLeft = LHlowerangled;
kernRight = RHlowerangled;
lastChange = "2026-06-12 01:09:46 +0000";
layers = (
{
anchors = (
{
name = bottom;
pos = (422,0);
},
{
name = top;
pos = (422,470);
}
);
layerId = m01;
shapes = (
{
closed = 1;
nodes = (
(803,1,l),
(803,308,ls),
(803,423,o),
(751,479,o),
(647,479,cs),
(580,479,o),
(530,442,o),
(495,386,c),
(513,364,l),
(527,398,o),
(557,416,o),
(578,416,cs),
(630,416,o),
(643,378,o),
(643,302,cs),
(643,1,l)
);
},
{
closed = 1;
nodes = (
(259,1,l),
(259,381,l),
(244,392,l),
(223,471,l),
(100,471,l),
(100,1,l)
);
},
{
closed = 1;
nodes = (
(110,471,l),
(50,471,l),
(50,457,l),
(105,432,l)
);
},
{
closed = 1;
nodes = (
(529,1,l),
(529,325,ls),
(529,435,o),
(440,479,o),
(386,479,cs),
(319,479,o),
(272,449,o),
(237,393,c),
(255,364,l),
(269,398,o),
(291,416,o),
(320,416,cs),
(367,416,o),
(373,378,o),
(373,302,cs),
(373,1,l)
);
}
);
width = 883;
}
);
metricLeft = n;
metricRight = n;
unicode = 109;
},
{
glyphname = n;
kernLeft = LHlowerangled;
kernRight = RHlowerangled;
lastChange = "2026-06-15 00:28:37 +0000";
layers = (
{
anchors = (
{
name = bottom;
pos = (311,0);
},
{
name = top;
pos = (311,470);
}
);
layerId = m01;
shapes = (
{
closed = 1;
nodes = (
(255,1,l),
(255,373,l),
(269,401,o),
(290,416,o),
(316,416,cs),
(359,416,o),
(381,378,o),
(381,302,cs),
(381,1,l),
(541,1,l),
(541,308,ls),
(541,423,o),
(489,479,o),
(385,479,cs),
(321,479,o),
(272,452,o),
(238,400,c),
(219,471,l),
(96,471,l),
(96,1,l)
);
},
{
closed = 1;
nodes = (
(110,471,l),
(50,471,l),
(50,457,l),
(105,432,l)
);
}
);
width = 621;
}
);
unicode = 110;
},
{
glyphname = eng;
lastChange = "2026-06-14 20:39:35 +0000";
layers = (
{
anchors = (
{
name = bottom;
pos = (286,0);
},
{
name = top;
pos = (286,470);
}
);
layerId = m01;
shapes = (
{
closed = 1;
nodes = (
(531,1,l),
(531,308,ls),
(531,423,o),
(499,479,o),
(395,479,cs),
(313,479,o),
(253,455,o),
(228,400,c),
(209,471,l),
(50,471,l),
(50,457,l),
(96,436,l),
(96,0,l),
(245,0,l),
(245,333,l),
(245,410,o),
(287,416,o),
(319,416,cs),
(369,416,o),
(391,378,o),
(391,302,cs),
(391,1,l)
);
},
{
closed = 1;
nodes = (
(502,-33,ls),
(502,-56,o),
(496,-65,o),
(477,-69,cs),
(352,-92,l),
(341,-170,l),
(531,-170,l),
(531,57,l),
(502,57,l)
);
}
);
width = 611;
}
);
metricLeft = n;
metricRight = n;
unicode = 331;
},
{
glyphname = o;
kernLeft = roundedLow;
kernRight = RHroundedlow;
lastChange = "2026-06-15 00:31:00 +0000";
layers = (
{
anchors = (
{
name = bottom;
pos = (303,-10);
},
{
name = center;
pos = (303,235);
},
{
name = ogonek;
pos = (434,10);
},
{
name = top;
pos = (303,470);
},
{
name = topright;
pos = (381,412);
}
);
layerId = m01;
shapes = (
{
closed = 1;
nodes = (
(444,-9,o),
(541,76,o),
(541,243,c),
(541,402,o),
(431,478,o),
(304,478,c),
(178,478,o),
(65,402,o),
(65,243,c),
(65,76,o),
(165,-9,o),
(304,-9,c)
);
},
{
closed = 1;
nodes = (
(255,15,o),
(231,90,o),
(231,243,c),
(231,386,o),
(255,455,o),
(304,455,c),
(351,455,o),
(375,386,o),
(375,243,c),
(375,90,o),
(351,15,o),
(304,15,c)
);
}
);
width = 606;
}
);
unicode = 111;
},
{
glyphname = oe;
kernLeft = roundedLow;
kernRight = RHroundedlow;
lastChange = "2026-06-14 20:36:59 +0000";
layers = (
{
anchors = (
{
name = bottom;
pos = (448,0);
},
{
name = top;
pos = (448,470);
}
);
layerId = m01;
shapes = (
{
closed = 1;
nodes = (
(376,-9,o),
(436,13,o),
(477,56,c),
(513,13,o),
(564,-8,o),
(625,-8,cs),
(730,-8,o),
(783,43,o),
(825,125,c),
(809,138,l),
(779,93,o),
(741,70,o),
(693,71,cs),
(616,71,o),
(551,132,o),
(551,255,c),
(830,255,l),
(830,403,o),
(754,475,o),
(626,475,cs),
(565,475,o),
(512,454,o),
(476,414,c),
(433,457,o),
(371,478,o),
(304,478,cs),
(178,478,o),
(65,402,o),
(65,243,cs),
(65,76,o),
(165,-9,o),
(304,-9,cs)
);
},
{
closed = 1;
nodes = (
(255,15,o),
(213,90,o),
(213,243,cs),
(213,386,o),
(255,455,o),
(304,455,cs),
(351,455,o),
(394,386,o),
(394,243,cs),
(394,90,o),
(351,15,o),
(304,15,cs)
);
},
{
closed = 1;
nodes = (
(551,392,o),
(576,451,o),
(625,451,cs),
(669,451,o),
(691,392,o),
(691,275,c),
(551,275,l)
);
}
);
width = 895;
}
);
metricLeft = o;
metricRight = e;
unicode = 339;
},
{
glyphname = p;
kernLeft = LHlowerangled;
kernRight = RHroundedlow;
lastChange = "2026-06-12 01:05:46 +0000";
layers = (
{
anchors = (
{
name = bottom;
pos = (292,0);
},
{
name = top;
pos = (292,470);
}
);
layerId = m01;
shapes = (
{
closed = 1;
nodes = (
(448,-12,o),
(544,62,o),
(544,247,cs),
(544,398,o),
(456,478,o),
(343,478,cs),
(299,478,o),
(259,455,o),
(225,421,c),
(234,389,l),
(258,421,o),
(281,436,o),
(305,436,cs),
(355,436,o),
(395,381,o),
(395,248,cs),
(395,90,o),
(355,26,o),
(304,26,cs),
(274,26,o),
(250,39,o),
(232,77,c),
(206,68,l),
(227,28,o),
(263,-11,o),
(326,-12,cs)
);
},
{
closed = 1;
nodes = (
(242,-222,l),
(242,419,l),
(240,432,l),
(223,470,l),
(50,470,l),
(50,457,l),
(94,440,l),
(94,-223,l)
);
}
);
width = 609;
}
);
metricLeft = n;
metricRight = o;
unicode = 112;
},
{
glyphname = thorn;
kernRight = RHroundedlow;
lastChange = "2026-06-11 23:47:58 +0000";
layers = (
{
anchors = (
{
name = bottom;
pos = (300,0);
},
{
name = top;
pos = (300,800);
}
);
layerId = m01;
shapes = (
{
closed = 1;
nodes = (
(257,-243,l),
(257,419,l),
(255,662,l),
(238,700,l),
(50,700,l),
(50,687,l),
(94,670,l),
(94,-244,l)
);
},
{
closed = 1;
nodes = (
(463,-12,o),
(559,62,o),
(559,247,cs),
(559,398,o),
(471,478,o),
(358,478,cs),
(314,478,o),
(274,455,o),
(240,421,c),
(249,389,l),
(273,421,o),
(296,436,o),
(320,436,cs),
(370,436,o),
(395,371,o),
(395,248,cs),
(395,100,o),
(370,26,o),
(319,26,cs),
(289,26,o),
(265,39,o),
(247,77,c),
(221,68,l),
(242,28,o),
(278,-11,o),
(341,-12,cs)
);
}
);
width = 624;
}
);
metricLeft = l;
metricRight = o;
unicode = 254;
},
{
glyphname = q;
kernLeft = roundedLow;
lastChange = "2026-06-12 01:08:49 +0000";
layers = (
{
anchors = (
{
name = bottom;
pos = (315,0);
},
{
name = top;
pos = (315,470);
}
);
layerId = m01;
shapes = (
{
closed = 1;
nodes = (
(310,-12,o),
(350,11,o),
(384,45,c),
(375,77,l),
(351,45,o),
(328,30,o),
(304,30,cs),
(254,30,o),
(219,95,o),
(219,218,cs),
(219,366,o),
(254,440,o),
(305,440,cs),
(335,440,o),
(359,427,o),
(377,389,c),
(403,398,l),
(382,438,o),
(346,477,o),
(283,478,cs),
(161,478,o),
(65,404,o),
(65,219,cs),
(65,68,o),
(153,-12,o),
(266,-12,cs)
);
},
{
closed = 1;
nodes = (
(574,-204,l),
(520,-188,l),
(520,470,l),
(367,436,l),
(367,419,l),
(367,-223,l),
(574,-224,l)
);
}
);
width = 624;
}
);
metricLeft = o;
metricRight = "=|n";
unicode = 113;
},
{
glyphname = r;
kernLeft = LHlowerangled;
lastChange = "2026-06-14 20:38:01 +0000";
layers = (
{
anchors = (
{
name = bottom;
pos = (235,0);
},
{
name = top;
pos = (235,470);
}
);
layerId = m01;
shapes = (
{
closed = 1;
nodes = (
(255,0,l),
(255,318,ls),
(255,382,o),
(284,410,o),
(310,411,cs),
(353,413,o),
(369,368,o),
(383,291,c),
(401,291,l),
(440,462,l),
(419,470,o),
(395,479,o),
(365,479,cs),
(315,479,o),
(270,460,o),
(241,392,c),
(219,471,l),
(96,471,l),
(96,0,l)
);
},
{
closed = 1;
nodes = (
(110,471,l),
(50,471,l),
(50,457,l),
(105,432,l)
);
}
);
width = 480;
}
);
metricLeft = n;
metricRight = x;
unicode = 114;
},
{
glyphname = s;
kernLeft = roundedLow;
lastChange = "2026-06-12 01:36:26 +0000";
layers = (
{
anchors = (
{
name = bottom;
pos = (267,0);
},
{
name = top;
pos = (267,470);
}
);
layerId = m01;
shapes = (
{
closed = 1;
nodes = (
(398,-10,o),
(469,47,o),
(469,145,cs),
(469,320,o),
(204,280,o),
(204,396,cs),
(204,434,o),
(231,454,o),
(271,454,cs),
(345,454,o),
(376,385,o),
(411,309,c),
(423,309,l),
(446,428,l),
(397,462,o),
(339,477,o),
(272,477,cs),
(156,477,o),
(77,428,o),
(77,328,cs),
(77,156,o),
(330,184,o),
(330,77,cs),
(330,36,o),
(306,16,o),
(257,16,cs),
(156,16,o),
(117,146,o),
(106,169,c),
(94,169,l),
(65,47,l),
(120,11,o),
(183,-10,o),
(256,-10,cs)
);
}
);
width = 534;
}
);
metricLeft = o;
metricRight = o;
unicode = 115;
},
{
glyphname = germandbls;
lastChange = "2026-06-12 01:28:49 +0000";
layers = (
{
anchors = (
{
name = bottom;
pos = (370,0);
},
{
name = top;
pos = (370,800);
}
);
layerId = m01;
shapes = (
{
closed = 1;
nodes = (
(596,-13,o),
(669,43,o),
(669,155,cs),
(669,308,o),
(467,322,o),
(466,393,cs),
(466,455,o),
(615,437,o),
(615,560,cs),
(615,665,o),
(527,714,o),
(351,714,cs),
(162,714,o),
(90,617,o),
(90,415,cs),
(90,0,l),
(255,0,l),
(255,551,ls),
(255,636,o),
(302,678,o),
(353,679,cs),
(416,679,o),
(447,637,o),
(447,554,cs),
(447,417,o),
(327,456,o),
(327,341,cs),
(327,230,o),
(517,197,o),
(517,98,cs),
(517,58,o),
(494,32,o),
(451,31,cs),
(395,31,o),
(364,68,o),
(358,142,c),
(309,142,l),
(309,20,l),
(349,-2,o),
(396,-13,o),
(450,-13,cs)
);
}
);
width = 729;
}
);
metricLeft = L;
metricRight = B;
unicode = 223;
},
{
glyphname = longs;
kernRight = RHFTlower;
lastChange = "2026-06-10 23:41:47 +0000";
layers = (
{
anchors = (
{
name = bottom;
pos = (218,0);
},
{
name = top;
pos = (218,920);
}
);
layerId = m01;
shapes = (
{
closed = 1;
nodes = (
(341,709,l),
(341,666,l),
(426,624,l),
(426,744,l),
(307,744,ls),
(122,744,o),
(50,647,o),
(50,445,cs),
(50,0,l),
(211,0,l),
(211,581,ls),
(211,665,o),
(257,709,o),
(332,709,cs)
);
}
);
width = 426;
}
);
metricLeft = l;
unicode = 383;
},
{
glyphname = t;
kernRight = RHFTlower;
lastChange = "2026-06-12 01:37:22 +0000";
layers = (
{
anchors = (
{
name = bottom;
pos = (255,0);
},
{
name = center;
pos = (208,316);
},
{
name = top;
pos = (238,634);
},
{
name = topright;
pos = (316,786);
}
);
layerId = m01;
shapes = (
{
closed = 1;
nodes = (
(401,433,l),
(401,465,l),
(50,465,l),
(50,433,l)
);
},
{
closed = 1;
nodes = (
(388,51,l),
(375,35,o),
(358,29,o),
(342,28,cs),
(284,28,o),
(286,80,o),
(286,184,cs),
(286,634,l),
(126,571,l),
(126,149,ls),
(126,55,o),
(172,-9,o),
(284,-9,cs),
(345,-9,o),
(382,5,o),
(404,33,c)
);
}
);
width = 454;
}
);
metricLeft = n;
unicode = 116;
},
{
glyphname = tbar;
kernRight = RHFTlower;
lastChange = "2026-06-11 00:14:12 +0000";
layers = (
{
layerId = m01;
shapes = (
{
pos = (18,0);
ref = t;
},
{
attr = {
identifier = ID0x13f504ca0;
strokeWidth = 30;
};
closed = 0;
nodes = (
(410,316,l),
(50,316,l)
);
}
);
width = 472;
}
);
metricLeft = t;
metricRight = t;
unicode = 359;
},
{
glyphname = u;
kernLeft = LHlowerangled;
kernRight = RHlowerangled;
lastChange = "2026-06-12 02:21:20 +0000";
layers = (
{
anchors = (
{
name = bottom;
pos = (331,0);
},
{
name = ogonek;
pos = (539,10);
},
{
name = top;
pos = (306,470);
},
{
name = topright;
pos = (451,412);
}
);
layerId = m01;
shapes = (
{
closed = 1;
nodes = (
(310,-8,o),
(359,19,o),
(393,71,c),
(412,0,l),
(535,0,l),
(535,470,l),
(376,470,l),
(376,98,l),
(362,70,o),
(341,55,o),
(315,55,cs),
(262,55,o),
(240,93,o),
(240,169,cs),
(240,470,l),
(80,470,l),
(80,163,ls),
(80,48,o),
(132,-8,o),
(236,-8,cs)
);
},
{
closed = 1;
nodes = (
(581,0,l),
(581,14,l),
(526,39,l),
(521,0,l)
);
}
);
width = 631;
}
);
metricLeft = "=|n";
metricRight = "=|n";
unicode = 117;
},
{
glyphname = v;
kernLeft = LHVWlow;
lastChange = "2026-06-15 00:38:13 +0000";
layers = (
{
anchors = (
{
name = bottom;
pos = (305,0);
},
{
name = top;
pos = (305,470);
}
);
layerId = m01;
shapes = (
{
closed = 1;
nodes = (
(356,0,l),
(560,471,l),
(392,471,l),
(377,404,l),
(453,391,ls),
(481,386,o),
(481,374,o),
(473,354,cs),
(379,136,l),
(238,471,l),
(50,471,l),
(259,0,l)
);
}
);
width = 610;
}
);
unicode = 118;
},
{
glyphname = w;
kernLeft = LHVWlow;
lastChange = "2026-06-12 01:45:34 +0000";
layers = (
{
anchors = (
{
name = bottom;
pos = (449,0);
},
{
name = top;
pos = (449,470);
}
);
layerId = m01;
shapes = (
{
closed = 1;
nodes = (
(644,0,l),
(848,471,l),
(683,471,l),
(668,404,l),
(744,391,ls),
(772,386,o),
(772,374,o),
(764,354,cs),
(673,144,l),
(547,471,l),
(352,471,l),
(556,0,l)
);
},
{
closed = 1;
nodes = (
(344,0,l),
(472,339,l),
(443,349,l),
(368,144,l),
(237,471,l),
(50,471,l),
(253,0,l)
);
}
);
width = 898;
}
);
metricLeft = v;
metricRight = v;
unicode = 119;
},
{
glyphname = x;
lastChange = "2026-06-15 00:36:37 +0000";
layers = (
{
anchors = (
{
name = bottom;
pos = (290,0);
},
{
name = top;
pos = (290,470);
}
);
layerId = m01;
shapes = (
{
closed = 1;
nodes = (
(539,0,l),
(239,470,l),
(43,470,l),
(343,0,l)
);
},
{
closed = 1;
nodes = (
(215,0,l),
(232,65,l),
(161,82,ls),
(147,85,o),
(148,93,o),
(158,105,cs),
(231,201,l),
(210,223,l),
(40,0,l)
);
},
{
closed = 1;
nodes = (
(529,470,l),
(355,470,l),
(342,412,l),
(413,395,ls),
(427,392,o),
(426,384,o),
(416,372,cs),
(339,271,l),
(359,249,l)
);
}
);
width = 579;
}
);
unicode = 120;
},
{
glyphname = y;
kernLeft = LHVWlow;
kernRight = RHVWlow;
lastChange = "2026-06-15 00:36:43 +0000";
layers = (
{
anchors = (
{
name = bottom;
pos = (435,-36);
},
{
name = top;
pos = (301,470);
}
);
layerId = m01;
shapes = (
{
closed = 1;
nodes = (
(284,-215,o),
(307,-195,o),
(345,-92,cs),
(552,472,l),
(392,472,l),
(377,405,l),
(453,392,ls),
(481,387,o),
(480,375,o),
(473,355,cs),
(384,110,l),
(238,472,l),
(50,472,l),
(259,1,l),
(344,1,l),
(311,-92,ls),
(285,-165,o),
(270,-187,o),
(246,-187,cs),
(221,-187,o),
(211,-149,o),
(208,-75,c),
(105,-84,l),
(93,-200,l),
(108,-205,o),
(178,-236,o),
(238,-224,cs)
);
}
);
width = 602;
}
);
metricLeft = v;
metricRight = v;
unicode = 121;
},
{
glyphname = z;
kernLeft = LHlowerangled;
lastChange = "2026-06-11 00:15:44 +0000";
layers = (
{
anchors = (
{
name = bottom;
pos = (288,0);
},
{
name = center;
pos = (288,235);
},
{
name = top;
pos = (288,470);
}
);
layerId = m01;
shapes = (
{
closed = 1;
nodes = (
(506,0,l),
(506,187,l),
(490,187,l),
(472,135,o),
(391,31,o),
(317,31,cs),
(254,31,l),
(498,439,l),
(498,472,l),
(83,472,l),
(83,293,l),
(100,293,l),
(124,387,o),
(199,443,o),
(276,441,cs),
(315,441,l),
(70,33,l),
(70,0,l)
);
}
);
width = 576;
}
);
metricLeft = "=x+30";
metricRight = "=x+30";
unicode = 122;
},
{
glyphname = saltillo;
lastChange = "2026-06-04 23:27:49 +0000";
layers = (
{
layerId = m01;
shapes = (
{
closed = 1;
nodes = (
(107,462,l),
(131,701,l),
(20,701,l),
(44,462,l)
);
}
);
width = 151;
}
);
unicode = 42892;
},
{
glyphname = istroke.dotless;
lastChange = "2026-06-11 23:36:34 +0000";
layers = (
{
anchors = (
{
name = bottom;
pos = (248,0);
},
{
name = ogonek;
pos = (334,0);
},
{
name = top;
pos = (248,470);
}
);
layerId = m01;
shapes = (
{
attr = {
identifier = ID0x103fce3b0;
strokeWidth = 60;
};
closed = 0;
nodes = (
(396,246,l),
(90,246,l)
);
},
{
closed = 1;
nodes = (
(324,0,l),
(324,483,l),
(171,467,l),
(171,0,l)
);
}
);
width = 486;
}
);
metricLeft = "=i";
metricRight = "=i";
},
{
glyphname = jstroke.dotless;
lastChange = "2026-06-12 01:29:41 +0000";
layers = (
{
anchors = (
{
name = bottom;
pos = (286,-205);
},
{
name = top;
pos = (297,470);
}
);
layerId = m01;
shapes = (
{
closed = 1;
nodes = (
(303,-228,o),
(369,-155,o),
(369,-10,c),
(369,483,l),
(216,467,l),
(216,-10,l),
(216,-154,o),
(211,-198,o),
(180,-198,c),
(144,-198,o),
(132,-154,o),
(127,-68,c),
(42,-75,l),
(30,-192,l),
(75,-216,o),
(125,-228,o),
(184,-228,c)
);
},
{
attr = {
identifier = ID0x103fcef10;
strokeWidth = 60;
};
closed = 0;
nodes = (
(444,246,l),
(138,246,l)
);
}
);
width = 484;
}
);
metricLeft = "=j+10";
metricRight = "=j-50";
},
{
glyphname = fi;
lastChange = "2026-06-11 00:16:54 +0000";
layers = (
{
anchors = (
{
name = caret_1;
pos = (312,0);
}
);
layerId = m01;
shapes = (
{
closed = 1;
nodes = (
(283,-1,l),
(284,595,ls),
(284,648,o),
(298,674,o),
(325,674,cs),
(356,674,o),
(389,620,o),
(422,514,c),
(432,514,l),
(481,654,l),
(434,684,o),
(382,699,o),
(325,699,cs),
(192,699,o),
(126,630,o),
(126,493,cs),
(126,-1,l)
);
},
{
closed = 1;
nodes = (
(418,437,l),
(418,470,l),
(50,470,l),
(50,437,l)
);
},
{
closed = 1;
nodes = (
(564,0,l),
(564,470,l),
(411,470,l),
(411,0,l)
);
}
);
width = 654;
}
);
metricLeft = f;
metricRight = i;
unicode = 64257;
},
{
glyphname = fl;
lastChange = "2026-06-11 00:16:57 +0000";
layers = (
{
anchors = (
{
name = caret_1;
pos = (364,0);
}
);
layerId = m01;
shapes = (
{
closed = 1;
nodes = (
(283,-1,l),
(284,595,ls),
(284,648,o),
(298,674,o),
(325,674,cs),
(356,674,o),
(389,620,o),
(422,514,c),
(432,514,l),
(481,654,l),
(434,684,o),
(382,699,o),
(325,699,cs),
(192,699,o),
(126,630,o),
(126,493,cs),
(126,-1,l)
);
},
{
closed = 1;
nodes = (
(418,437,l),
(418,470,l),
(50,470,l),
(50,437,l)
);
},
{
closed = 1;
nodes = (
(668,0,l),
(668,713,l),
(461,697,l),
(461,684,l),
(505,667,l),
(505,0,l)
);
}
);
width = 758;
}
);
metricLeft = f;
metricRight = l;
unicode = 64258;
},
{
glyphname = "Be-cy";
kernRight = RHroundedUpper;
lastChange = "2026-06-10 23:03:19 +0000";
layers = (
{
layerId = m01;
shapes = (
{
closed = 1;
nodes = (
(429,0,ls),
(573,0,o),
(669,68,o),
(669,204,cs),
(669,348,o),
(573,420,o),
(429,420,cs),
(307,420,l),
(307,670,l),
(513,670,l),
(513,562,l),
(618,520,l),
(618,699,l),
(307,700,l),
(90,700,l),
(90,685,l),
(132,669,l),
(132,0,l)
);
},
{
closed = 1;
nodes = (
(307,390,l),
(352,389,ls),
(432,387,o),
(501,328,o),
(501,204,cs),
(501,89,o),
(432,32,o),
(352,30,cs),
(307,29,l)
);
}
);
width = 709;
}
);
metricLeft = B;
unicode = 1041;
},
{
glyphname = "Ge-cy";
kernRight = RHTuppers;
lastChange = "2026-06-10 23:05:13 +0000";
layers = (
{
anchors = (
{
name = bottom;
pos = (315,0);
},
{
name = bottomright;
pos = (581,0);
},
{
name = top;
pos = (315,700);
}
);
layerId = m01;
shapes = (
{
closed = 1;
nodes = (
(308,0,l),
(308,670,l),
(456,670,l),
(456,562,l),
(561,520,l),
(561,699,l),
(90,700,l),
(90,685,l),
(132,669,l),
(132,0,l)
);
}
);
width = 611;
}
);
metricLeft = B;
metricRight = T;
unicode = 1043;
},
{
glyphname = "Geupturn-cy";
kernRight = RHTuppers;
lastChange = "2026-06-12 02:15:32 +0000";
layers = (
{
layerId = m01;
shapes = (
{
closed = 1;
nodes = (
(307,0,l),
(307,670,l),
(540,671,l),
(540,830,l),
(435,788,l),
(435,700,l),
(90,700,l),
(90,685,l),
(131,669,l),
(131,0,l)
);
}
);
width = 590;
}
);
metricLeft = B;
metricRight = T;
unicode = 1168;
},
{
glyphname = "De-cy";
lastChange = "2026-06-12 02:15:53 +0000";
layers = (
{
anchors = (
{
name = bottom;
pos = (377,0);
},
{
name = top;
pos = (377,700);
}
);
layerId = m01;
shapes = (
{
closed = 1;
nodes = (
(608,0,l),
(608,-108,l),
(713,-150,l),
(713,29,l),
(586,29,l),
(586,670,l),
(700,670,l),
(700,700,l),
(84,700,l),
(84,670,l),
(410,670,l),
(410,29,l),
(40,29,l),
(40,-150,l),
(145,-108,l),
(145,0,l)
);
},
{
attr = {
strokeWidth = 30;
};
closed = 0;
nodes = (
(251,690,l),
(221,204,ls),
(217,134,o),
(160,39,o),
(142,8,c)
);
}
);
width = 753;
}
);
metricLeft = X;
metricRight = X;
unicode = 1044;
},
{
glyphname = "Zhe-cy";
kernLeft = LHAuppers;
kernRight = Auppers;
lastChange = "2026-06-10 23:00:37 +0000";
layers = (
{
anchors = (
{
name = bottom;
pos = (523,0);
},
{
name = bottomright;
pos = (1026,0);
},
{
name = top;
pos = (523,700);
}
);
layerId = m01;
shapes = (
{
closed = 1;
nodes = (
(1006,0,l),
(759,489,l),
(670,361,l),
(834,0,l)
);
},
{
closed = 1;
nodes = (
(212,0,l),
(376,361,l),
(287,489,l),
(40,0,l)
);
},
{
closed = 1;
nodes = (
(465,291,l),
(251,573,ls),
(241,586,o),
(243,593,o),
(256,597,cs),
(342,621,l),
(327,700,l),
(109,700,l),
(114,699,o),
(452,253,o),
(452,253,c)
);
},
{
closed = 1;
nodes = (
(611,0,l),
(611,700,l),
(437,700,l),
(437,0,l)
);
},
{
closed = 1;
nodes = (
(596,253,o),
(934,699,o),
(939,700,c),
(721,700,l),
(706,621,l),
(792,597,ls),
(805,593,o),
(807,586,o),
(797,573,cs),
(583,291,l),
(596,253,l)
);
}
);
width = 1046;
}
);
metricLeft = X;
metricRight = X;
unicode = 1046;
},
{
glyphname = "Ze-cy";
kernLeft = roundedUppers;
kernRight = RHroundedUpper;
lastChange = "2026-06-10 23:06:10 +0000";
layers = (
{
anchors = (
{
name = bottom;
pos = (361,0);
},
{
name = top;
pos = (361,700);
}
);
layerId = m01;
shapes = (
{
closed = 1;
nodes = (
(558,-9,o),
(652,59,o),
(652,196,c),
(652,286,o),
(594,345,o),
(476,371,c),
(574,393,o),
(624,447,o),
(624,531,c),
(624,648,o),
(524,707,o),
(344,707,c),
(200,707,o),
(90,638,o),
(90,500,c),
(239,475,l),
(235,610,o),
(282,677,o),
(342,678,c),
(413,678,o),
(438,630,o),
(438,533,c),
(438,432,o),
(402,381,o),
(309,381,c),
(268,381,l),
(268,351,l),
(309,351,l),
(420,351,o),
(458,296,o),
(458,179,c),
(458,76,o),
(429,25,o),
(350,25,c),
(282,27,o),
(233,98,o),
(243,238,c),
(70,216,l),
(70,66,o),
(164,-9,o),
(351,-9,c)
);
}
);
width = 722;
}
);
metricLeft = O;
metricRight = O;
unicode = 1047;
},
{
glyphname = "Ii-cy";
lastChange = "2026-06-10 23:04:04 +0000";
layers = (
{
anchors = (
{
name = bottomright;
pos = (762,0);
},
{
name = top;
pos = (416,700);
}
);
layerId = m01;
shapes = (
{
closed = 1;
nodes = (
(289,0,l),
(570,700,l),
(538,700,l),
(257,0,l)
);
},
{
closed = 1;
nodes = (
(285,0,l),
(306,69,l),
(132,69,l),
(132,31,l),
(90,15,l),
(90,0,l)
);
},
{
closed = 1;
nodes = (
(289,0,l),
(307,46,l),
(307,700,l),
(131,700,l),
(131,0,l)
);
},
{
closed = 1;
nodes = (
(700,0,l),
(700,700,l),
(540,700,l),
(524,665,l),
(524,0,l)
);
},
{
closed = 1;
nodes = (
(700,631,l),
(700,669,l),
(742,685,l),
(742,700,l),
(547,700,l),
(526,631,l)
);
}
);
width = 832;
}
);
metricLeft = "Be-cy";
metricRight = "=H-20";
unicode = 1048;
},
{
glyphname = "Iishort-cy";
lastChange = "2026-06-10 23:00:57 +0000";
layers = (
{
layerId = m01;
shapes = (
{
closed = 1;
nodes = (
(289,0,l),
(570,700,l),
(538,700,l),
(257,0,l)
);
},
{
closed = 1;
nodes = (
(285,0,l),
(296,69,l),
(132,69,l),
(132,31,l),
(90,15,l),
(90,0,l)
);
},
{
closed = 1;
nodes = (
(289,0,l),
(307,46,l),
(307,700,l),
(131,700,l),
(131,0,l)
);
},
{
closed = 1;
nodes = (
(742,0,l),
(742,15,l),
(700,31,l),
(700,69,l),
(536,69,l),
(547,0,l)
);
},
{
closed = 1;
nodes = (
(296,631,l),
(285,700,l),
(90,700,l),
(90,685,l),
(132,669,l),
(132,631,l)
);
},
{
closed = 1;
nodes = (
(700,0,l),
(700,700,l),
(540,700,l),
(524,665,l),
(524,0,l)
);
},
{
pos = (262,151);
ref = "brevecomb-cy";
},
{
closed = 1;
nodes = (
(700,631,l),
(700,669,l),
(742,685,l),
(742,700,l),
(547,700,l),
(526,631,l)
);
}
);
width = 832;
}
);
metricLeft = "=H-20";
metricRight = "=H-20";
unicode = 1049;
},
{
glyphname = "Ka-cy";
lastChange = "2026-06-10 23:01:08 +0000";
layers = (
{
anchors = (
{
name = bottom;
pos = (424,0);
},
{
name = bottomright;
pos = (778,0);
},
{
name = top;
pos = (424,700);
}
);
layerId = m01;
shapes = (
{
closed = 1;
nodes = (
(314,0,l),
(314,700,l),
(90,700,l),
(90,685,l),
(134,668,l),
(134,0,l)
);
},
{
closed = 1;
nodes = (
(748,0,l),
(743,1,o),
(417,434,o),
(417,434,c),
(328,347,l),
(505,117,ls),
(515,104,o),
(513,95,o),
(500,93,cs),
(414,79,l),
(429,0,l)
);
},
{
closed = 1;
nodes = (
(706,701,l),
(436,701,l),
(422,624,l),
(550,602,ls),
(556,601,o),
(558,591,o),
(552,585,cs),
(307,335,l),
(307,288,l)
);
}
);
width = 788;
}
);
metricLeft = K;
metricRight = K;
unicode = 1050;
},
{
glyphname = "El-cy";
kernLeft = LHAuppers;
lastChange = "2026-06-11 00:31:44 +0000";
layers = (
{
anchors = (
{
name = bottom;
pos = (339,0);
}
);
layerId = m01;
shapes = (
{
closed = 1;
nodes = (
(179,0,l),
(229,670,l),
(420,670,l),
(420,0,l),
(638,0,l),
(638,15,l),
(596,31,l),
(596,700,l),
(203,700,l),
(161,137,ls),
(159,114,o),
(155,106,o),
(136,101,cs),
(41,78,l),
(30,0,l)
);
}
);
width = 728;
}
);
metricLeft = "=X-10";
metricRight = "=H-20";
unicode = 1051;
},
{
glyphname = "Em-cy";
lastChange = "2026-06-12 00:22:11 +0000";
layers = (
{
layerId = m01;
shapes = (
{
closed = 1;
nodes = (
(684,578,l),
(684,0,l),
(855,0,l),
(853,700,l),
(690,700,l),
(524,242,l),
(282,700,l),
(90,700,l),
(90,685,l),
(132,669,l),
(132,0,l),
(291,0,l),
(280,68,l),
(185,91,ls),
(166,96,o),
(160,104,o),
(160,127,cs),
(160,561,l),
(465,-12,l)
);
}
);
width = 965;
}
);
metricLeft = M;
metricRight = M;
unicode = 1052;
},
{
glyphname = "En-cy";
lastChange = "2026-06-10 21:48:51 +0000";
layers = (
{
anchors = (
{
name = bottomright;
pos = (725,0);
}
);
layerId = m01;
shapes = (
{
closed = 1;
nodes = (
(695,0,l),
(695,700,l),
(530,700,l),
(530,0,l)
);
},
{
closed = 1;
nodes = (
(275,0,l),
(275,700,l),
(110,700,l),
(110,0,l)
);
},
{
closed = 1;
nodes = (
(546,299,l),
(452,416,l),
(254,416,l),
(348,299,l)
);
}
);
width = 805;
}
);
metricLeft = H;
metricRight = H;
unicode = 1053;
},
{
glyphname = "Pe-cy";
lastChange = "2026-06-10 23:04:19 +0000";
layers = (
{
anchors = (
{
name = bottomright;
pos = (799,0);
}
);
layerId = m01;
shapes = (
{
closed = 1;
nodes = (
(779,0,l),
(779,15,l),
(737,31,l),
(737,700,l),
(132,700,l),
(132,31,l),
(90,15,l),
(90,0,l),
(308,0,l),
(308,670,l),
(561,670,l),
(561,0,l)
);
}
);
width = 869;
}
);
metricLeft = B;
metricRight = "=H-20";
unicode = 1055;
},
{
glyphname = "U-cy";
kernLeft = LHVWuppers;
lastChange = "2026-06-10 23:09:46 +0000";
layers = (
{
anchors = (
{
name = top;
pos = (326,700);
}
);
layerId = m01;
shapes = (
{
closed = 1;
nodes = (
(309,3,o),
(328,26,o),
(370,126,cs),
(611,700,l),
(451,700,l),
(436,633,l),
(512,620,ls),
(540,615,o),
(541,603,o),
(532,583,cs),
(420,317,l),
(228,700,l),
(40,700,l),
(284,219,l),
(378,219,l),
(339,126,ls),
(308,53,o),
(295,31,o),
(271,31,cs),
(246,31,o),
(236,69,o),
(233,143,c),
(130,134,l),
(118,18,l),
(133,13,o),
(203,-18,o),
(263,-6,cs)
);
}
);
width = 651;
}
);
metricLeft = Y;
metricRight = Y;
unicode = 1059;
},
{
glyphname = "Ef-cy";
kernLeft = roundedUppers;
kernRight = RHroundedUpper;
lastChange = "2026-06-12 02:16:05 +0000";
layers = (
{
layerId = m01;
shapes = (
{
closed = 1;
nodes = (
(574,0,l),
(574,15,l),
(542,31,l),
(542,104,l),
(743,111,o),
(842,192,o),
(842,351,cs),
(842,501,o),
(743,581,o),
(542,588,c),
(542,669,l),
(574,685,l),
(574,700,l),
(339,700,l),
(339,685,l),
(370,670,l),
(370,588,l),
(169,581,o),
(70,501,o),
(70,351,cs),
(70,192,o),
(169,111,o),
(370,104,c),
(370,31,l),
(339,15,l),
(339,0,l)
);
},
{
closed = 1;
nodes = (
(216,485,o),
(280,554,o),
(370,567,c),
(370,124,l),
(279,137,o),
(214,217,o),
(216,359,cs)
);
},
{
closed = 1;
nodes = (
(542,567,l),
(632,554,o),
(696,485,o),
(696,359,cs),
(698,217,o),
(633,137,o),
(542,124,c)
);
}
);
width = 912;
}
);
metricLeft = O;
metricRight = O;
unicode = 1060;
},
{
glyphname = "Tse-cy";
lastChange = "2026-06-10 23:10:39 +0000";
layers = (
{
layerId = m01;
shapes = (
{
closed = 1;
nodes = (
(696,0,l),
(696,700,l),
(520,700,l),
(520,0,l)
);
},
{
closed = 1;
nodes = (
(625,0,l),
(625,30,l),
(187,30,l),
(187,0,l)
);
},
{
closed = 1;
nodes = (
(308,0,l),
(308,700,l),
(132,700,l),
(132,0,l)
);
},
{
closed = 1;
nodes = (
(306,631,l),
(306,700,l),
(90,700,l),
(90,685,l),
(132,669,l),
(132,631,l)
);
},
{
closed = 1;
nodes = (
(820,-118,l),
(810,-50,l),
(718,-29,ls),
(702,-26,o),
(697,-18,o),
(697,2,cs),
(696,494,l),
(618,494,l),
(619,-118,l)
);
},
{
closed = 1;
nodes = (
(696,631,l),
(696,669,l),
(739,685,l),
(739,700,l),
(522,700,l),
(522,631,l)
);
}
);
width = 840;
}
);
metricLeft = B;
metricRight = "=A-20";
unicode = 1062;
},
{
glyphname = "Che-cy";
lastChange = "2026-06-04 05:21:10 +0000";
layers = (
{
anchors = (
{
name = bottomright;
pos = (593,0);
},
{
name = top;
pos = (307,700);
}
);
layerId = m01;
shapes = (
{
closed = 1;
nodes = (
(340,222,o),
(387,252,o),
(422,308,c),
(404,337,l),
(390,303,o),
(349,285,o),
(299,285,cs),
(252,285,o),
(196,323,o),
(196,399,cs),
(196,700,l),
(40,700,l),
(40,376,ls),
(40,266,o),
(129,222,o),
(239,222,cs)
);
},
{
closed = 1;
nodes = (
(563,0,l),
(563,700,l),
(400,700,l),
(400,0,l)
);
}
);
width = 613;
}
);
unicode = 1063;
},
{
glyphname = "Sha-cy";
lastChange = "2026-06-10 23:04:31 +0000";
layers = (
{
anchors = (
{
name = bottom;
pos = (530,0);
},
{
name = top;
pos = (530,700);
}
);
layerId = m01;
shapes = (
{
closed = 1;
nodes = (
(946,0,l),
(946,669,l),
(969,685,l),
(969,700,l),
(780,700,l),
(780,30,l),
(622,30,l),
(622,700,l),
(456,700,l),
(456,30,l),
(298,30,l),
(298,700,l),
(90,700,l),
(90,685,l),
(132,669,l),
(132,0,l)
);
}
);
width = 1059;
}
);
metricLeft = B;
metricRight = "Pe-cy";
unicode = 1064;
},
{
glyphname = "Shcha-cy";
kernRight = "Shcha-cy";
lastChange = "2026-06-12 02:17:53 +0000";
layers = (
{
layerId = m01;
shapes = (
{
closed = 1;
nodes = (
(869,0,l),
(869,-118,l),
(1070,-118,l),
(1060,-50,l),
(968,-29,ls),
(952,-26,o),
(947,-18,o),
(947,2,cs),
(946,669,l),
(989,685,l),
(989,700,l),
(780,700,l),
(780,30,l),
(622,30,l),
(622,700,l),
(456,700,l),
(456,30,l),
(298,30,l),
(298,700,l),
(90,700,l),
(90,685,l),
(132,669,l),
(132,0,l)
);
}
);
width = 1090;
}
);
metricLeft = B;
metricRight = "=A-20";
unicode = 1065;
},
{
glyphname = "Softsign-cy";
lastChange = "2026-06-10 23:04:43 +0000";
layers = (
{
anchors = (
{
name = top;
pos = (330,700);
}
);
layerId = m01;
shapes = (
{
closed = 1;
nodes = (
(379,0,ls),
(523,0,o),
(619,68,o),
(619,184,cs),
(619,308,o),
(523,380,o),
(379,380,cs),
(207,380,l),
(207,351,l),
(302,349,ls),
(382,347,o),
(431,288,o),
(431,184,cs),
(431,89,o),
(382,32,o),
(302,30,cs),
(207,28,l),
(207,0,l)
);
},
{
closed = 1;
nodes = (
(256,0,l),
(256,69,l),
(92,69,l),
(92,28,l),
(50,12,l),
(50,0,l)
);
},
{
closed = 1;
nodes = (
(257,0,l),
(257,700,l),
(92,700,l),
(92,0,l)
);
}
);
width = 659;
}
);
metricLeft = BH;
unicode = 1068;
},
{
glyphname = "Yeru-cy";
lastChange = "2026-06-10 23:06:43 +0000";
layers = (
{
layerId = m01;
shapes = (
{
closed = 1;
nodes = (
(419,0,ls),
(563,0,o),
(659,68,o),
(659,184,cs),
(659,308,o),
(563,380,o),
(419,380,cs),
(247,380,l),
(247,351,l),
(342,349,ls),
(422,347,o),
(471,288,o),
(471,184,cs),
(471,89,o),
(422,32,o),
(342,30,cs),
(247,28,l),
(247,0,l)
);
},
{
closed = 1;
nodes = (
(296,0,l),
(296,69,l),
(132,69,l),
(132,28,l),
(90,12,l),
(90,0,l)
);
},
{
closed = 1;
nodes = (
(297,0,l),
(297,700,l),
(132,700,l),
(132,0,l)
);
},
{
alignment = -1;
pos = (625,0);
ref = l;
}
);
width = 977;
}
);
metricLeft = B;
metricRight = H;
unicode = 1067;
},
{
glyphname = "Hardsign-cy";
lastChange = "2026-06-10 23:33:28 +0000";
layers = (
{
anchors = (
{
name = top;
pos = (393,700);
}
);
layerId = m01;
shapes = (
{
closed = 1;
nodes = (
(485,0,ls),
(629,0,o),
(725,68,o),
(725,184,cs),
(725,308,o),
(629,380,o),
(485,380,cs),
(313,380,l),
(313,351,l),
(408,349,ls),
(488,347,o),
(537,288,o),
(537,184,cs),
(537,89,o),
(488,32,o),
(408,30,cs),
(313,28,l),
(313,0,l)
);
},
{
closed = 1;
nodes = (
(362,0,l),
(362,69,l),
(198,69,l),
(198,28,l),
(156,12,l),
(156,0,l)
);
},
{
closed = 1;
nodes = (
(363,0,l),
(363,700,l),
(198,700,l),
(198,0,l)
);
},
{
closed = 1;
nodes = (
(50,700,l),
(50,580,l),
(125,622,l),
(125,670,l),
(343,670,l),
(343,700,l)
);
}
);
width = 785;
}
);
metricLeft = T;
metricRight = B;
unicode = 1066;
},
{
glyphname = "E-cy";
kernLeft = roundedUppers;
kernRight = RHroundedUpper;
lastChange = "2026-06-10 22:58:05 +0000";
layers = (
{
anchors = (
{
name = top;
pos = (373,700);
}
);
layerId = m01;
shapes = (
{
closed = 1;
nodes = (
(487,-12,o),
(567,16,o),
(632,73,c),
(632,191,l),
(500,191,l),
(493,77,o),
(457,19,o),
(394,19,c),
(302,20,o),
(258,136,o),
(260,367,c),
(262,587,o),
(306,696,o),
(394,696,c),
(457,696,o),
(493,640,o),
(500,526,c),
(629,526,l),
(629,641,l),
(576,700,o),
(497,728,o),
(394,729,c),
(219,729,o),
(77,609,o),
(70,367,c),
(70,138,o),
(178,-5,o),
(394,-11,c)
);
},
{
closed = 1;
nodes = (
(479,250,l),
(479,471,l),
(464,471,l),
(463,409,o),
(423,377,o),
(248,376,c),
(248,354,l),
(424,353,o),
(465,316,o),
(465,250,c)
);
}
);
width = 702;
}
);
metricLeft = O;
metricRight = O;
unicode = 1028;
},
{
glyphname = "I-cy";
lastChange = "2026-06-10 21:48:51 +0000";
layers = (
{
anchors = (
{
name = top;
pos = (198,700);
}
);
layerId = m01;
shapes = (
{
closed = 1;
nodes = (
(286,0,l),
(286,700,l),
(110,700,l),
(110,0,l)
);
}
);
width = 396;
}
);
metricLeft = H;
metricRight = H;
unicode = 1030;
},
{
glyphname = "Yi-cy";
lastChange = "2026-06-13 08:22:12 +0000";
layers = (
{
layerId = m01;
shapes = (
{
closed = 1;
nodes = (
(343,0,l),
(343,700,l),
(167,700,l),
(167,0,l)
);
},
{
pos = (90,196);
ref = dieresiscomb;
}
);
width = 530;
}
);
metricLeft = H;
metricRight = H;
unicode = 1031;
},
{
glyphname = "Yu-cy";
lastChange = "2026-06-10 22:57:29 +0000";
layers = (
{
anchors = (
{
name = top;
pos = (542,700);
}
);
layerId = m01;
shapes = (
{
closed = 1;
nodes = (
(898,-11,o),
(983,150,o),
(983,349,cs),
(983,548,o),
(898,710,o),
(681,710,cs),
(461,710,o),
(376,548,o),
(376,349,cs),
(376,150,o),
(461,-11,o),
(681,-11,cs)
);
},
{
closed = 1;
nodes = (
(286,0,l),
(286,700,l),
(110,700,l),
(110,0,l)
);
},
{
closed = 1;
nodes = (
(406,334,l),
(406,364,l),
(248,364,l),
(248,334,l)
);
},
{
closed = 1;
nodes = (
(593,19,o),
(550,164,o),
(550,346,cs),
(550,527,o),
(593,680,o),
(680,680,cs),
(766,680,o),
(809,527,o),
(809,346,cs),
(809,164,o),
(766,19,o),
(680,19,cs)
);
}
);
width = 1053;
}
);
metricLeft = H;
metricRight = O;
unicode = 1070;
},
{
glyphname = "Ya-cy";
lastChange = "2026-06-10 23:33:28 +0000";
layers = (
{
anchors = (
{
name = top;
pos = (335,700);
}
);
layerId = m01;
shapes = (
{
closed = 1;
nodes = (
(602,0,l),
(604,700,l),
(327,700,l),
(143,700,o),
(85,596,o),
(85,509,c),
(85,332,o),
(272,293,o),
(433,304,c),
(434,0,l)
);
},
{
closed = 1;
nodes = (
(338,0,l),
(353,79,l),
(260,103,ls),
(247,106,o),
(248,116,o),
(255,127,cs),
(374,308,l),
(291,358,l),
(291,358,o),
(55,1,o),
(50,0,c)
);
},
{
closed = 1;
nodes = (
(356,352,o),
(249,359,o),
(249,512,c),
(249,650,o),
(326,671,o),
(433,671,c),
(432,352,l)
);
}
);
width = 714;
}
);
metricLeft = "=|R";
metricRight = H;
unicode = 1071;
},
{
glyphname = "a-cy";
kernLeft = roundedLow;
kernRight = RHlowerangled;
lastChange = "2026-06-15 00:40:25 +0000";
layers = (
{
anchors = (
{
name = bottom;
pos = (299,0);
},
{
name = ogonek;
pos = (521,10);
},
{
name = top;
pos = (294,474);
}
);
layerId = m01;
shapes = (
{
closed = 1;
nodes = (
(250,-9,o),
(295,14,o),
(331,60,c),
(334,46,o),
(361,-7,o),
(428,-7,cs),
(498,-7,o),
(529,29,o),
(537,52,c),
(525,64,l),
(499,41,o),
(474,49,o),
(474,129,cs),
(474,282,ls),
(474,419,o),
(407,478,o),
(273,478,cs),
(201,478,o),
(155,460,o),
(90,426,c),
(139,315,l),
(147,315,l),
(180,388,o),
(195,457,o),
(261,457,cs),
(308,457,o),
(327,410,o),
(323,306,c),
(155,274,o),
(60,220,o),
(60,128,cs),
(60,31,o),
(125,-9,o),
(198,-9,cs)
);
},
{
closed = 1;
nodes = (
(222,53,o),
(191,80,o),
(191,151,cs),
(191,220,o),
(279,253,o),
(323,273,c),
(323,86,ls),
(323,76,o),
(295,53,o),
(267,53,cs)
);
}
);
width = 587;
}
);
metricLeft = a;
metricRight = a;
unicode = 1072;
},
{
glyphname = "be-cy";
kernLeft = roundedUpp;
kernRight = RHroundedUpper;
lastChange = "2026-06-11 23:47:58 +0000";
layers = (
{
layerId = m01;
shapes = (
{
closed = 1;
nodes = (
(471,-9,o),
(585,71,o),
(585,233,c),
(585,371,o),
(500,461,o),
(332,462,c),
(227,462,o),
(153,411,o),
(112,311,c),
(118,469,o),
(187,568,o),
(321,568,c),
(437,568,l),
(487,568,o),
(539,584,o),
(541,670,c),
(544,734,l),
(520,734,l),
(520,706,o),
(518,691,o),
(456,690,c),
(364,690,l),
(168,690,o),
(65,543,o),
(65,302,c),
(65,109,o),
(173,-5,o),
(330,-9,c)
);
},
{
closed = 1;
nodes = (
(280,24,o),
(233,105,o),
(230,245,c),
(231,379,o),
(284,438,o),
(331,439,c),
(384,439,o),
(431,379,o),
(430,245,c),
(430,105,o),
(383,24,o),
(331,24,c)
);
}
);
width = 650;
}
);
metricLeft = o;
metricRight = o;
unicode = 1073;
},
{
glyphname = "ve-cy";
kernLeft = LHlowerangled;
kernRight = RHroundedlow;
lastChange = "2026-06-10 21:52:22 +0000";
layers = (
{
anchors = (
{
name = top;
pos = (297,470);
}
);
layerId = m01;
shapes = (
{
closed = 1;
nodes = (
(354,0,ls),
(463,0,o),
(543,41,o),
(543,125,cs),
(543,218,o),
(454,254,o),
(374,255,cs),
(233,255,l),
(233,232,l),
(303,231,ls),
(368,230,o),
(408,195,o),
(408,125,cs),
(408,64,o),
(361,23,o),
(306,21,cs),
(252,21,l),
(252,0,l)
);
},
{
closed = 1;
nodes = (
(257,0,l),
(257,470,l),
(92,470,l),
(92,0,l)
);
},
{
closed = 1;
nodes = (
(256,401,l),
(256,470,l),
(50,470,l),
(50,455,l),
(92,439,l),
(92,401,l)
);
},
{
closed = 1;
nodes = (
(355,239,ls),
(444,243,o),
(518,280,o),
(518,361,cs),
(518,434,o),
(433,470,o),
(333,470,cs),
(233,470,l),
(233,449,l),
(301,449,ls),
(347,448,o),
(389,408,o),
(389,361,cs),
(389,295,o),
(347,258,o),
(301,257,cs),
(233,255,l),
(233,235,l)
);
}
);
width = 583;
}
);
metricLeft = n;
unicode = 1074;
},
{
glyphname = "ge-cy";
kernLeft = LHlowerangled;
lastChange = "2026-06-14 20:40:34 +0000";
layers = (
{
anchors = (
{
name = bottom;
pos = (261,0);
},
{
name = bottomright;
pos = (501,0);
},
{
name = top;
pos = (261,470);
}
);
layerId = m01;
shapes = (
{
closed = 1;
nodes = (
(258,0,l),
(258,470,l),
(92,470,l),
(92,0,l)
);
},
{
closed = 1;
nodes = (
(256,401,l),
(256,470,l),
(50,470,l),
(50,455,l),
(92,439,l),
(92,401,l)
);
},
{
closed = 1;
nodes = (
(481,469,l),
(168,470,l),
(168,440,l),
(376,440,l),
(376,402,l),
(481,360,l)
);
}
);
width = 521;
}
);
metricLeft = n;
metricRight = r;
unicode = 1075;
},
{
glyphname = "geupturn-cy";
kernLeft = LHlowerangled;
lastChange = "2026-06-14 20:40:34 +0000";
layers = (
{
layerId = m01;
shapes = (
{
closed = 1;
nodes = (
(257,0,l),
(257,470,l),
(91,470,l),
(91,0,l)
);
},
{
closed = 1;
nodes = (
(256,401,l),
(256,470,l),
(50,470,l),
(50,455,l),
(92,439,l),
(92,401,l)
);
},
{
closed = 1;
nodes = (
(480,441,l),
(480,560,l),
(375,518,l),
(375,470,l),
(187,470,l),
(187,440,l)
);
}
);
width = 520;
}
);
metricLeft = n;
metricRight = r;
unicode = 1169;
},
{
glyphname = "de-cy";
lastChange = "2026-06-11 00:24:41 +0000";
layers = (
{
anchors = (
{
name = bottom;
pos = (352,0);
},
{
name = top;
pos = (352,470);
}
);
layerId = m01;
shapes = (
{
closed = 1;
nodes = (
(135,-88,l),
(135,0,l),
(568,0,l),
(568,-88,l),
(663,-130,l),
(663,29,l),
(40,29,l),
(40,-130,l)
);
},
{
attr = {
strokeWidth = 30;
};
closed = 0;
nodes = (
(241,460,l),
(213,219,ls),
(199,100,o),
(150,39,o),
(132,8,c)
);
},
{
closed = 1;
nodes = (
(546,0,l),
(546,470,l),
(380,470,l),
(380,0,l)
);
},
{
closed = 1;
nodes = (
(660,440,l),
(660,470,l),
(74,470,l),
(74,440,l)
);
}
);
width = 713;
}
);
metricLeft = x;
metricRight = "=|n";
unicode = 1076;
},
{
glyphname = "zhe-cy";
kernLeft = LHlowerangled;
lastChange = "2026-06-12 02:20:00 +0000";
layers = (
{
anchors = (
{
name = bottom;
pos = (418,0);
},
{
name = bottomright;
pos = (816,0);
},
{
name = top;
pos = (418,470);
}
);
layerId = m01;
shapes = (
{
closed = 1;
nodes = (
(452,141,o),
(687,387,o),
(770,471,c),
(585,471,l),
(575,419,l),
(638,402,ls),
(651,398,o),
(655,391,o),
(643,378,cs),
(449,182,l),
(452,141,l)
);
},
{
closed = 1;
nodes = (
(182,0,l),
(330,220,l),
(257,305,l),
(40,0,l)
);
},
{
closed = 1;
nodes = (
(387,182,l),
(193,378,ls),
(181,391,o),
(185,398,o),
(198,402,cs),
(261,419,l),
(251,471,l),
(66,471,l),
(149,387,o),
(384,141,o),
(384,141,c)
);
},
{
closed = 1;
nodes = (
(492,0,l),
(492,471,l),
(344,471,l),
(344,0,l)
);
},
{
closed = 1;
nodes = (
(796,0,l),
(579,303,l),
(506,218,l),
(654,0,l)
);
}
);
width = 836;
}
);
metricLeft = x;
metricRight = x;
unicode = 1078;
},
{
glyphname = "ze-cy";
kernLeft = roundedLow;
kernRight = RHroundedlow;
lastChange = "2026-06-12 02:16:51 +0000";
layers = (
{
anchors = (
{
name = bottom;
pos = (276,0);
},
{
name = top;
pos = (276,477);
}
);
layerId = m01;
shapes = (
{
closed = 1;
nodes = (
(402,-9,o),
(486,32,o),
(486,129,c),
(486,202,o),
(435,231,o),
(352,249,c),
(421,265,o),
(466,286,o),
(466,355,c),
(466,448,o),
(375,479,o),
(258,479,c),
(177,479,o),
(79,431,o),
(79,333,c),
(194,316,l),
(191,411,o),
(215,458,o),
(257,459,c),
(307,459,o),
(325,425,o),
(325,357,c),
(325,288,o),
(299,258,o),
(234,258,c),
(205,258,l),
(205,233,l),
(234,233,l),
(312,233,o),
(339,196,o),
(339,117,c),
(339,54,o),
(318,15,o),
(263,15,c),
(215,16,o),
(190,67,o),
(197,155,c),
(65,140,l),
(65,44,o),
(138,-9,o),
(263,-9,c)
);
}
);
width = 551;
}
);
metricLeft = o;
metricRight = o;
unicode = 1079;
},
{
glyphname = "ii-cy";
lastChange = "2026-06-11 00:18:12 +0000";
layers = (
{
anchors = (
{
name = bottomright;
pos = (662,0);
},
{
name = top;
pos = (341,470);
}
);
layerId = m01;
shapes = (
{
closed = 1;
nodes = (
(239,0,l),
(470,470,l),
(438,470,l),
(207,0,l)
);
},
{
closed = 1;
nodes = (
(235,0,l),
(256,69,l),
(92,69,l),
(92,31,l),
(50,15,l),
(50,0,l)
);
},
{
closed = 1;
nodes = (
(239,0,l),
(257,46,l),
(257,471,l),
(91,471,l),
(91,0,l)
);
},
{
closed = 1;
nodes = (
(590,0,l),
(590,470,l),
(440,470,l),
(424,435,l),
(424,0,l)
);
},
{
closed = 1;
nodes = (
(590,401,l),
(590,439,l),
(632,455,l),
(632,470,l),
(447,470,l),
(426,401,l)
);
}
);
width = 672;
}
);
metricLeft = n;
unicode = 1080;
},
{
glyphname = "iishort-cy";
lastChange = "2026-06-11 00:18:17 +0000";
layers = (
{
layerId = m01;
shapes = (
{
closed = 1;
nodes = (
(239,0,l),
(470,470,l),
(438,470,l),
(207,0,l)
);
},
{
closed = 1;
nodes = (
(235,0,l),
(256,69,l),
(92,69,l),
(92,31,l),
(50,15,l),
(50,0,l)
);
},
{
closed = 1;
nodes = (
(239,0,l),
(257,46,l),
(257,470,l),
(91,470,l),
(91,0,l)
);
},
{
closed = 1;
nodes = (
(632,0,l),
(632,15,l),
(590,31,l),
(590,69,l),
(436,69,l),
(447,0,l)
);
},
{
closed = 1;
nodes = (
(246,401,l),
(235,470,l),
(50,470,l),
(50,455,l),
(92,439,l),
(92,401,l)
);
},
{
closed = 1;
nodes = (
(590,0,l),
(590,470,l),
(440,470,l),
(424,435,l),
(424,0,l)
);
},
{
pos = (190,-38);
ref = "brevecomb-cy";
},
{
closed = 1;
nodes = (
(590,401,l),
(590,439,l),
(632,455,l),
(632,470,l),
(447,470,l),
(426,401,l)
);
}
);
width = 682;
}
);
metricLeft = n;
unicode = 1081;
},
{
glyphname = "ka-cy";
lastChange = "2026-06-11 00:18:45 +0000";
layers = (
{
anchors = (
{
name = bottom;
pos = (319,0);
},
{
name = bottomright;
pos = (618,0);
},
{
name = top;
pos = (319,470);
}
);
layerId = m01;
shapes = (
{
closed = 1;
nodes = (
(252,0,l),
(252,470,l),
(50,470,l),
(50,455,l),
(94,438,l),
(94,0,l)
);
},
{
closed = 1;
nodes = (
(588,-1,l),
(583,0,o),
(353,316,o),
(353,316,cs),
(300,265,l),
(409,118,ls),
(419,105,o),
(417,97,o),
(404,94,cs),
(335,78,l),
(350,-1,l)
);
},
{
closed = 1;
nodes = (
(312,470,l),
(300,404,l),
(392,382,ls),
(398,381,o),
(400,371,o),
(394,365,cs),
(155,135,l),
(155,88,l),
(543,470,l)
);
}
);
width = 628;
}
);
metricLeft = k;
metricRight = k;
unicode = 1082;
},
{
glyphname = "el-cy";
kernLeft = LHlowerangled;
lastChange = "2026-06-12 01:49:59 +0000";
layers = (
{
anchors = (
{
name = bottom;
pos = (284,0);
}
);
layerId = m01;
shapes = (
{
closed = 1;
nodes = (
(170,0,l),
(200,452,l),
(173,470,l),
(149,114,ls),
(147,91,o),
(143,83,o),
(124,78,cs),
(39,55,l),
(30,0,l)
);
},
{
closed = 1;
nodes = (
(548,0,l),
(548,15,l),
(506,31,l),
(506,69,l),
(362,69,l),
(373,0,l)
);
},
{
closed = 1;
nodes = (
(506,0,l),
(506,470,l),
(366,470,l),
(350,455,l),
(350,0,l)
);
},
{
closed = 1;
nodes = (
(432,440,l),
(432,470,l),
(173,470,l),
(172,440,l)
);
}
);
width = 598;
}
);
metricLeft = "=x-10";
metricRight = "=|n";
unicode = 1083;
},
{
glyphname = "em-cy";
kernLeft = LHlowerangled;
lastChange = "2026-06-11 00:18:57 +0000";
layers = (
{
layerId = m01;
shapes = (
{
closed = 1;
nodes = (
(508,327,l),
(508,0,l),
(665,0,l),
(663,470,l),
(538,470,l),
(401,152,l),
(222,470,l),
(50,470,l),
(50,455,l),
(92,439,l),
(92,0,l),
(241,0,l),
(230,58,l),
(145,81,ls),
(126,86,o),
(120,94,o),
(120,117,cs),
(121,388,l),
(361,-16,l)
);
}
);
width = 755;
}
);
metricLeft = n;
metricRight = l;
unicode = 1084;
},
{
glyphname = "en-cy";
lastChange = "2026-06-11 00:19:19 +0000";
layers = (
{
anchors = (
{
name = bottomright;
pos = (615,0);
}
);
layerId = m01;
shapes = (
{
closed = 1;
nodes = (
(565,0,l),
(565,470,l),
(415,470,l),
(415,0,l)
);
},
{
closed = 1;
nodes = (
(240,0,l),
(240,470,l),
(90,470,l),
(90,0,l)
);
},
{
closed = 1;
nodes = (
(441,194,l),
(376,271,l),
(217,271,l),
(282,194,l)
);
}
);
width = 655;
}
);
metricLeft = "=|l";
metricRight = l;
unicode = 1085;
},
{
glyphname = "pe-cy";
kernLeft = LHlowerangled;
lastChange = "2026-06-11 00:19:49 +0000";
layers = (
{
anchors = (
{
name = bottomright;
pos = (649,0);
}
);
layerId = m01;
shapes = (
{
closed = 1;
nodes = (
(629,0,l),
(629,15,l),
(587,31,l),
(587,470,l),
(92,470,l),
(92,31,l),
(50,15,l),
(50,0,l),
(258,0,l),
(258,440,l),
(421,440,l),
(421,0,l)
);
}
);
width = 679;
}
);
metricLeft = l;
metricRight = "=|l";
unicode = 1087;
},
{
glyphname = "es-cy";
kernLeft = roundedLow;
kernRight = RHroundedlow;
lastChange = "2026-06-12 01:23:47 +0000";
layers = (
{
anchors = (
{
name = bottomright;
pos = (503,0);
}
);
layerId = m01;
shapes = (
{
closed = 1;
nodes = (
(401,-9,o),
(454,31,o),
(483,135,c),
(464,142,l),
(437,56,o),
(389,23,o),
(333,24,cs),
(261,24,o),
(221,95,o),
(221,240,cs),
(221,385,o),
(251,457,o),
(303,457,cs),
(353,457,o),
(393,398,o),
(421,278,c),
(432,278,l),
(482,415,l),
(433,457,o),
(371,479,o),
(298,479,cs),
(165,479,o),
(65,400,o),
(65,240,cs),
(65,73,o),
(165,-10,o),
(300,-10,cs)
);
}
);
width = 528;
}
);
metricLeft = c;
metricRight = c;
unicode = 1089;
},
{
glyphname = "te-cy";
lastChange = "2026-06-14 20:42:01 +0000";
layers = (
{
anchors = (
{
name = bottom;
pos = (289,0);
},
{
name = bottomright;
pos = (567,0);
},
{
name = top;
pos = (289,470);
}
);
layerId = m01;
shapes = (
{
closed = 1;
nodes = (
(367,0,l),
(366,442,l),
(430,442,ls),
(448,442,o),
(455,437,o),
(459,422,cs),
(485,335,l),
(537,327,l),
(537,470,l),
(40,470,l),
(40,327,l),
(92,335,l),
(118,422,ls),
(122,437,o),
(129,442,o),
(147,442,cs),
(211,442,l),
(212,0,l)
);
}
);
width = 577;
}
);
metricLeft = "=|ge-cy";
metricRight = "ge-cy";
unicode = 1090;
},
{
glyphname = "ef-cy";
kernLeft = roundedUppers;
kernRight = RHroundedUpper;
lastChange = "2026-06-12 02:16:42 +0000";
layers = (
{
layerId = m01;
shapes = (
{
closed = 1;
nodes = (
(668,28,o),
(768,103,o),
(768,256,c),
(768,401,o),
(668,475,o),
(466,475,c),
(466,457,l),
(565,456,o),
(635,391,o),
(635,264,c),
(637,122,o),
(567,45,o),
(466,45,c),
(466,28,l)
);
},
{
closed = 1;
nodes = (
(487,-119,l),
(487,-70,l),
(333,-70,l),
(333,-88,l),
(301,-104,l),
(301,-119,l)
);
},
{
closed = 1;
nodes = (
(526,-119,l),
(526,-104,l),
(494,-88,l),
(494,-70,l),
(340,-70,l),
(340,-119,l)
);
},
{
closed = 1;
nodes = (
(367,45,l),
(266,45,o),
(196,122,o),
(198,264,c),
(198,391,o),
(268,456,o),
(367,457,c),
(367,475,l),
(166,475,o),
(65,401,o),
(65,256,c),
(65,103,o),
(166,28,o),
(367,28,c)
);
},
{
closed = 1;
nodes = (
(494,-119,l),
(494,621,l),
(332,621,l),
(332,-119,l)
);
},
{
closed = 1;
nodes = (
(487,572,l),
(487,621,l),
(301,621,l),
(301,606,l),
(333,590,l),
(333,572,l)
);
},
{
closed = 1;
nodes = (
(494,572,l),
(494,590,l),
(526,606,l),
(526,621,l),
(340,621,l),
(340,572,l)
);
}
);
width = 833;
}
);
metricLeft = o;
metricRight = o;
unicode = 1092;
},
{
glyphname = "ha-cy";
kernLeft = LHlowerangled;
lastChange = "2026-06-11 00:20:21 +0000";
layers = (
{
anchors = (
{
name = bottom;
pos = (295,0);
},
{
name = bottomright;
pos = (569,0);
},
{
name = top;
pos = (295,470);
}
);
layerId = m01;
shapes = (
{
closed = 1;
nodes = (
(549,0,l),
(236,470,l),
(55,470,l),
(368,0,l)
);
},
{
closed = 1;
nodes = (
(215,0,l),
(232,65,l),
(161,82,ls),
(147,85,o),
(149,93,o),
(158,105,cs),
(238,210,l),
(217,232,l),
(40,0,l)
);
},
{
closed = 1;
nodes = (
(535,471,l),
(361,471,l),
(348,413,l),
(419,396,ls),
(433,393,o),
(432,385,o),
(422,373,cs),
(345,272,l),
(365,250,l)
);
}
);
width = 589;
}
);
metricLeft = x;
metricRight = x;
unicode = 1093;
},
{
glyphname = "tse-cy";
kernLeft = LHlowerangled;
lastChange = "2026-06-11 00:21:03 +0000";
layers = (
{
layerId = m01;
shapes = (
{
closed = 1;
nodes = (
(710,-118,l),
(700,-50,l),
(608,-29,ls),
(592,-26,o),
(587,-18,o),
(587,2,cs),
(586,304,l),
(508,304,l),
(509,-118,l)
);
},
{
closed = 1;
nodes = (
(515,0,l),
(515,30,l),
(147,30,l),
(147,0,l)
);
},
{
closed = 1;
nodes = (
(258,0,l),
(258,470,l),
(92,470,l),
(92,0,l)
);
},
{
closed = 1;
nodes = (
(256,401,l),
(256,470,l),
(50,470,l),
(50,455,l),
(92,439,l),
(92,401,l)
);
},
{
closed = 1;
nodes = (
(586,0,l),
(586,470,l),
(420,470,l),
(420,0,l)
);
},
{
closed = 1;
nodes = (
(586,401,l),
(586,439,l),
(629,455,l),
(629,470,l),
(422,470,l),
(422,401,l)
);
}
);
width = 710;
}
);
metricLeft = n;
unicode = 1094;
},
{
glyphname = "che-cy";
kernLeft = LHlowerangled;
lastChange = "2026-06-11 00:20:39 +0000";
layers = (
{
anchors = (
{
name = bottomright;
pos = (523,0);
},
{
name = top;
pos = (277,470);
}
);
layerId = m01;
shapes = (
{
closed = 1;
nodes = (
(330,142,o),
(377,172,o),
(412,228,c),
(394,257,l),
(380,223,o),
(339,205,o),
(289,205,cs),
(242,205,o),
(186,243,o),
(186,319,cs),
(186,474,l),
(50,474,l),
(50,296,ls),
(50,186,o),
(139,142,o),
(229,142,cs)
);
},
{
closed = 1;
nodes = (
(493,0,l),
(493,474,l),
(350,474,l),
(350,0,l)
);
}
);
width = 583;
}
);
metricLeft = y;
metricRight = l;
unicode = 1095;
},
{
glyphname = "sha-cy";
kernLeft = LHlowerangled;
lastChange = "2026-06-11 00:20:51 +0000";
layers = (
{
anchors = (
{
name = bottom;
pos = (435,0);
},
{
name = top;
pos = (435,470);
}
);
layerId = m01;
shapes = (
{
closed = 1;
nodes = (
(776,0,l),
(776,439,l),
(819,455,l),
(819,470,l),
(620,470,l),
(620,30,l),
(507,30,l),
(507,470,l),
(361,470,l),
(361,30,l),
(248,30,l),
(248,470,l),
(50,470,l),
(50,455,l),
(92,439,l),
(92,0,l)
);
}
);
width = 869;
}
);
metricLeft = n;
metricRight = "=|n";
unicode = 1096;
},
{
glyphname = "shcha-cy";
kernLeft = LHlowerangled;
kernRight = "Shcha-cy";
lastChange = "2026-06-11 00:21:11 +0000";
layers = (
{
layerId = m01;
shapes = (
{
closed = 1;
nodes = (
(900,-118,l),
(890,-50,l),
(798,-29,ls),
(782,-26,o),
(777,-18,o),
(777,2,cs),
(776,294,l),
(776,439,l),
(819,455,l),
(819,470,l),
(620,470,l),
(620,30,l),
(507,30,l),
(507,470,l),
(361,470,l),
(361,30,l),
(248,30,l),
(248,470,l),
(50,470,l),
(50,455,l),
(92,439,l),
(92,0,l),
(699,0,l),
(699,-118,l)
);
}
);
width = 900;
}
);
metricLeft = n;
metricRight = "tse-cy";
unicode = 1097;
},
{
glyphname = "softsign-cy";
kernRight = RHroundedlow;
lastChange = "2026-06-11 23:47:58 +0000";
layers = (
{
anchors = (
{
name = top;
pos = (286,470);
}
);
layerId = m01;
shapes = (
{
closed = 1;
nodes = (
(338,0,ls),
(465,0,o),
(522,60,o),
(522,144,cs),
(522,236,o),
(465,299,o),
(338,299,cs),
(187,299,l),
(187,273,l),
(271,271,ls),
(341,269,o),
(384,217,o),
(384,144,cs),
(384,78,o),
(341,28,o),
(271,26,cs),
(187,25,l),
(187,0,l)
);
},
{
closed = 1;
nodes = (
(236,0,l),
(236,89,l),
(92,69,l),
(92,28,l),
(50,12,l),
(50,0,l)
);
},
{
closed = 1;
nodes = (
(237,0,l),
(237,470,l),
(92,470,l),
(92,0,l)
);
}
);
width = 587;
}
);
metricLeft = n;
metricRight = p;
unicode = 1100;
},
{
glyphname = "hardsign-cy";
kernRight = RHroundedlow;
lastChange = "2026-06-14 20:40:34 +0000";
layers = (
{
anchors = (
{
name = top;
pos = (308,470);
}
);
layerId = m01;
shapes = (
{
closed = 1;
nodes = (
(40,470,l),
(40,360,l),
(105,402,l),
(105,440,l),
(293,440,l),
(293,470,l)
);
},
{
closed = 1;
nodes = (
(402,0,ls),
(529,0,o),
(586,60,o),
(586,144,cs),
(586,236,o),
(529,299,o),
(402,299,cs),
(251,299,l),
(251,273,l),
(335,271,ls),
(405,269,o),
(448,217,o),
(448,144,cs),
(448,78,o),
(405,28,o),
(335,26,cs),
(251,25,l),
(251,0,l)
);
},
{
closed = 1;
nodes = (
(300,0,l),
(300,89,l),
(156,69,l),
(156,28,l),
(114,12,l),
(114,0,l)
);
},
{
closed = 1;
nodes = (
(301,0,l),
(301,470,l),
(156,470,l),
(156,0,l)
);
}
);
width = 651;
}
);
metricLeft = "=|r";
metricRight = p;
unicode = 1098;
},
{
glyphname = "e-cy";
kernLeft = roundedLow;
kernRight = RHroundedlow;
lastChange = "2026-06-11 23:47:58 +0000";
layers = (
{
anchors = (
{
name = top;
pos = (268,470);
}
);
layerId = m01;
shapes = (
{
closed = 1;
nodes = (
(369,-10,o),
(426,9,o),
(470,48,c),
(470,128,l),
(378,128,l),
(373,51,o),
(348,11,o),
(295,11,c),
(233,12,o),
(203,91,o),
(204,238,c),
(206,378,o),
(236,452,o),
(295,452,c),
(348,452,o),
(373,414,o),
(378,336,c),
(468,336,l),
(468,414,l),
(432,455,o),
(376,474,o),
(295,474,c),
(176,474,o),
(70,403,o),
(65,238,c),
(65,82,o),
(148,-5,o),
(295,-9,c)
);
},
{
closed = 1;
nodes = (
(353,162,l),
(353,307,l),
(333,307,l),
(332,265,o),
(315,248,o),
(196,247,c),
(196,228,l),
(316,227,o),
(334,207,o),
(334,162,c)
);
}
);
width = 535;
}
);
metricLeft = o;
metricRight = o;
unicode = 1108;
},
{
glyphname = "yi-cy";
lastChange = "2026-06-11 23:27:14 +0000";
layers = (
{
anchors = (
{
name = bottom;
pos = (216,0);
},
{
name = ogonek;
pos = (291,0);
},
{
name = top;
pos = (210,470);
}
);
layerId = m01;
shapes = (
{
closed = 1;
nodes = (
(281,0,l),
(281,483,l),
(128,467,l),
(128,0,l)
);
},
{
pos = (211,556);
ref = period;
scale = (0.7072,0.7072);
},
{
pos = (48,556);
ref = period;
scale = (0.7072,0.7072);
}
);
width = 469;
}
);
metricLeft = i;
metricRight = i;
unicode = 1111;
},
{
glyphname = "yu-cy";
kernLeft = LHlowerangled;
kernRight = RHroundedlow;
lastChange = "2026-06-11 23:47:58 +0000";
layers = (
{
anchors = (
{
name = top;
pos = (439,470);
}
);
layerId = m01;
shapes = (
{
closed = 1;
nodes = (
(700,-16,o),
(797,69,o),
(797,240,c),
(797,403,o),
(687,479,o),
(560,479,c),
(434,479,o),
(321,403,o),
(321,240,c),
(321,69,o),
(421,-16,o),
(560,-16,c)
);
},
{
closed = 1;
nodes = (
(253,0,l),
(253,473,l),
(90,473,l),
(90,0,l)
);
},
{
closed = 1;
nodes = (
(359,224,l),
(359,254,l),
(219,254,l),
(219,224,l)
);
},
{
closed = 1;
nodes = (
(511,8,o),
(487,83,o),
(487,240,c),
(487,387,o),
(511,456,o),
(560,456,c),
(607,456,o),
(631,387,o),
(631,240,c),
(631,83,o),
(607,8,o),
(560,8,c)
);
}
);
width = 862;
}
);
metricLeft = "=|l";
metricRight = o;
unicode = 1102;
},
{
glyphname = "ya-cy";
kernLeft = roundedLow;
lastChange = "2026-06-11 00:23:39 +0000";
layers = (
{
anchors = (
{
name = top;
pos = (290,470);
}
);
layerId = m01;
shapes = (
{
closed = 1;
nodes = (
(508,0,l),
(510,473,l),
(258,473,l),
(94,473,o),
(66,387,o),
(66,330,c),
(66,186,o),
(203,183,o),
(344,183,c),
(345,0,l)
);
},
{
closed = 1;
nodes = (
(273,0,l),
(284,59,l),
(215,76,ls),
(206,79,o),
(207,86,o),
(212,94,cs),
(289,210,l),
(195,235,l),
(40,0,l)
);
},
{
closed = 1;
nodes = (
(287,214,o),
(200,216,o),
(200,330,c),
(200,428,o),
(257,444,o),
(344,444,c),
(343,214,l)
);
}
);
width = 600;
}
);
metricLeft = x;
metricRight = l;
unicode = 1103;
},
{
glyphname = Omega;
lastChange = "2026-06-03 23:46:39 +0000";
layers = (
{
anchors = (
{
name = bottom;
pos = (397,0);
},
{
name = topleft;
pos = (20,700);
}
);
layerId = m01;
shapes = (
{
closed = 1;
nodes = (
(334,0,l),
(317,135,l),
(222,183,o),
(178,277,o),
(183,419,cs),
(183,563,o),
(274,676,o),
(398,676,cs),
(521,676,o),
(610,563,o),
(610,419,cs),
(615,277,o),
(571,183,o),
(476,135,c),
(459,0,l),
(729,0,l),
(753,167,l),
(730,167,l),
(713,102,o),
(693,88,o),
(610,90,cs),
(511,90,l),
(513,114,l),
(652,170,o),
(721,271,o),
(722,419,cs),
(722,570,o),
(592,713,o),
(397,713,cs),
(203,713,o),
(71,570,o),
(71,419,cs),
(72,271,o),
(141,170,o),
(280,114,c),
(282,90,l),
(183,90,ls),
(100,88,o),
(80,102,o),
(63,167,c),
(40,167,l),
(64,0,l)
);
}
);
width = 793;
}
);
unicode = 937;
},
{
glyphname = pi;
lastChange = "2026-06-14 20:40:14 +0000";
layers = (
{
layerId = m01;
shapes = (
{
closed = 1;
nodes = (
(603,0,l),
(592,58,l),
(527,71,ls),
(507,75,o),
(502,84,o),
(502,107,cs),
(501,470,l),
(412,470,l),
(413,0,l)
);
},
{
closed = 1;
nodes = (
(218,0,l),
(218,470,l),
(129,470,l),
(130,0,l)
);
},
{
closed = 1;
nodes = (
(588,420,l),
(588,470,l),
(40,470,l),
(40,420,l)
);
}
);
width = 633;
}
);
unicode = 960;
},
{
glyphname = omega;
lastChange = "2026-06-03 23:46:39 +0000";
layers = (
{
anchors = (
{
name = bottom;
pos = (375,0);
},
{
name = top;
pos = (375,470);
}
);
layerId = m01;
shapes = (
{
closed = 1;
nodes = (
(292,-8,o),
(342,28,o),
(375,98,c),
(408,28,o),
(458,-8,o),
(515,-8,cs),
(628,-8,o),
(710,76,o),
(710,243,cs),
(710,398,o),
(598,507,o),
(476,507,c),
(475,483,l),
(565,458,o),
(609,378,o),
(609,243,cs),
(613,126,o),
(573,29,o),
(515,29,cs),
(458,29,o),
(420,73,o),
(403,161,c),
(418,194,o),
(429,229,o),
(429,290,cs),
(429,354,o),
(416,398,o),
(374,398,cs),
(332,398,o),
(321,354,o),
(321,290,cs),
(321,229,o),
(332,194,o),
(347,161,c),
(330,73,o),
(292,29,o),
(235,29,cs),
(177,29,o),
(137,126,o),
(141,243,cs),
(141,378,o),
(185,458,o),
(275,483,c),
(274,507,l),
(152,507,o),
(40,398,o),
(40,243,cs),
(40,76,o),
(122,-8,o),
(235,-8,cs)
);
}
);
width = 750;
}
);
unicode = 969;
},
{
glyphname = zero;
lastChange = "2026-06-14 20:36:38 +0000";
layers = (
{
layerId = m01;
shapes = (
{
closed = 1;
nodes = (
(548,-14,o),
(670,102,o),
(670,349,cs),
(670,591,o),
(540,707,o),
(383,707,cs),
(222,707,o),
(90,591,o),
(90,349,cs),
(90,102,o),
(214,-14,o),
(383,-14,cs)
);
},
{
closed = 1;
nodes = (
(317,16,o),
(264,126,o),
(264,349,cs),
(264,567,o),
(317,678,o),
(383,678,cs),
(448,678,o),
(491,567,o),
(491,349,cs),
(491,126,o),
(448,16,o),
(383,16,cs)
);
},
{
attr = {
strokeWidth = 60;
};
closed = 0;
nodes = (
(505,631,l),
(250,72,l)
);
}
);
width = 760;
}
);
unicode = 48;
},
{
glyphname = one;
lastChange = "2026-06-14 20:37:31 +0000";
layers = (
{
layerId = m01;
shapes = (
{
closed = 1;
nodes = (
(323,0,l),
(323,706,l),
(295,706,l),
(70,614,l),
(70,590,l),
(132,603,l),
(132,0,l)
);
}
);
width = 463;
}
);
metricLeft = "=zero-20";
metricRight = "=zero+50";
unicode = 49;
},
{
glyphname = two;
lastChange = "2026-06-14 20:36:59 +0000";
layers = (
{
layerId = m01;
shapes = (
{
closed = 1;
nodes = (
(632,240,l),
(608,240,l),
(603,194,o),
(576,144,o),
(476,146,c),
(170,146,l),
(259,277,o),
(620,260,o),
(624,501,c),
(624,632,o),
(531,705,o),
(346,705,c),
(175,705,o),
(90,627,o),
(90,472,c),
(268,449,l),
(259,598,o),
(284,673,o),
(345,674,c),
(401,674,o),
(429,609,o),
(429,518,c),
(429,305,o),
(90,285,o),
(90,0,c),
(615,1,l),
(615,0,l)
);
}
);
width = 722;
}
);
metricLeft = zero;
metricRight = zero;
unicode = 50;
},
{
glyphname = three;
lastChange = "2026-06-14 20:36:59 +0000";
layers = (
{
layerId = m01;
shapes = (
{
closed = 1;
nodes = (
(558,-13,o),
(652,59,o),
(652,196,c),
(652,286,o),
(594,345,o),
(476,371,c),
(574,393,o),
(624,447,o),
(624,531,c),
(624,648,o),
(524,707,o),
(364,707,c),
(220,707,o),
(110,638,o),
(110,500,c),
(279,475,l),
(275,610,o),
(302,677,o),
(362,678,c),
(413,678,o),
(438,630,o),
(438,533,c),
(438,432,o),
(402,381,o),
(329,381,c),
(288,381,l),
(288,351,l),
(329,351,l),
(420,351,o),
(458,296,o),
(458,179,c),
(458,76,o),
(429,21,o),
(370,21,c),
(302,23,o),
(273,98,o),
(283,238,c),
(90,216,l),
(90,66,o),
(184,-13,o),
(371,-13,c)
);
}
);
width = 742;
}
);
metricLeft = zero;
metricRight = zero;
unicode = 51;
},
{
glyphname = four;
lastChange = "2026-06-14 20:36:59 +0000";
layers = (
{
layerId = m01;
shapes = (
{
closed = 1;
nodes = (
(575,0,l),
(575,156,l),
(629,156,l),
(629,212,l),
(575,212,l),
(575,519,l),
(554,519,l),
(526,441,o),
(478,391,o),
(411,368,c),
(411,212,l),
(157,212,l),
(362,377,o),
(463,535,o),
(472,700,c),
(304,700,l),
(296,483,o),
(218,302,o),
(70,156,c),
(411,156,l),
(411,0,l)
);
}
);
width = 749;
}
);
metricLeft = "=zero-20";
metricRight = "=zero+30";
unicode = 52;
},
{
glyphname = five;
lastChange = "2026-06-14 20:36:59 +0000";
layers = (
{
layerId = m01;
shapes = (
{
closed = 1;
nodes = (
(531,-9,o),
(655,69,o),
(655,232,cs),
(655,378,o),
(557,450,o),
(373,450,cs),
(251,450,o),
(203,408,o),
(175,388,c),
(187,558,l),
(603,568,l),
(611,711,l),
(163,701,l),
(138,349,l),
(170,345,l),
(180,357,o),
(242,412,o),
(332,408,cs),
(413,408,o),
(454,343,o),
(454,224,cs),
(454,77,o),
(424,22,o),
(365,22,cs),
(310,22,o),
(283,69,o),
(283,244,c),
(90,221,l),
(90,77,o),
(205,-9,o),
(366,-9,cs)
);
}
);
width = 755;
}
);
metricLeft = zero;
metricRight = "=zero+10";
unicode = 53;
},
{
glyphname = six;
lastChange = "2026-06-14 20:36:59 +0000";
layers = (
{
layerId = m01;
shapes = (
{
closed = 1;
nodes = (
(536,-9,o),
(646,70,o),
(646,230,cs),
(646,372,o),
(563,443,o),
(421,443,cs),
(325,443,o),
(292,406,o),
(283,384,c),
(283,579,o),
(340,679,o),
(396,679,cs),
(446,679,o),
(470,604,o),
(462,518,c),
(611,484,l),
(611,641,l),
(562,672,o),
(503,708,o),
(396,708,cs),
(234,708,o),
(90,582,o),
(90,331,cs),
(90,104,o),
(204,-9,o),
(379,-9,cs)
);
},
{
closed = 1;
nodes = (
(327,21,o),
(294,86,o),
(289,210,cs),
(286,295,o),
(294,400,o),
(367,400,cs),
(422,400,o),
(462,322,o),
(462,213,cs),
(462,87,o),
(432,21,o),
(379,21,cs)
);
}
);
width = 736;
}
);
metricLeft = zero;
metricRight = zero;
unicode = 54;
},
{
glyphname = seven;
lastChange = "2026-06-14 20:36:59 +0000";
layers = (
{
layerId = m01;
shapes = (
{
closed = 1;
nodes = (
(363,0,l),
(387,198,o),
(461,385,o),
(587,559,c),
(587,700,l),
(98,700,l),
(90,462,l),
(114,462,l),
(115,490,o),
(133,558,o),
(216,558,c),
(543,558,l),
(329,389,o),
(194,195,o),
(160,0,c)
);
}
);
width = 677;
}
);
metricLeft = zero;
metricRight = zero;
unicode = 55;
},
{
glyphname = eight;
lastChange = "2026-06-14 20:36:45 +0000";
layers = (
{
layerId = m01;
shapes = (
{
closed = 1;
nodes = (
(541,-8,o),
(645,63,o),
(645,197,cs),
(645,332,o),
(549,364,o),
(485,400,c),
(491,402,o),
(617,425,o),
(617,545,cs),
(617,654,o),
(505,706,o),
(373,706,cs),
(233,706,o),
(116,645,o),
(116,518,cs),
(116,397,o),
(195,364,o),
(238,336,c),
(169,317,o),
(90,281,o),
(90,172,cs),
(90,59,o),
(197,-8,o),
(374,-8,cs)
);
},
{
closed = 1;
nodes = (
(228,23,o),
(197,212,o),
(288,309,c),
(417,235,ls),
(460,208,o),
(489,182,o),
(489,118,cs),
(489,56,o),
(435,23,o),
(373,23,cs)
);
},
{
closed = 1;
nodes = (
(361,466,ls),
(298,505,o),
(274,525,o),
(274,586,cs),
(274,631,o),
(307,674,o),
(372,674,cs),
(515,674,o),
(479,479,o),
(436,425,c)
);
}
);
width = 735;
}
);
metricLeft = zero;
metricRight = zero;
unicode = 56;
},
{
glyphname = zero.dnom;
lastChange = "2026-06-11 02:49:24 +0000";
layers = (
{
layerId = m01;
shapes = (
{
closed = 1;
nodes = (
(347,-8,o),
(428,69,o),
(428,235,cs),
(428,397,o),
(341,475,o),
(236,475,cs),
(128,475,o),
(40,397,o),
(40,235,cs),
(40,69,o),
(123,-8,o),
(236,-8,cs)
);
},
{
closed = 1;
nodes = (
(192,12,o),
(160,85,o),
(160,235,cs),
(160,381,o),
(192,455,o),
(236,455,cs),
(280,455,o),
(312,381,o),
(312,235,cs),
(312,85,o),
(280,12,o),
(236,12,cs)
);
},
{
attr = {
strokeWidth = 40;
};
closed = 0;
nodes = (
(309,425,l),
(161,35,l)
);
}
);
width = 468;
}
);
},
{
glyphname = one.dnom;
lastChange = "2026-06-11 02:49:37 +0000";
layers = (
{
layerId = m01;
shapes = (
{
closed = 1;
nodes = (
(216,0,l),
(216,470,l),
(197,470,l),
(40,392,l),
(40,376,l),
(88,381,l),
(88,0,l)
);
}
);
width = 256;
}
);
metricLeft = zero.dnom;
metricRight = zero.dnom;
},
{
glyphname = two.dnom;
lastChange = "2026-06-11 02:49:37 +0000";
layers = (
{
layerId = m01;
shapes = (
{
closed = 1;
nodes = (
(403,161,l),
(387,161,l),
(384,130,o),
(365,96,o),
(298,98,c),
(93,98,l),
(153,186,o),
(395,174,o),
(398,336,c),
(398,423,o),
(335,472,o),
(211,472,c),
(97,472,o),
(40,420,o),
(40,316,c),
(159,301,l),
(153,401,o),
(170,451,o),
(211,452,c),
(248,452,o),
(267,408,o),
(267,347,c),
(267,204,o),
(40,192,o),
(40,1,c),
(392,1,l),
(392,0,l)
);
}
);
width = 443;
}
);
metricLeft = zero.dnom;
metricRight = zero.dnom;
},
{
glyphname = three.dnom;
lastChange = "2026-06-11 02:49:37 +0000";
layers = (
{
layerId = m01;
shapes = (
{
closed = 1;
nodes = (
(353,-7,o),
(416,39,o),
(416,130,c),
(416,191,o),
(377,230,o),
(298,248,c),
(364,262,o),
(398,298,o),
(398,355,c),
(398,433,o),
(331,473,o),
(223,473,c),
(127,473,o),
(53,426,o),
(53,334,c),
(166,317,l),
(164,408,o),
(182,453,o),
(222,453,c),
(256,453,o),
(273,421,o),
(273,356,c),
(273,288,o),
(249,254,o),
(200,254,c),
(172,254,l),
(172,234,l),
(200,234,l),
(261,234,o),
(286,197,o),
(286,119,c),
(286,50,o),
(267,16,o),
(227,16,c),
(182,17,o),
(162,65,o),
(169,158,c),
(40,144,l),
(40,43,o),
(103,-7,o),
(228,-7,c)
);
}
);
width = 456;
}
);
metricLeft = zero.dnom;
metricRight = zero.dnom;
},
{
glyphname = four.dnom;
lastChange = "2026-06-11 02:49:37 +0000";
layers = (
{
layerId = m01;
shapes = (
{
closed = 1;
nodes = (
(378,0,l),
(378,105,l),
(414,105,l),
(414,142,l),
(378,142,l),
(378,348,l),
(364,348,l),
(345,295,o),
(313,262,o),
(268,247,c),
(268,142,l),
(98,142,l),
(235,253,o),
(303,358,o),
(309,469,c),
(197,469,l),
(191,324,o),
(139,202,o),
(40,105,c),
(268,105,l),
(268,0,l)
);
}
);
width = 454;
}
);
metricLeft = zero.dnom;
metricRight = zero.dnom;
},
{
glyphname = five.dnom;
lastChange = "2026-06-11 02:49:37 +0000";
layers = (
{
layerId = m01;
shapes = (
{
closed = 1;
nodes = (
(335,-6,o),
(418,46,o),
(418,155,cs),
(418,253,o),
(353,302,o),
(229,302,cs),
(148,302,o),
(116,273,o),
(97,260,c),
(105,374,l),
(384,381,l),
(389,476,l),
(89,470,l),
(72,234,l),
(93,231,l),
(100,239,o),
(142,276,o),
(202,273,cs),
(256,273,o),
(284,230,o),
(284,150,cs),
(284,52,o),
(264,15,o),
(224,15,cs),
(187,15,o),
(169,46,o),
(169,163,c),
(40,148,l),
(40,52,o),
(117,-6,o),
(225,-6,cs)
);
}
);
width = 458;
}
);
metricLeft = zero.dnom;
metricRight = zero.dnom;
},
{
glyphname = six.dnom;
lastChange = "2026-06-11 02:49:37 +0000";
layers = (
{
layerId = m01;
shapes = (
{
closed = 1;
nodes = (
(339,-6,o),
(412,47,o),
(412,154,cs),
(412,249,o),
(357,297,o),
(262,297,cs),
(197,297,o),
(175,272,o),
(169,257,c),
(169,388,o),
(207,455,o),
(245,455,cs),
(278,455,o),
(294,405,o),
(289,347,c),
(389,324,l),
(389,429,l),
(356,450,o),
(317,474,o),
(245,474,cs),
(136,474,o),
(40,390,o),
(40,222,cs),
(40,70,o),
(116,-6,o),
(233,-6,cs)
);
},
{
closed = 1;
nodes = (
(199,14,o),
(176,58,o),
(173,141,cs),
(171,198,o),
(176,268,o),
(225,268,cs),
(262,268,o),
(289,216,o),
(289,143,cs),
(289,58,o),
(269,14,o),
(233,14,cs)
);
}
);
width = 452;
}
);
metricLeft = zero.dnom;
metricRight = zero.dnom;
},
{
glyphname = seven.dnom;
lastChange = "2026-06-11 02:49:37 +0000";
layers = (
{
layerId = m01;
shapes = (
{
closed = 1;
nodes = (
(223,0,l),
(239,133,o),
(288,258,o),
(373,375,c),
(373,469,l),
(45,469,l),
(40,310,l),
(56,310,l),
(57,328,o),
(69,374,o),
(124,374,c),
(343,374,l),
(200,261,o),
(109,131,o),
(87,0,c)
);
}
);
width = 413;
}
);
metricLeft = zero.dnom;
metricRight = zero.dnom;
},
{
glyphname = eight.dnom;
lastChange = "2026-06-11 02:49:37 +0000";
layers = (
{
layerId = m01;
shapes = (
{
closed = 1;
nodes = (
(342,-5,o),
(412,42,o),
(412,132,cs),
(412,222,o),
(347,244,o),
(304,268,c),
(308,269,o),
(393,285,o),
(393,365,cs),
(393,438,o),
(318,473,o),
(229,473,cs),
(136,473,o),
(57,432,o),
(57,347,cs),
(57,266,o),
(110,244,o),
(139,225,c),
(93,212,o),
(40,188,o),
(40,115,cs),
(40,40,o),
(111,-5,o),
(230,-5,cs)
);
},
{
closed = 1;
nodes = (
(132,15,o),
(111,142,o),
(172,207,c),
(259,157,ls),
(288,139,o),
(307,122,o),
(307,79,cs),
(307,38,o),
(271,15,o),
(229,15,cs)
);
},
{
closed = 1;
nodes = (
(221,312,ls),
(179,338,o),
(163,352,o),
(163,393,cs),
(163,423,o),
(185,452,o),
(229,452,cs),
(325,452,o),
(300,321,o),
(272,285,c)
);
}
);
width = 452;
}
);
metricLeft = zero.dnom;
metricRight = zero.dnom;
},
{
glyphname = nine.dnom;
lastChange = "2026-06-11 02:49:37 +0000";
layers = (
{
layerId = m01;
shapes = (
{
closed = 1;
nodes = (
(316,-5,o),
(412,79,o),
(412,247,cs),
(412,399,o),
(336,475,o),
(219,475,cs),
(114,475,o),
(40,422,o),
(40,315,cs),
(40,220,o),
(95,172,o),
(191,172,cs),
(255,172,o),
(277,197,o),
(283,212,c),
(283,81,o),
(245,14,o),
(207,14,cs),
(174,14,o),
(158,64,o),
(163,122,c),
(63,145,l),
(63,40,l),
(96,19,o),
(136,-5,o),
(207,-5,cs)
);
},
{
closed = 1;
nodes = (
(190,201,o),
(163,253,o),
(163,326,cs),
(163,411,o),
(183,455,o),
(219,455,cs),
(254,455,o),
(276,411,o),
(279,328,cs),
(281,271,o),
(276,201,o),
(227,201,cs)
);
}
);
width = 452;
}
);
metricLeft = zero.dnom;
metricRight = zero.dnom;
},
{
glyphname = zero.numr;
lastChange = "2026-06-11 02:49:53 +0000";
layers = (
{
layerId = m01;
shapes = (
{
closed = 1;
nodes = (
(347,242,o),
(428,319,o),
(428,485,cs),
(428,647,o),
(341,725,o),
(236,725,cs),
(128,725,o),
(40,647,o),
(40,485,cs),
(40,319,o),
(123,242,o),
(236,242,cs)
);
},
{
closed = 1;
nodes = (
(192,262,o),
(160,335,o),
(160,485,cs),
(160,631,o),
(192,705,o),
(236,705,cs),
(280,705,o),
(312,631,o),
(312,485,cs),
(312,335,o),
(280,262,o),
(236,262,cs)
);
},
{
attr = {
strokeWidth = 40;
};
closed = 0;
nodes = (
(309,675,l),
(161,285,l)
);
}
);
width = 468;
}
);
metricLeft = zero.dnom;
metricRight = zero.dnom;
},
{
glyphname = one.numr;
lastChange = "2026-06-11 02:49:53 +0000";
layers = (
{
layerId = m01;
shapes = (
{
closed = 1;
nodes = (
(236,270,l),
(236,720,l),
(217,720,l),
(169,691,o),
(109,661,o),
(40,632,c),
(40,616,l),
(108,631,l),
(108,270,l)
);
}
);
width = 276;
}
);
metricLeft = one.dnom;
metricRight = one.dnom;
},
{
glyphname = two.numr;
lastChange = "2026-06-11 02:50:21 +0000";
layers = (
{
layerId = m01;
shapes = (
{
closed = 1;
nodes = (
(403,411,l),
(387,411,l),
(384,380,o),
(365,346,o),
(298,348,c),
(93,348,l),
(153,436,o),
(395,424,o),
(398,586,c),
(398,673,o),
(335,722,o),
(211,722,c),
(97,722,o),
(40,670,o),
(40,566,c),
(159,551,l),
(153,651,o),
(170,701,o),
(211,702,c),
(248,702,o),
(267,658,o),
(267,597,c),
(267,454,o),
(40,442,o),
(40,251,c),
(392,251,l),
(392,250,l)
);
}
);
width = 443;
}
);
metricLeft = two.dnom;
metricRight = two.dnom;
},
{
glyphname = three.numr;
lastChange = "2026-06-11 02:50:21 +0000";
layers = (
{
layerId = m01;
shapes = (
{
closed = 1;
nodes = (
(353,243,o),
(416,289,o),
(416,380,c),
(416,441,o),
(377,480,o),
(298,498,c),
(364,512,o),
(398,548,o),
(398,605,c),
(398,683,o),
(331,723,o),
(223,723,c),
(127,723,o),
(53,676,o),
(53,584,c),
(166,567,l),
(164,658,o),
(182,703,o),
(222,703,c),
(256,703,o),
(273,671,o),
(273,606,c),
(273,538,o),
(249,504,o),
(200,504,c),
(172,504,l),
(172,484,l),
(200,484,l),
(261,484,o),
(286,447,o),
(286,369,c),
(286,300,o),
(267,266,o),
(227,266,c),
(182,267,o),
(162,315,o),
(169,408,c),
(40,394,l),
(40,293,o),
(103,243,o),
(228,243,c)
);
}
);
width = 456;
}
);
metricLeft = three.dnom;
metricRight = three.dnom;
},
{
glyphname = four.numr;
lastChange = "2026-06-11 02:50:21 +0000";
layers = (
{
layerId = m01;
shapes = (
{
closed = 1;
nodes = (
(378,250,l),
(378,355,l),
(414,355,l),
(414,392,l),
(378,392,l),
(378,598,l),
(364,598,l),
(345,545,o),
(313,512,o),
(268,497,c),
(268,392,l),
(98,392,l),
(235,503,o),
(303,608,o),
(309,719,c),
(197,719,l),
(191,574,o),
(139,452,o),
(40,355,c),
(268,355,l),
(268,250,l)
);
}
);
width = 454;
}
);
metricLeft = four.dnom;
metricRight = four.dnom;
},
{
glyphname = five.numr;
lastChange = "2026-06-11 02:50:21 +0000";
layers = (
{
layerId = m01;
shapes = (
{
closed = 1;
nodes = (
(335,244,o),
(418,296,o),
(418,405,cs),
(418,503,o),
(353,552,o),
(229,552,cs),
(148,552,o),
(116,523,o),
(97,510,c),
(105,624,l),
(384,631,l),
(389,726,l),
(89,720,l),
(72,484,l),
(93,481,l),
(100,489,o),
(142,526,o),
(202,523,cs),
(256,523,o),
(284,480,o),
(284,400,cs),
(284,302,o),
(264,265,o),
(224,265,cs),
(187,265,o),
(169,296,o),
(169,413,c),
(40,398,l),
(40,302,o),
(117,244,o),
(225,244,cs)
);
}
);
width = 458;
}
);
metricLeft = five.dnom;
metricRight = five.dnom;
},
{
glyphname = six.numr;
lastChange = "2026-06-11 02:50:21 +0000";
layers = (
{
layerId = m01;
shapes = (
{
closed = 1;
nodes = (
(339,244,o),
(412,297,o),
(412,404,cs),
(412,499,o),
(357,547,o),
(262,547,cs),
(197,547,o),
(175,522,o),
(169,507,c),
(169,638,o),
(207,705,o),
(245,705,cs),
(278,705,o),
(294,655,o),
(289,597,c),
(389,574,l),
(389,679,l),
(356,700,o),
(317,724,o),
(245,724,cs),
(136,724,o),
(40,640,o),
(40,472,cs),
(40,320,o),
(116,244,o),
(233,244,cs)
);
},
{
closed = 1;
nodes = (
(199,264,o),
(176,308,o),
(173,391,cs),
(171,448,o),
(176,518,o),
(225,518,cs),
(262,518,o),
(289,466,o),
(289,393,cs),
(289,308,o),
(269,264,o),
(233,264,cs)
);
}
);
width = 452;
}
);
metricLeft = six.dnom;
metricRight = six.dnom;
},
{
glyphname = seven.numr;
lastChange = "2026-06-11 02:50:21 +0000";
layers = (
{
layerId = m01;
shapes = (
{
closed = 1;
nodes = (
(223,250,l),
(239,383,o),
(288,508,o),
(373,625,c),
(373,719,l),
(45,719,l),
(40,560,l),
(56,560,l),
(57,578,o),
(69,624,o),
(124,624,c),
(343,624,l),
(200,511,o),
(109,381,o),
(87,250,c)
);
}
);
width = 413;
}
);
metricLeft = seven.dnom;
metricRight = seven.dnom;
},
{
glyphname = eight.numr;
lastChange = "2026-06-11 02:50:21 +0000";
layers = (
{
layerId = m01;
shapes = (
{
closed = 1;
nodes = (
(342,245,o),
(412,292,o),
(412,382,cs),
(412,472,o),
(347,494,o),
(304,518,c),
(308,519,o),
(393,535,o),
(393,615,cs),
(393,688,o),
(318,723,o),
(229,723,cs),
(136,723,o),
(57,682,o),
(57,597,cs),
(57,516,o),
(110,494,o),
(139,475,c),
(93,462,o),
(40,438,o),
(40,365,cs),
(40,290,o),
(111,245,o),
(230,245,cs)
);
},
{
closed = 1;
nodes = (
(132,265,o),
(111,392,o),
(172,457,c),
(259,407,ls),
(288,389,o),
(307,372,o),
(307,329,cs),
(307,288,o),
(271,265,o),
(229,265,cs)
);
},
{
closed = 1;
nodes = (
(221,562,ls),
(179,588,o),
(163,602,o),
(163,643,cs),
(163,673,o),
(185,702,o),
(229,702,cs),
(325,702,o),
(300,571,o),
(272,535,c)
);
}
);
width = 452;
}
);
metricLeft = eight.dnom;
metricRight = eight.dnom;
},
{
glyphname = nine.numr;
lastChange = "2026-06-11 02:50:21 +0000";
layers = (
{
layerId = m01;
shapes = (
{
closed = 1;
nodes = (
(316,245,o),
(412,329,o),
(412,497,cs),
(412,649,o),
(336,725,o),
(219,725,cs),
(114,725,o),
(40,672,o),
(40,565,cs),
(40,470,o),
(95,422,o),
(191,422,cs),
(255,422,o),
(277,447,o),
(283,462,c),
(283,331,o),
(245,264,o),
(207,264,cs),
(174,264,o),
(158,314,o),
(163,372,c),
(63,395,l),
(63,290,l),
(96,269,o),
(136,245,o),
(207,245,cs)
);
},
{
closed = 1;
nodes = (
(190,451,o),
(163,503,o),
(163,576,cs),
(163,661,o),
(183,705,o),
(219,705,cs),
(254,705,o),
(276,661,o),
(279,578,cs),
(281,521,o),
(276,451,o),
(227,451,cs)
);
}
);
width = 452;
}
);
metricLeft = nine.dnom;
metricRight = nine.dnom;
},
{
glyphname = fraction;
lastChange = "2026-06-02 02:13:43 +0000";
layers = (
{
layerId = m01;
shapes = (
{
attr = {
identifier = ID0x31a4e2160;
lineCapEnd = "4";
lineCapStart = "4";
strokeWidth = 50;
};
closed = 0;
nodes = (
(297,736,l),
(-97,-27,l)
);
}
);
width = 200;
}
);
unicode = 8260;
},
{
glyphname = .notdef;
lastChange = "2026-06-09 01:08:32 +0000";
layers = (
{
associatedMasterId = m01;
layerId = "40E32FB9-B6BE-48EB-82C7-9119AE8E729C";
name = Bold;
shapes = (
{
closed = 1;
nodes = (
(349,-60,l),
(117,-60,l),
(117,596,l),
(349,596,l),
(349,664,l),
(50,664,l),
(50,-128,l),
(349,-128,l)
);
},
{
closed = 1;
nodes = (
(529,-128,l),
(529,664,l),
(320,664,l),
(320,596,l),
(462,596,l),
(462,-60,l),
(320,-60,l),
(320,-128,l)
);
}
);
width = 579;
},
{
associatedMasterId = m01;
layerId = "E1ADDF7C-A343-4E6D-B630-136BDFE64807";
shapes = (
{
closed = 1;
nodes = (
(366,-38,l),
(132,-38,l),
(132,574,l),
(366,574,l),
(366,664,l),
(50,664,l),
(50,-128,l),
(366,-128,l)
);
},
{
closed = 1;
nodes = (
(529,-128,l),
(529,664,l),
(320,664,l),
(320,574,l),
(447,574,l),
(447,-38,l),
(320,-38,l),
(320,-128,l)
);
}
);
width = 579;
},
{
layerId = m01;
shapes = (
{
closed = 1;
nodes = (
(349,-128,l),
(349,-84,l),
(98,-84,l),
(98,620,l),
(349,620,l),
(349,664,l),
(50,664,l),
(50,-128,l)
);
},
{
closed = 1;
nodes = (
(529,-128,l),
(529,664,l),
(320,664,l),
(320,620,l),
(481,620,l),
(481,-84,l),
(320,-84,l),
(320,-128,l)
);
},
{
pos = (116,35);
ref = question;
scale = (0.6269,0.6269);
}
);
width = 579;
}
);
},
{
glyphname = comma;
kernLeft = lowPunc;
lastChange = "2026-06-15 00:42:36 +0000";
layers = (
{
layerId = m01;
shapes = (
{
closed = 1;
nodes = (
(185,-81,o),
(235,15,o),
(233,82,cs),
(232,130,o),
(194,168,o),
(146,168,cs),
(99,168,o),
(60,130,o),
(60,82,cs),
(60,34,o),
(99,-4,o),
(146,-4,cs),
(151,-4,o),
(155,-4,o),
(160,-3,c),
(151,-41,o),
(126,-69,o),
(83,-92,c),
(100,-115,l)
);
}
);
width = 293;
}
);
metricLeft = period;
metricRight = period;
unicode = 44;
},
{
glyphname = exclam;
lastChange = "2026-06-11 01:22:25 +0000";
layers = (
{
layerId = m01;
shapes = (
{
closed = 1;
nodes = (
(206,240,l),
(292,700,l),
(70,700,l),
(156,240,l)
);
},
{
pos = (280,0);
ref = "punc-tittle";
scale = (-1,1);
}
);
width = 362;
}
);
unicode = 33;
},
{
glyphname = question;
lastChange = "2026-06-11 01:24:40 +0000";
layers = (
{
layerId = m01;
shapes = (
{
closed = 1;
nodes = (
(294,242,l),
(294,274,l),
(294,337,o),
(527,360,o),
(532,538,c),
(532,637,o),
(453,707,o),
(294,707,c),
(138,707,o),
(60,641,o),
(60,506,c),
(205,475,l),
(202,607,o),
(228,675,o),
(285,675,c),
(326,675,o),
(347,631,o),
(347,544,c),
(347,411,o),
(255,402,o),
(255,298,c),
(255,229,l)
);
},
{
closed = 1;
nodes = (
(337,-6,o),
(381,37,o),
(381,92,cs),
(381,146,o),
(337,189,o),
(284,189,cs),
(229,189,o),
(185,146,o),
(185,92,cs),
(185,37,o),
(229,-6,o),
(284,-6,cs)
);
}
);
width = 592;
}
);
unicode = 63;
},
{
glyphname = asterisk;
lastChange = "2026-06-03 23:46:39 +0000";
layers = (
{
layerId = m01;
shapes = (
{
closed = 1;
nodes = (
(206,527,l),
(259,404,l),
(337,461,l),
(237,555,l),
(372,570,l),
(342,662,l),
(230,597,l),
(254,722,l),
(158,722,l),
(182,597,l),
(70,662,l),
(40,570,l),
(174,555,l),
(74,461,l),
(152,404,l)
);
}
);
width = 412;
}
);
unicode = 42;
},
{
glyphname = interrobang;
lastChange = "2026-06-11 01:24:57 +0000";
layers = (
{
layerId = m01;
shapes = (
{
closed = 1;
nodes = (
(345,354,l),
(354,436,o),
(577,502,o),
(582,680,c),
(582,779,o),
(473,859,o),
(324,859,c),
(178,859,o),
(60,783,o),
(60,648,c),
(205,617,l),
(202,749,o),
(238,827,o),
(315,827,c),
(376,827,o),
(427,773,o),
(427,686,c),
(427,553,o),
(285,449,o),
(285,345,c),
(285,276,l),
(336,263,l)
);
},
{
closed = 1;
nodes = (
(358,-16,o),
(402,27,o),
(402,82,cs),
(402,136,o),
(358,179,o),
(305,179,cs),
(250,179,o),
(206,136,o),
(206,82,cs),
(206,27,o),
(250,-16,o),
(305,-16,cs)
);
},
{
closed = 1;
nodes = (
(331,215,l),
(375,637,l),
(237,637,l),
(281,215,l)
);
}
);
width = 642;
}
);
metricLeft = question;
metricRight = question;
unicode = 8253;
},
{
glyphname = numbersign;
lastChange = "2026-06-03 23:46:39 +0000";
layers = (
{
layerId = m01;
shapes = (
{
closed = 1;
nodes = (
(563,421,l),
(563,525,l),
(82,525,l),
(82,421,l)
);
},
{
closed = 1;
nodes = (
(521,168,l),
(521,272,l),
(40,272,l),
(40,168,l)
);
},
{
attr = {
lineCapEnd = "4";
lineCapStart = "4";
strokeWidth = 32;
};
closed = 0;
nodes = (
(285,700,l),
(139,0,l)
);
},
{
attr = {
lineCapEnd = "4";
lineCapStart = "4";
strokeWidth = 32;
};
closed = 0;
nodes = (
(465,700,l),
(319,0,l)
);
}
);
width = 603;
}
);
unicode = 35;
},
{
glyphname = slash;
lastChange = "2026-06-11 01:31:54 +0000";
layers = (
{
guides = (
{
angle = 66.8014;
pos = (250,343);
}
);
layerId = m01;
shapes = (
{
attr = {
lineCapEnd = 4;
lineCapStart = 4;
strokeWidth = 70;
};
closed = 0;
nodes = (
(284,700,l),
(96,0,l)
);
}
);
width = 380;
}
);
unicode = 47;
},
{
glyphname = parenright;
lastChange = "2026-06-11 01:49:33 +0000";
layers = (
{
layerId = m01;
shapes = (
{
closed = 1;
nodes = (
(411,85,o),
(411,545,o),
(60,748,c),
(40,722,l),
(218,572,o),
(218,58,o),
(40,-92,c),
(60,-118,l)
);
}
);
width = 383;
}
);
metricLeft = "=|parenleft";
metricRight = "=|parenleft";
unicode = 41;
},
{
glyphname = braceleft;
lastChange = "2026-06-03 23:46:39 +0000";
layers = (
{
layerId = m01;
shapes = (
{
closed = 1;
nodes = (
(133,317,l),
(200,333,o),
(237,363,o),
(265,405,c),
(307,470,o),
(250,598,o),
(268,654,c),
(283,698,o),
(313,721,o),
(358,721,c),
(358,749,l),
(200,749,o),
(121,696,o),
(121,590,c),
(122,529,o),
(142,470,o),
(138,406,c),
(135,360,o),
(97,333,o),
(50,332,c),
(50,317,l),
(50,304,l)
);
},
{
closed = 1;
nodes = (
(358,-85,l),
(313,-85,o),
(283,-62,o),
(268,-18,c),
(250,38,o),
(307,166,o),
(265,231,c),
(237,273,o),
(200,303,o),
(133,319,c),
(50,332,l),
(50,319,l),
(50,304,l),
(97,303,o),
(135,276,o),
(138,230,c),
(142,166,o),
(122,107,o),
(121,46,c),
(121,-60,o),
(200,-113,o),
(358,-113,c)
);
}
);
width = 398;
}
);
unicode = 123;
},
{
glyphname = bracketright;
lastChange = "2026-06-11 01:49:10 +0000";
layers = (
{
layerId = m01;
shapes = (
{
closed = 1;
nodes = (
(284,-101,l),
(284,734,l),
(40,734,l),
(40,699,l),
(141,699,l),
(141,-66,l),
(40,-66,l),
(40,-101,l)
);
}
);
width = 364;
}
);
metricLeft = "=|bracketleft";
metricRight = "=|bracketleft";
unicode = 93;
},
{
glyphname = quotedblright;
lastChange = "2026-06-11 02:02:11 +0000";
layers = (
{
layerId = m01;
shapes = (
{
closed = 1;
nodes = (
(336,430,l),
(446,698,l),
(266,698,l),
(245,615,l),
(352,576,o),
(357,580,o),
(348,557,cs),
(297,430,l)
);
},
{
closed = 1;
nodes = (
(121,430,l),
(231,698,l),
(51,698,l),
(30,615,l),
(137,576,o),
(142,580,o),
(133,557,cs),
(82,430,l)
);
}
);
width = 526;
}
);
metricLeft = quoteright;
metricRight = quoteright;
unicode = 8221;
},
{
glyphname = quoteright;
lastChange = "2026-06-15 00:42:17 +0000";
layers = (
{
layerId = m01;
shapes = (
{
closed = 1;
nodes = (
(121,430,l),
(231,698,l),
(51,698,l),
(30,615,l),
(137,576,o),
(142,580,o),
(133,557,cs),
(82,430,l)
);
}
);
width = 311;
}
);
unicode = 8217;
},
{
glyphname = guillemetright;
lastChange = "2026-06-11 01:56:34 +0000";
layers = (
{
layerId = m01;
shapes = (
{
closed = 1;
nodes = (
(546,259,l),
(307,480,l),
(282,463,l),
(383,259,l),
(282,55,l),
(307,38,l)
);
},
{
closed = 1;
nodes = (
(329,259,l),
(90,480,l),
(70,463,l),
(166,259,l),
(70,55,l),
(90,38,l)
);
}
);
width = 606;
}
);
unicode = 187;
},
{
glyphname = guilsinglright;
lastChange = "2026-06-11 01:56:48 +0000";
layers = (
{
layerId = m01;
shapes = (
{
closed = 1;
nodes = (
(304,258,l),
(95,499,l),
(70,482,l),
(171,258,l),
(70,34,l),
(95,17,l)
);
}
);
width = 364;
}
);
metricLeft = guillemetright;
metricRight = guillemetright;
unicode = 8250;
},
{
glyphname = quotesingle;
lastChange = "2026-06-11 01:59:17 +0000";
layers = (
{
layerId = m01;
shapes = (
{
closed = 1;
nodes = (
(127,514,l),
(151,733,l),
(40,733,l),
(64,514,l)
);
}
);
width = 201;
}
);
unicode = 39;
},
{
glyphname = florin;
lastChange = "2026-06-11 00:43:54 +0000";
layers = (
{
layerId = m01;
shapes = (
{
closed = 1;
nodes = (
(374,-1,l),
(375,595,ls),
(375,648,o),
(389,674,o),
(416,674,cs),
(447,674,o),
(480,620,o),
(513,514,c),
(523,514,l),
(572,654,l),
(525,684,o),
(473,699,o),
(416,699,cs),
(283,699,o),
(217,630,o),
(217,493,cs),
(217,-1,l)
);
},
{
closed = 1;
nodes = (
(309,-193,o),
(375,-124,o),
(375,13,cs),
(375,317,l),
(218,317,l),
(217,-89,ls),
(217,-142,o),
(203,-168,o),
(176,-168,cs),
(145,-168,o),
(112,-114,o),
(79,-8,c),
(69,-8,l),
(20,-148,l),
(67,-178,o),
(119,-193,o),
(176,-193,cs)
);
},
{
closed = 1;
nodes = (
(489,430,l),
(489,470,l),
(121,470,l),
(121,430,l)
);
}
);
width = 652;
}
);
metricLeft = "=F-70";
metricRight = F;
unicode = 402;
},
{
glyphname = baht;
lastChange = "2026-06-11 00:33:38 +0000";
layers = (
{
layerId = m01;
shapes = (
{
closed = 1;
nodes = (
(396,-43,l),
(396,742,l),
(346,742,l),
(346,-43,l)
);
},
{
ref = B;
}
);
width = 760;
}
);
metricLeft = B;
metricRight = B;
unicode = 3647;
},
{
glyphname = at;
lastChange = "2026-06-11 00:32:34 +0000";
layers = (
{
layerId = m01;
shapes = (
{
closed = 1;
nodes = (
(562,-25,o),
(619,-5,o),
(679,37,c),
(656,70,l),
(602,32,o),
(553,15,o),
(454,15,cs),
(255,15,o),
(110,161,o),
(110,360,cs),
(110,537,o),
(274,684,o),
(454,684,cs),
(628,684,o),
(777,551,o),
(779,376,c),
(777,255,o),
(731,182,o),
(675,182,cs),
(653,182,o),
(642,197,o),
(642,233,cs),
(642,440,ls),
(642,526,o),
(578,569,o),
(449,569,cs),
(391,569,o),
(338,553,o),
(288,523,c),
(382,433,l),
(400,433,l),
(401,507,o),
(417,543,o),
(450,543,cs),
(483,543,o),
(498,493,o),
(496,395,c),
(337,387,o),
(259,341,o),
(257,255,cs),
(257,186,o),
(297,135,o),
(379,135,cs),
(428,135,o),
(469,156,o),
(504,200,c),
(526,156,o),
(567,134,o),
(625,134,cs),
(744,134,o),
(818,209,o),
(818,377,c),
(818,562,o),
(672,724,o),
(454,724,cs),
(253,724,o),
(70,560,o),
(70,360,cs),
(70,139,o),
(233,-25,o),
(454,-25,cs)
);
},
{
closed = 1;
nodes = (
(423,196,o),
(407,222,o),
(407,274,c),
(409,327,o),
(439,359,o),
(495,372,c),
(496,372,l),
(496,223,l),
(483,205,o),
(469,196,o),
(454,196,c)
);
}
);
width = 888;
}
);
metricLeft = O;
metricRight = O;
unicode = 64;
},
{
glyphname = ampersand;
lastChange = "2026-06-03 23:46:39 +0000";
layers = (
{
guides = (
{
angle = 129.8196;
pos = (535,203);
},
{
angle = 129.4911;
pos = (354,163);
}
);
layerId = m01;
shapes = (
{
closed = 1;
nodes = (
(321,-15,o),
(385,9,o),
(443,55,c),
(487,1,l),
(703,1,l),
(367,404,l),
(471,439,o),
(524,493,o),
(524,566,cs),
(524,659,o),
(438,706,o),
(342,706,cs),
(226,706,o),
(131,651,o),
(131,542,cs),
(131,474,o),
(149,411,o),
(193,357,c),
(86,306,o),
(37,255,o),
(40,165,cs),
(40,45,o),
(143,-15,o),
(249,-15,cs)
);
},
{
closed = 1;
nodes = (
(358,31,o),
(291,48,o),
(236,115,c),
(192,175,o),
(186,247,o),
(220,325,c),
(425,76,l)
);
},
{
closed = 1;
nodes = (
(601,217,o),
(629,269,o),
(625,348,c),
(592,348,l),
(594,264,o),
(568,222,o),
(530,180,c),
(556,164,l)
);
},
{
closed = 1;
nodes = (
(298,484,o),
(274,537,o),
(274,590,cs),
(274,647,o),
(295,675,o),
(336,675,cs),
(377,675,o),
(398,641,o),
(398,572,cs),
(398,525,o),
(380,478,o),
(344,431,c)
);
},
{
closed = 1;
nodes = (
(669,300,l),
(669,393,l),
(479,393,l),
(555,300,l)
);
}
);
width = 743;
}
);
unicode = 38;
},
{
glyphname = paragraph;
lastChange = "2026-06-11 00:40:42 +0000";
layers = (
{
layerId = m01;
shapes = (
{
closed = 1;
nodes = (
(286,308,l),
(286,700,l),
(247,700,l),
(116,700,o),
(50,613,o),
(50,503,c),
(50,394,o),
(116,308,o),
(247,308,c)
);
},
{
closed = 1;
nodes = (
(329,-66,l),
(329,700,l),
(279,700,l),
(279,-66,l)
);
},
{
closed = 1;
nodes = (
(469,-66,l),
(469,700,l),
(419,700,l),
(419,-66,l)
);
},
{
closed = 1;
nodes = (
(549,664,l),
(549,700,l),
(287,700,l),
(287,664,l)
);
}
);
width = 629;
}
);
metricLeft = "=|P";
metricRight = L;
unicode = 182;
},
{
glyphname = section;
lastChange = "2026-06-11 00:33:17 +0000";
layers = (
{
layerId = m01;
shapes = (
{
closed = 1;
nodes = (
(419,-35,o),
(484,36,o),
(484,121,cs),
(485,167,o),
(464,204,o),
(423,234,c),
(482,267,o),
(512,313,o),
(513,374,cs),
(513,541,o),
(231,528,o),
(231,653,cs),
(231,698,o),
(252,720,o),
(294,720,cs),
(340,720,o),
(365,681,o),
(369,601,c),
(476,601,l),
(476,695,l),
(446,722,o),
(386,746,o),
(294,746,cs),
(196,746,o),
(104,698,o),
(104,602,cs),
(105,550,o),
(123,511,o),
(156,483,c),
(98,443,o),
(70,414,o),
(70,348,cs),
(70,157,o),
(352,193,o),
(352,61,cs),
(352,18,o),
(330,-6,o),
(288,-6,cs),
(236,-6,o),
(217,35,o),
(209,117,c),
(101,117,l),
(101,16,l),
(156,-18,o),
(219,-35,o),
(288,-35,cs)
);
},
{
closed = 1;
nodes = (
(201,359,l),
(150,391,o),
(150,424,o),
(185,466,c),
(352,380,ls),
(434,338,o),
(435,300,o),
(398,249,c)
);
}
);
width = 583;
}
);
metricLeft = S;
metricRight = S;
unicode = 167;
},
{
glyphname = copyright;
lastChange = "2026-06-11 00:43:32 +0000";
layers = (
{
layerId = m01;
shapes = (
{
attr = {
strokePos = 1;
strokeWidth = 50;
};
closed = 1;
nodes = (
(647,-20,o),
(813,146,o),
(813,352,cs),
(813,557,o),
(647,723,o),
(442,723,c),
(236,723,o),
(70,557,o),
(70,352,cs),
(70,146,o),
(236,-20,o),
(442,-20,cs)
);
},
{
alignment = -1;
pos = (153,117);
ref = c;
}
);
width = 883;
}
);
metricLeft = O;
metricRight = O;
unicode = 169;
},
{
glyphname = registered;
lastChange = "2026-06-11 23:47:58 +0000";
layers = (
{
layerId = m01;
shapes = (
{
attr = {
strokePos = "1";
strokeWidth = 50;
};
closed = 1;
nodes = (
(413,274,o),
(514,375,o),
(514,499,cs),
(514,623,o),
(413,723,o),
(290,723,c),
(165,723,o),
(65,623,o),
(65,499,cs),
(65,375,o),
(165,274,o),
(290,274,cs)
);
},
{
closed = 1;
nodes = (
(209,613,l),
(304,613,l),
(363,613,o),
(382,579,o),
(382,551,c),
(382,516,o),
(359,500,o),
(326,491,c),
(390,386,l),
(324,386,l),
(269,484,l),
(269,386,l),
(210,386,l)
);
},
{
closed = 1;
nodes = (
(294,510,o),
(323,516,o),
(323,552,c),
(323,582,o),
(304,593,o),
(269,593,c),
(270,510,l)
);
}
);
width = 579;
}
);
metricLeft = o;
metricRight = o;
unicode = 174;
},
{
glyphname = degree;
lastChange = "2026-06-11 23:47:58 +0000";
layers = (
{
layerId = m01;
shapes = (
{
attr = {
strokePos = "1";
strokeWidth = 60;
};
closed = 1;
nodes = (
(269,431,o),
(328,490,o),
(328,563,cs),
(328,635,o),
(269,694,o),
(197,694,c),
(124,694,o),
(65,635,o),
(65,563,cs),
(65,490,o),
(124,431,o),
(197,431,cs)
);
}
);
width = 393;
}
);
metricLeft = o;
metricRight = o;
unicode = 176;
},
{
glyphname = bar;
lastChange = "2026-06-11 00:34:04 +0000";
layers = (
{
layerId = m01;
shapes = (
{
attr = {
strokeWidth = 80;
};
closed = 0;
nodes = (
(150,-164,l),
(150,708,l)
);
}
);
width = 300;
}
);
metricLeft = H;
metricRight = H;
unicode = 124;
},
{
glyphname = brokenbar;
lastChange = "2026-06-11 00:34:10 +0000";
layers = (
{
layerId = m01;
shapes = (
{
attr = {
strokeWidth = 80;
};
closed = 0;
nodes = (
(150,346,l),
(150,708,l)
);
},
{
attr = {
strokeWidth = 80;
};
closed = 0;
nodes = (
(150,-164,l),
(150,203,l)
);
}
);
width = 300;
}
);
metricLeft = H;
metricRight = H;
unicode = 166;
},
{
glyphname = dagger;
lastChange = "2026-06-11 00:38:58 +0000";
layers = (
{
layerId = m01;
shapes = (
{
closed = 1;
nodes = (
(213,156,l),
(243,671,l),
(243,741,l),
(134,741,l),
(134,670,l),
(164,156,l)
);
},
{
closed = 1;
nodes = (
(69,519,o),
(117,529,o),
(166,529,c),
(166,587,l),
(117,587,o),
(69,597,o),
(20,617,c),
(20,499,l)
);
},
{
closed = 1;
nodes = (
(356,617,l),
(307,597,o),
(259,587,o),
(210,587,c),
(210,529,l),
(259,529,o),
(307,519,o),
(356,499,c)
);
}
);
width = 376;
}
);
unicode = 8224;
},
{
glyphname = daggerdbl;
lastChange = "2026-06-11 00:39:08 +0000";
layers = (
{
layerId = m01;
shapes = (
{
closed = 1;
nodes = (
(242,154,l),
(242,225,l),
(232,400,l),
(232,495,l),
(242,670,l),
(242,741,l),
(133,741,l),
(133,670,l),
(143,495,l),
(143,400,l),
(133,225,l),
(133,154,l)
);
},
{
closed = 1;
nodes = (
(68,286,o),
(117,296,o),
(165,296,c),
(165,354,l),
(117,354,o),
(68,364,o),
(20,384,c),
(20,266,l)
);
},
{
closed = 1;
nodes = (
(355,384,l),
(307,364,o),
(258,354,o),
(210,354,c),
(210,296,l),
(258,296,o),
(307,286,o),
(355,266,c)
);
},
{
closed = 1;
nodes = (
(68,531,o),
(117,541,o),
(165,541,c),
(165,599,l),
(117,599,o),
(68,609,o),
(20,629,c),
(20,511,l)
);
},
{
closed = 1;
nodes = (
(355,629,l),
(307,609,o),
(258,599,o),
(210,599,c),
(210,541,l),
(258,541,o),
(307,531,o),
(355,511,c)
);
}
);
width = 375;
}
);
metricLeft = dagger;
metricRight = dagger;
unicode = 8225;
},
{
glyphname = cent;
lastChange = "2026-06-11 23:47:58 +0000";
layers = (
{
layerId = m01;
shapes = (
{
closed = 1;
nodes = (
(364,-19,o),
(422,-2,o),
(474,33,c),
(449,155,l),
(407,155,l),
(387,59,o),
(356,12,o),
(312,12,cs),
(245,12,o),
(212,92,o),
(212,252,cs),
(212,384,o),
(242,468,o),
(302,468,cs),
(352,468,o),
(384,420,o),
(400,326,c),
(442,326,l),
(469,451,l),
(422,481,o),
(369,497,o),
(302,497,cs),
(165,497,o),
(65,406,o),
(65,252,cs),
(65,87,o),
(152,-18,o),
(302,-18,cs)
);
},
{
closed = 1;
nodes = (
(318,-94,l),
(318,-6,l),
(278,-6,l),
(278,-94,l)
);
},
{
closed = 1;
nodes = (
(318,486,l),
(318,574,l),
(278,574,l),
(278,486,l)
);
}
);
width = 539;
}
);
metricLeft = o;
metricRight = o;
unicode = 162;
},
{
glyphname = currency;
lastChange = "2026-06-11 23:47:58 +0000";
layers = (
{
layerId = m01;
shapes = (
{
closed = 1;
nodes = (
(415,141,o),
(507,233,o),
(507,346,cs),
(507,458,o),
(415,550,o),
(303,550,cs),
(190,550,o),
(98,458,o),
(98,346,cs),
(98,233,o),
(190,141,o),
(303,141,cs)
);
},
{
closed = 1;
nodes = (
(167,106,l),
(167,128,o),
(176,151,o),
(195,174,c),
(167,208,l),
(132,236,l),
(110,217,o),
(87,208,o),
(65,208,c),
(65,106,l)
);
},
{
closed = 1;
nodes = (
(541,106,l),
(541,208,l),
(519,208,o),
(496,217,o),
(474,236,c),
(439,208,l),
(411,174,l),
(430,151,o),
(439,128,o),
(439,106,c)
);
},
{
closed = 1;
nodes = (
(242,235,o),
(192,285,o),
(192,346,cs),
(192,407,o),
(242,457,o),
(303,457,cs),
(364,457,o),
(414,407,o),
(414,346,cs),
(414,285,o),
(364,235,o),
(303,235,cs)
);
},
{
closed = 1;
nodes = (
(167,483,l),
(195,517,l),
(176,540,o),
(167,563,o),
(167,585,c),
(65,585,l),
(65,483,l),
(87,483,o),
(110,474,o),
(132,455,c)
);
},
{
closed = 1;
nodes = (
(496,474,o),
(519,483,o),
(541,483,c),
(541,585,l),
(439,585,l),
(439,563,o),
(430,540,o),
(411,517,c),
(439,483,l),
(474,455,l)
);
}
);
width = 606;
}
);
metricLeft = o;
metricRight = o;
unicode = 164;
},
{
glyphname = dollar;
lastChange = "2026-06-11 00:32:54 +0000";
layers = (
{
layerId = m01;
shapes = (
{
closed = 1;
nodes = (
(505,-13,o),
(607,68,o),
(607,204,cs),
(607,458,o),
(212,408,o),
(212,578,cs),
(212,653,o),
(255,691,o),
(340,691,cs),
(480,688,o),
(519,475,o),
(516,478,c),
(526,478,l),
(592,633,l),
(518,689,o),
(435,716,o),
(341,716,cs),
(197,716,o),
(88,645,o),
(88,518,cs),
(88,253,o),
(480,309,o),
(480,132,cs),
(480,52,o),
(436,16,o),
(347,16,cs),
(233,16,o),
(175,158,o),
(149,246,c),
(139,246,l),
(70,86,l),
(134,18,o),
(264,-13,o),
(351,-13,cs)
);
},
{
closed = 1;
nodes = (
(364,-81,l),
(364,783,l),
(314,783,l),
(314,-81,l)
);
}
);
width = 677;
}
);
metricLeft = S;
metricRight = S;
unicode = 36;
},
{
glyphname = euro;
lastChange = "2026-06-11 00:42:14 +0000";
layers = (
{
layerId = m01;
shapes = (
{
closed = 1;
nodes = (
(538,-8,o),
(624,16,o),
(683,64,c),
(659,209,l),
(643,209,l),
(597,85,o),
(542,22,o),
(472,22,cs),
(363,22,o),
(308,136,o),
(308,365,cs),
(308,578,o),
(361,684,o),
(467,684,cs),
(538,684,o),
(591,620,o),
(626,492,c),
(641,492,l),
(684,642,l),
(610,690,o),
(535,714,o),
(461,714,cs),
(262,714,o),
(138,573,o),
(138,357,cs),
(138,136,o),
(247,-8,o),
(466,-8,cs)
);
},
{
closed = 1;
nodes = (
(529,291,l),
(545,338,l),
(66,338,l),
(50,291,l)
);
},
{
closed = 1;
nodes = (
(560,400,l),
(576,447,l),
(87,447,l),
(71,400,l)
);
}
);
width = 754;
}
);
metricLeft = "=C-20";
metricRight = C;
unicode = 8364;
},
{
glyphname = hryvnia;
lastChange = "2026-06-11 00:41:11 +0000";
layers = (
{
layerId = m01;
shapes = (
{
closed = 1;
nodes = (
(463,-10,o),
(546,67,o),
(535,214,c),
(402,214,l),
(413,80,o),
(386,14,o),
(319,14,c),
(264,14,o),
(236,65,o),
(236,152,c),
(239,322,o),
(537,345,o),
(538,542,c),
(538,642,o),
(457,707,o),
(317,707,c),
(173,707,o),
(110,648,o),
(117,509,c),
(243,509,l),
(234,627,o),
(261,684,o),
(316,684,c),
(361,684,o),
(398,634,o),
(398,567,c),
(398,416,o),
(94,383,o),
(94,172,c),
(94,71,o),
(169,-10,o),
(320,-10,c)
);
},
{
closed = 1;
nodes = (
(562,278,l),
(562,328,l),
(70,328,l),
(70,278,l)
);
},
{
closed = 1;
nodes = (
(562,401,l),
(562,451,l),
(70,451,l),
(70,401,l)
);
}
);
width = 632;
}
);
metricLeft = S;
metricRight = S;
unicode = 8372;
},
{
glyphname = rupeeIndian;
lastChange = "2026-06-12 01:24:02 +0000";
layers = (
{
anchors = (
{
name = bottom;
pos = (208,0);
},
{
name = top;
pos = (208,700);
}
);
layerId = m01;
shapes = (
{
closed = 1;
nodes = (
(40,666,l),
(40,656,l),
(146,656,l),
(211,656,o),
(277,608,o),
(277,534,c),
(40,534,l),
(40,490,l),
(277,490,l),
(277,361,o),
(111,352,o),
(40,352,c),
(40,303,l),
(176,303,l),
(292,127,ls),
(299,116,o),
(300,106,o),
(287,103,cs),
(194,79,l),
(209,0,l),
(497,0,l),
(492,1,o),
(346,222,o),
(283,317,c),
(371,339,o),
(424,408,o),
(431,490,c),
(488,490,l),
(498,534,l),
(430,534,l),
(425,572,o),
(407,622,o),
(363,656,c),
(488,656,l),
(498,700,l),
(210,700,l),
(40,700,l)
);
}
);
width = 548;
}
);
metricLeft = "=R-30";
metricRight = R;
unicode = 8377;
},
{
glyphname = sterling;
lastChange = "2026-06-11 00:41:21 +0000";
layers = (
{
layerId = m01;
shapes = (
{
closed = 1;
nodes = (
(554,2,l),
(555,218,l),
(545,218,l),
(485,121,l),
(221,121,l),
(291,183,o),
(325,244,o),
(325,306,c),
(325,378,o),
(280,464,o),
(274,550,cs),
(269,624,o),
(296,686,o),
(361,686,c),
(419,686,o),
(458,620,o),
(476,490,c),
(517,490,l),
(582,617,l),
(515,681,o),
(442,713,o),
(361,713,c),
(200,713,o),
(120,644,o),
(120,506,c),
(116,411,o),
(199,301,o),
(199,199,c),
(198,134,o),
(158,75,o),
(81,24,c),
(81,2,l)
);
},
{
closed = 1;
nodes = (
(448,323,l),
(448,373,l),
(70,373,l),
(70,323,l)
);
}
);
width = 652;
}
);
metricLeft = S;
metricRight = S;
unicode = 163;
},
{
glyphname = won;
lastChange = "2026-06-11 00:35:34 +0000";
layers = (
{
layerId = m01;
shapes = (
{
closed = 1;
nodes = (
(1010,173,l),
(1010,223,l),
(668,223,l),
(678,173,l)
);
},
{
ref = W;
},
{
closed = 1;
nodes = (
(451,173,l),
(471,223,l),
(129,223,l),
(129,173,l)
);
},
{
closed = 1;
nodes = (
(374,363,l),
(354,413,l),
(101,413,l),
(101,363,l)
);
},
{
closed = 1;
nodes = (
(1028,363,l),
(1028,413,l),
(916,413,l),
(898,363,l)
);
}
);
width = 1068;
}
);
metricLeft = W;
metricRight = W;
unicode = 8361;
},
{
glyphname = yen;
lastChange = "2026-06-11 00:35:39 +0000";
layers = (
{
layerId = m01;
shapes = (
{
closed = 1;
nodes = (
(573,117,l),
(573,167,l),
(136,167,l),
(136,117,l)
);
},
{
closed = 1;
nodes = (
(573,217,l),
(573,267,l),
(136,267,l),
(136,217,l)
);
},
{
ref = Y;
}
);
width = 666;
}
);
metricLeft = Y;
metricRight = Y;
unicode = 165;
},
{
glyphname = plus;
lastChange = "2026-06-06 20:47:08 +0000";
layers = (
{
layerId = m01;
shapes = (
{
closed = 1;
nodes = (
(279,121,l),
(279,508,l),
(188,508,l),
(188,121,l)
);
},
{
closed = 1;
nodes = (
(427,269,l),
(427,360,l),
(40,360,l),
(40,269,l)
);
}
);
width = 467;
}
);
unicode = 43;
},
{
glyphname = minus;
lastChange = "2026-06-11 02:26:35 +0000";
layers = (
{
layerId = m01;
shapes = (
{
closed = 1;
nodes = (
(427,270,l),
(427,361,l),
(40,361,l),
(40,270,l)
);
}
);
width = 467;
}
);
metricLeft = plus;
metricRight = plus;
unicode = 8722;
},
{
glyphname = multiply;
lastChange = "2026-06-11 02:27:02 +0000";
layers = (
{
layerId = m01;
shapes = (
{
closed = 1;
nodes = (
(30,420,l),
(94,484,l),
(230,349,l),
(165,284,l)
);
},
{
closed = 1;
nodes = (
(30,211,l),
(303,484,l),
(367,420,l),
(94,147,l)
);
},
{
closed = 1;
nodes = (
(182,268,l),
(246,332,l),
(367,211,l),
(303,147,l)
);
}
);
width = 397;
}
);
metricLeft = "=plus-10";
metricRight = "=plus-10";
unicode = 215;
},
{
glyphname = equal;
lastChange = "2026-06-11 02:26:35 +0000";
layers = (
{
layerId = m01;
shapes = (
{
closed = 1;
nodes = (
(427,360,l),
(427,451,l),
(40,451,l),
(40,360,l)
);
},
{
closed = 1;
nodes = (
(427,183,l),
(427,274,l),
(40,274,l),
(40,183,l)
);
}
);
width = 467;
}
);
metricLeft = plus;
metricRight = plus;
unicode = 61;
},
{
glyphname = notequal;
lastChange = "2026-06-11 02:26:35 +0000";
layers = (
{
layerId = m01;
shapes = (
{
attr = {
lineCapEnd = 4;
lineCapStart = 4;
strokeWidth = 70;
};
closed = 0;
nodes = (
(323,499,l),
(142,125,l)
);
},
{
pos = (0,-2);
ref = equal;
}
);
width = 467;
}
);
metricLeft = plus;
metricRight = plus;
unicode = 8800;
},
{
glyphname = less;
lastChange = "2026-06-11 02:31:09 +0000";
layers = (
{
layerId = m01;
shapes = (
{
closed = 1;
nodes = (
(442,176,l),
(150,302,l),
(442,421,l),
(442,532,l),
(50,330,l),
(50,274,l),
(442,65,l)
);
}
);
width = 502;
}
);
unicode = 60;
},
{
glyphname = lessequal;
lastChange = "2026-06-11 02:31:16 +0000";
layers = (
{
layerId = m01;
shapes = (
{
closed = 1;
nodes = (
(442,243,l),
(166,302,l),
(442,355,l),
(442,445,l),
(50,330,l),
(50,274,l),
(442,152,l)
);
},
{
attr = {
strokeWidth = 70;
};
closed = 0;
nodes = (
(60,90,l),
(442,90,l)
);
}
);
width = 502;
}
);
metricLeft = less;
metricRight = less;
unicode = 8804;
},
{
glyphname = plusminus;
lastChange = "2026-06-11 02:26:35 +0000";
layers = (
{
layerId = m01;
shapes = (
{
closed = 1;
nodes = (
(469,330,l),
(469,421,l),
(40,421,l),
(40,330,l)
);
},
{
closed = 1;
nodes = (
(469,109,l),
(469,200,l),
(40,200,l),
(40,109,l)
);
},
{
closed = 1;
nodes = (
(300,233,l),
(300,518,l),
(209,518,l),
(209,233,l)
);
}
);
width = 509;
}
);
metricLeft = plus;
metricRight = plus;
unicode = 177;
},
{
glyphname = approxequal;
lastChange = "2026-06-03 23:46:39 +0000";
layers = (
{
layerId = m01;
shapes = (
{
closed = 1;
nodes = (
(346,332,o),
(395,383,o),
(395,489,c),
(364,489,l),
(364,447,o),
(346,425,o),
(309,425,cs),
(258,426,o),
(219,492,o),
(149,492,cs),
(95,492,o),
(40,442,o),
(40,337,c),
(70,337,l),
(72,379,o),
(92,401,o),
(129,401,cs),
(171,401,o),
(224,332,o),
(289,332,cs)
);
},
{
closed = 1;
nodes = (
(356,159,o),
(405,210,o),
(405,316,c),
(374,316,l),
(374,274,o),
(356,252,o),
(319,252,cs),
(268,253,o),
(229,319,o),
(159,319,cs),
(105,319,o),
(50,269,o),
(50,164,c),
(80,164,l),
(82,206,o),
(102,228,o),
(139,228,cs),
(181,228,o),
(234,159,o),
(299,159,cs)
);
}
);
width = 445;
}
);
unicode = 8776;
},
{
glyphname = asciitilde;
lastChange = "2026-06-03 23:46:39 +0000";
layers = (
{
layerId = m01;
shapes = (
{
closed = 1;
nodes = (
(435,240,o),
(498,306,o),
(498,439,c),
(459,443,l),
(458,389,o),
(435,360,o),
(388,360,cs),
(321,362,o),
(271,447,o),
(181,447,cs),
(111,447,o),
(40,382,o),
(40,251,c),
(79,247,l),
(81,301,o),
(107,330,o),
(155,330,cs),
(209,330,o),
(278,240,o),
(362,240,cs)
);
}
);
width = 538;
}
);
unicode = 126;
},
{
glyphname = logicalnot;
lastChange = "2026-06-11 02:27:56 +0000";
layers = (
{
layerId = m01;
shapes = (
{
attr = {
strokeWidth = 80;
};
closed = 0;
nodes = (
(40,351,l),
(449,351,l),
(449,182,l)
);
}
);
width = 529;
}
);
metricLeft = plus;
metricRight = plus;
unicode = 172;
},
{
glyphname = asciicircum;
lastChange = "2026-06-03 23:46:39 +0000";
layers = (
{
layerId = m01;
shapes = (
{
closed = 1;
nodes = (
(122,347,l),
(221,584,l),
(325,347,l),
(407,347,l),
(239,701,l),
(204,701,l),
(40,347,l)
);
}
);
width = 447;
}
);
unicode = 94;
},
{
glyphname = infinity;
lastChange = "2026-06-11 02:37:51 +0000";
layers = (
{
layerId = m01;
shapes = (
{
closed = 1;
nodes = (
(254,101,o),
(305,132,o),
(352,194,c),
(403,132,o),
(451,101,o),
(504,101,cs),
(572,101,o),
(644,156,o),
(644,265,cs),
(644,374,o),
(572,427,o),
(504,427,cs),
(451,429,o),
(411,395,o),
(352,335,c),
(297,395,o),
(259,427,o),
(201,427,cs),
(136,427,o),
(60,374,o),
(60,265,cs),
(60,156,o),
(136,101,o),
(201,101,cs)
);
},
{
closed = 1;
nodes = (
(132,182,o),
(92,210,o),
(92,265,cs),
(92,320,o),
(132,347,o),
(170,347,cs),
(204,347,o),
(243,319,o),
(289,265,c),
(243,209,o),
(204,182,o),
(170,182,cs)
);
},
{
closed = 1;
nodes = (
(500,182,o),
(461,209,o),
(415,265,c),
(461,319,o),
(500,347,o),
(534,347,cs),
(572,347,o),
(612,320,o),
(612,265,cs),
(612,210,o),
(572,182,o),
(534,182,cs)
);
}
);
width = 704;
}
);
unicode = 8734;
},
{
glyphname = integral;
lastChange = "2026-06-03 23:46:39 +0000";
layers = (
{
layerId = m01;
shapes = (
{
closed = 1;
nodes = (
(256,-120,o),
(316,20,o),
(316,262,cs),
(316,452,o),
(284,704,o),
(339,704,cs),
(358,704,o),
(367,674,o),
(368,612,c),
(458,612,l),
(458,704,l),
(429,724,o),
(396,733,o),
(361,733,cs),
(242,733,o),
(179,593,o),
(182,351,cs),
(184,161,o),
(214,-91,o),
(159,-91,cs),
(140,-91,o),
(131,-61,o),
(130,1,c),
(40,1,l),
(40,-91,l),
(69,-111,o),
(102,-120,o),
(137,-120,cs)
);
}
);
width = 498;
}
);
unicode = 8747;
},
{
glyphname = increment;
lastChange = "2026-06-11 02:38:26 +0000";
layers = (
{
layerId = m01;
shapes = (
{
attr = {
strokePos = 1;
strokeWidth = 100;
};
closed = 1;
nodes = (
(673,-1,l),
(360,712,l),
(40,-1,l)
);
}
);
width = 713;
}
);
unicode = 8710;
},
{
glyphname = product;
lastChange = "2026-06-11 02:45:40 +0000";
layers = (
{
layerId = m01;
shapes = (
{
attr = {
strokePos = 0;
strokeWidth = 100;
};
closed = 0;
nodes = (
(122,-2,l),
(122,700,l),
(619,700,l),
(619,-2,l)
);
},
{
attr = {
strokePos = 0;
strokeWidth = 100;
};
closed = 0;
nodes = (
(50,700,l),
(690,700,l)
);
}
);
width = 740;
}
);
metricLeft = T;
metricRight = T;
unicode = 8719;
},
{
glyphname = summation;
lastChange = "2026-06-12 01:24:02 +0000";
layers = (
{
backgroundImage = {
imagePath = "../../../Downloads/Gemini_Generated_Image_rdcb5ardcb5ardcb.png";
pos = (-1832,-1390);
scale = (2.8334,2.8334);
};
layerId = m01;
shapes = (
{
closed = 1;
nodes = (
(608,-19,l),
(620,144,l),
(591,144,l),
(581,57,o),
(532,13,o),
(429,13,cs),
(197,13,l),
(401,341,l),
(197,669,l),
(429,669,ls),
(532,669,o),
(581,625,o),
(591,538,c),
(620,538,l),
(608,701,l),
(90,701,l),
(90,679,l),
(292,341,l),
(90,3,l),
(90,-19,l)
);
}
);
width = 710;
}
);
metricLeft = "=|E";
metricRight = E;
unicode = 8721;
},
{
glyphname = radical;
lastChange = "2026-06-11 02:41:35 +0000";
layers = (
{
layerId = m01;
shapes = (
{
closed = 1;
nodes = (
(321,0,l),
(476,528,l),
(492,590,o),
(525,602,o),
(584,601,c),
(642,601,l),
(666,700,l),
(495,700,l),
(327,130,l),
(218,379,l),
(50,379,l),
(50,349,l),
(104,349,l),
(255,0,l)
);
}
);
width = 716;
}
);
metricLeft = v;
metricRight = v;
unicode = 8730;
},
{
glyphname = partialdiff;
lastChange = "2026-06-14 20:36:59 +0000";
layers = (
{
layerId = m01;
shapes = (
{
closed = 1;
nodes = (
(472,-9,o),
(555,137,o),
(561,315,c),
(561,564,o),
(472,702,o),
(323,702,c),
(258,702,o),
(202,683,o),
(157,643,c),
(158,560,l),
(258,560,l),
(262,638,o),
(284,677,o),
(322,677,c),
(382,677,o),
(420,580,o),
(420,386,c),
(357,511,o),
(90,452,o),
(90,228,c),
(90,70,o),
(161,-9,o),
(303,-9,c)
);
},
{
closed = 1;
nodes = (
(254,17,o),
(229,89,o),
(229,232,c),
(229,356,o),
(278,418,o),
(334,418,c),
(369,418,o),
(397,391,o),
(420,335,c),
(420,123,o),
(382,17,o),
(305,17,c)
);
}
);
width = 651;
}
);
metricLeft = zero;
metricRight = zero;
unicode = 8706;
},
{
glyphname = micro;
lastChange = "2026-06-11 02:40:39 +0000";
layers = (
{
layerId = m01;
shapes = (
{
closed = 1;
nodes = (
(310,-8,o),
(349,19,o),
(383,71,c),
(402,0,l),
(525,0,l),
(525,470,l),
(366,470,l),
(366,98,l),
(352,70,o),
(331,55,o),
(305,55,cs),
(262,55,o),
(240,93,o),
(240,169,cs),
(240,470,l),
(80,470,l),
(80,163,ls),
(80,48,o),
(132,-8,o),
(236,-8,cs)
);
},
{
closed = 1;
nodes = (
(240,-134,l),
(240,266,l),
(80,266,l),
(80,-134,l)
);
},
{
closed = 1;
nodes = (
(571,0,l),
(571,14,l),
(516,39,l),
(511,0,l)
);
}
);
width = 621;
}
);
metricLeft = u;
metricRight = u;
unicode = 181;
},
{
glyphname = percent;
lastChange = "2026-06-11 02:39:56 +0000";
layers = (
{
layerId = m01;
shapes = (
{
closed = 1;
nodes = (
(168,0,l),
(632,702,l),
(594,702,l),
(130,0,l)
);
},
{
closed = 1;
nodes = (
(620,-5,o),
(696,51,o),
(696,164,c),
(696,275,o),
(620,331,o),
(537,331,c),
(452,331,o),
(375,275,o),
(375,164,c),
(375,51,o),
(452,-5,o),
(537,-5,c)
);
},
{
closed = 1;
nodes = (
(502,23,o),
(489,81,o),
(489,164,c),
(489,247,o),
(502,303,o),
(537,303,c),
(572,303,o),
(585,247,o),
(585,164,c),
(585,81,o),
(572,23,o),
(537,23,c)
);
},
{
closed = 1;
nodes = (
(315,375,o),
(391,431,o),
(391,544,c),
(391,655,o),
(315,711,o),
(232,711,c),
(147,711,o),
(70,655,o),
(70,544,c),
(70,431,o),
(147,375,o),
(232,375,c)
);
},
{
closed = 1;
nodes = (
(197,403,o),
(184,461,o),
(184,544,c),
(184,627,o),
(197,683,o),
(232,683,c),
(267,683,o),
(280,627,o),
(280,544,c),
(280,461,o),
(267,403,o),
(232,403,c)
);
}
);
width = 766;
}
);
unicode = 37;
},
{
glyphname = perthousand;
lastChange = "2026-06-11 02:40:06 +0000";
layers = (
{
layerId = m01;
shapes = (
{
closed = 1;
nodes = (
(168,0,l),
(632,702,l),
(594,702,l),
(130,0,l)
);
},
{
closed = 1;
nodes = (
(620,-5,o),
(696,51,o),
(696,164,c),
(696,275,o),
(620,331,o),
(537,331,c),
(452,331,o),
(375,275,o),
(375,164,c),
(375,51,o),
(452,-5,o),
(537,-5,c)
);
},
{
closed = 1;
nodes = (
(502,23,o),
(489,81,o),
(489,164,c),
(489,247,o),
(502,303,o),
(537,303,c),
(572,303,o),
(585,247,o),
(585,164,c),
(585,81,o),
(572,23,o),
(537,23,c)
);
},
{
closed = 1;
nodes = (
(315,375,o),
(391,431,o),
(391,544,c),
(391,655,o),
(315,711,o),
(232,711,c),
(147,711,o),
(70,655,o),
(70,544,c),
(70,431,o),
(147,375,o),
(232,375,c)
);
},
{
closed = 1;
nodes = (
(197,403,o),
(184,461,o),
(184,544,c),
(184,627,o),
(197,683,o),
(232,683,c),
(267,683,o),
(280,627,o),
(280,544,c),
(280,461,o),
(267,403,o),
(232,403,c)
);
},
{
closed = 1;
nodes = (
(981,-13,o),
(1057,43,o),
(1057,156,c),
(1057,267,o),
(981,323,o),
(898,323,c),
(813,323,o),
(736,267,o),
(736,156,c),
(736,43,o),
(813,-13,o),
(898,-13,c)
);
},
{
closed = 1;
nodes = (
(863,15,o),
(850,73,o),
(850,156,c),
(850,239,o),
(863,295,o),
(898,295,c),
(933,295,o),
(946,239,o),
(946,156,c),
(946,73,o),
(933,15,o),
(898,15,c)
);
}
);
width = 1127;
}
);
metricLeft = percent;
metricRight = percent;
unicode = 8240;
},
{
glyphname = rightArrow;
lastChange = "2026-06-11 02:23:54 +0000";
layers = (
{
guides = (
{
pos = (432,543);
}
);
layerId = m01;
shapes = (
{
closed = 1;
nodes = (
(837,354,l),
(364,678,l),
(315,484,l),
(422,474,l),
(425,484,ls),
(435,517,o),
(442,513,o),
(465,498,cs),
(678,353,l),
(465,206,ls),
(443,191,o),
(434,187,o),
(425,219,cs),
(422,230,l),
(315,224,l),
(364,30,l)
);
},
{
closed = 1;
nodes = (
(500,292,l),
(715,314,l),
(715,390,l),
(500,412,l),
(80,412,l),
(80,292,l)
);
}
);
width = 887;
}
);
unicode = 8594;
},
{
glyphname = leftRightArrow;
lastChange = "2026-06-11 02:25:50 +0000";
layers = (
{
layerId = m01;
shapes = (
{
closed = 1;
nodes = (
(874,291,l),
(874,411,l),
(334,411,l),
(209,397,l),
(209,305,l),
(334,291,l)
);
},
{
closed = 1;
nodes = (
(921,291,l),
(1046,305,l),
(1046,397,l),
(921,411,l),
(381,411,l),
(381,291,l)
);
},
{
closed = 1;
nodes = (
(1205,351,l),
(732,675,l),
(683,481,l),
(790,471,l),
(793,481,ls),
(803,514,o),
(810,510,o),
(833,495,cs),
(1046,350,l),
(833,203,ls),
(811,188,o),
(802,184,o),
(793,216,cs),
(790,227,l),
(683,221,l),
(732,27,l)
);
},
{
closed = 1;
nodes = (
(572,221,l),
(465,227,l),
(462,216,ls),
(453,184,o),
(444,188,o),
(422,203,cs),
(209,350,l),
(422,495,ls),
(445,510,o),
(452,514,o),
(462,481,cs),
(465,471,l),
(572,481,l),
(523,675,l),
(50,351,l),
(523,27,l)
);
}
);
width = 1255;
}
);
unicode = 8596;
},
{
glyphname = dottedCircle;
lastChange = "2026-06-11 02:37:23 +0000";
layers = (
{
anchors = (
{
name = bottom;
pos = (324,41);
},
{
name = center;
pos = (324,293);
},
{
name = ogonek;
pos = (455,79);
},
{
name = top;
pos = (325,556);
},
{
name = topright;
pos = (532,437);
}
);
layerId = m01;
shapes = (
{
closed = 1;
nodes = (
(570,363,o),
(577,382,o),
(571,398,cs),
(564,415,o),
(545,423,o),
(529,416,cs),
(512,410,o),
(504,391,o),
(512,374,cs),
(518,358,o),
(538,350,o),
(553,357,cs)
);
},
{
closed = 1;
nodes = (
(150,97,o),
(170,97,o),
(182,109,cs),
(195,122,o),
(195,142,o),
(182,154,cs),
(170,167,o),
(150,167,o),
(137,154,cs),
(125,142,o),
(125,122,o),
(137,109,cs)
);
},
{
closed = 1;
nodes = (
(138,184,o),
(146,203,o),
(138,220,cs),
(132,236,o),
(113,244,o),
(97,237,cs),
(80,231,o),
(73,212,o),
(79,196,cs),
(86,179,o),
(105,171,o),
(121,178,cs)
);
},
{
closed = 1;
nodes = (
(240,45,o),
(259,53,o),
(265,69,cs),
(273,85,o),
(265,104,o),
(248,110,cs),
(231,117,o),
(212,109,o),
(206,93,cs),
(199,77,o),
(207,58,o),
(223,51,cs)
);
},
{
closed = 1;
nodes = (
(343,32,o),
(356,46,o),
(356,62,cs),
(356,81,o),
(343,95,o),
(325,94,cs),
(307,95,o),
(294,81,o),
(294,62,cs),
(294,46,o),
(307,32,o),
(325,31,cs)
);
},
{
closed = 1;
nodes = (
(109,266,o),
(123,279,o),
(123,297,cs),
(123,315,o),
(109,328,o),
(91,328,cs),
(74,328,o),
(60,315,o),
(60,297,cs),
(60,279,o),
(74,266,o),
(91,266,cs)
);
},
{
closed = 1;
nodes = (
(113,349,o),
(132,357,o),
(138,374,cs),
(145,391,o),
(137,410,o),
(121,416,cs),
(105,423,o),
(86,415,o),
(79,399,cs),
(73,382,o),
(81,363,o),
(97,357,cs)
);
},
{
closed = 1;
nodes = (
(443,58,o),
(451,77,o),
(444,93,cs),
(439,110,o),
(420,118,o),
(402,110,cs),
(386,104,o),
(378,85,o),
(385,69,cs),
(390,52,o),
(410,45,o),
(426,51,cs)
);
},
{
closed = 1;
nodes = (
(150,427,o),
(170,427,o),
(182,440,cs),
(195,452,o),
(195,472,o),
(182,485,cs),
(170,497,o),
(150,497,o),
(137,485,cs),
(125,472,o),
(125,452,o),
(137,440,cs)
);
},
{
closed = 1;
nodes = (
(480,97,o),
(500,97,o),
(513,109,cs),
(525,122,o),
(525,142,o),
(513,154,cs),
(500,167,o),
(480,167,o),
(468,154,cs),
(455,142,o),
(455,122,o),
(468,109,cs)
);
},
{
closed = 1;
nodes = (
(264,490,o),
(272,510,o),
(265,525,cs),
(260,542,o),
(240,549,o),
(224,543,cs),
(207,536,o),
(199,517,o),
(206,501,cs),
(211,484,o),
(230,476,o),
(248,484,cs)
);
},
{
closed = 1;
nodes = (
(545,171,o),
(564,179,o),
(571,195,cs),
(577,212,o),
(569,231,o),
(553,237,cs),
(537,245,o),
(518,237,o),
(512,220,cs),
(505,203,o),
(513,184,o),
(529,178,cs)
);
},
{
closed = 1;
nodes = (
(576,266,o),
(590,279,o),
(590,297,cs),
(590,315,o),
(576,328,o),
(559,328,cs),
(541,328,o),
(527,315,o),
(527,297,cs),
(527,279,o),
(541,266,o),
(559,266,cs)
);
},
{
closed = 1;
nodes = (
(343,499,o),
(356,513,o),
(356,532,cs),
(356,548,o),
(343,562,o),
(325,563,cs),
(307,562,o),
(294,548,o),
(294,532,cs),
(294,513,o),
(307,499,o),
(325,500,cs)
);
},
{
closed = 1;
nodes = (
(450,502,o),
(449,523,o),
(438,536,cs),
(424,548,o),
(403,547,o),
(392,535,cs),
(378,524,o),
(379,503,o),
(392,491,cs),
(405,478,o),
(426,478,o),
(437,490,cs)
);
},
{
closed = 1;
nodes = (
(480,427,o),
(500,427,o),
(513,440,cs),
(525,452,o),
(525,472,o),
(513,485,cs),
(500,497,o),
(480,497,o),
(468,485,cs),
(455,472,o),
(455,452,o),
(468,440,cs)
);
}
);
width = 650;
}
);
unicode = 9676;
},
{
glyphname = lozenge;
lastChange = "2026-06-11 02:38:15 +0000";
layers = (
{
layerId = m01;
shapes = (
{
attr = {
strokePos = 1;
strokeWidth = 80;
};
closed = 1;
nodes = (
(478,319,l),
(269,627,l),
(60,319,l),
(269,5,l)
);
}
);
width = 538;
}
);
metricLeft = infinity;
metricRight = infinity;
unicode = 9674;
},
{
glyphname = "brevecomb-cy";
lastChange = "2026-06-03 23:46:39 +0000";
layers = (
{
anchors = (
{
name = _top;
pos = (156,506);
},
{
name = top;
pos = (156,708);
}
);
layerId = m01;
shapes = (
{
closed = 1;
nodes = (
(90,664,o),
(63,687,o),
(48,708,c),
(20,680,l),
(84,569,o),
(228,569,o),
(292,680,c),
(264,708,l),
(249,687,o),
(220,664,o),
(187,659,cs),
(177,657,o),
(166,676,o),
(155,676,cs),
(143,676,o),
(132,657,o),
(121,659,cs)
);
}
);
width = 312;
}
);
},
{
glyphname = gravecomb;
lastChange = "2026-06-04 03:30:18 +0000";
layers = (
{
anchors = (
{
name = _top;
pos = (97,530);
},
{
name = top;
pos = (85,764);
}
);
layerId = m01;
shapes = (
{
closed = 1;
nodes = (
(142,588,l),
(125,637,l),
(116,669,o),
(124,686,o),
(159,699,c),
(136,764,l),
(10,764,l),
(65,588,l)
);
}
);
width = 169;
}
);
unicode = 768;
},
{
glyphname = acutecomb;
lastChange = "2026-06-04 03:29:30 +0000";
layers = (
{
anchors = (
{
name = _top;
pos = (75,530);
},
{
name = top;
pos = (85,764);
}
);
layerId = m01;
shapes = (
{
closed = 1;
nodes = (
(104,588,l),
(159,764,l),
(33,764,l),
(10,699,l),
(45,686,o),
(53,669,o),
(44,637,c),
(27,588,l)
);
}
);
width = 169;
}
);
unicode = 769;
},
{
glyphname = hungarumlautcomb;
lastChange = "2026-06-03 23:46:39 +0000";
layers = (
{
anchors = (
{
name = _top;
pos = (172,526);
},
{
name = top;
pos = (172,769);
}
);
layerId = m01;
shapes = (
{
closed = 1;
nodes = (
(271,583,l),
(346,769,l),
(200,769,l),
(177,704,l),
(223,691,l),
(241,685,o),
(246,668,o),
(236,642,c),
(214,583,l)
);
},
{
closed = 1;
nodes = (
(104,583,l),
(179,769,l),
(27,769,l),
(10,704,l),
(56,691,l),
(74,685,o),
(79,668,o),
(69,642,c),
(47,583,l)
);
}
);
width = 356;
}
);
unicode = 779;
},
{
glyphname = caroncomb.alt;
lastChange = "2026-06-03 23:46:39 +0000";
layers = (
{
anchors = (
{
name = _topright;
pos = (-23,849);
}
);
layerId = m01;
shapes = (
{
closed = 1;
nodes = (
(101,578,l),
(126,764,l),
(20,764,l),
(44,578,l)
);
}
);
width = 146;
}
);
},
{
glyphname = circumflexcomb;
lastChange = "2026-06-05 01:53:24 +0000";
layers = (
{
anchors = (
{
name = _top;
pos = (177,499);
},
{
name = top;
pos = (177,737);
},
{
name = top_viet;
pos = (177,786);
}
);
layerId = m01;
shapes = (
{
closed = 1;
nodes = (
(177,621,l),
(322,553,l),
(334,567,l),
(177,737,l),
(20,567,l),
(32,553,l)
);
}
);
width = 354;
}
);
unicode = 770;
},
{
glyphname = brevecomb;
lastChange = "2026-06-03 23:46:39 +0000";
layers = (
{
anchors = (
{
name = _top;
pos = (156,506);
},
{
name = top;
pos = (156,708);
}
);
layerId = m01;
shapes = (
{
closed = 1;
nodes = (
(84,569,o),
(228,569,o),
(292,680,c),
(264,708,l),
(224,652,o),
(88,652,o),
(48,708,c),
(20,680,l)
);
}
);
width = 312;
}
);
unicode = 774;
},
{
glyphname = ringcomb;
lastChange = "2026-06-08 00:22:32 +0000";
layers = (
{
anchors = (
{
name = _top;
pos = (108,499);
},
{
name = top;
pos = (108,735);
}
);
layerId = m01;
shapes = (
{
attr = {
strokePos = 1;
strokeWidth = 60;
};
closed = 1;
nodes = (
(156,560,o),
(195,599,o),
(195,648,cs),
(195,696,o),
(156,735,o),
(108,735,cs),
(59,735,o),
(20,696,o),
(20,648,cs),
(20,599,o),
(59,560,o),
(108,560,cs)
);
}
);
width = 215;
}
);
unicode = 778;
},
{
glyphname = macroncomb;
lastChange = "2026-05-26 01:01:02 +0000";
layers = (
{
anchors = (
{
name = _top;
pos = (157,512);
},
{
name = top;
pos = (157,690);
}
);
layerId = m01;
shapes = (
{
attr = {
strokeWidth = 70;
};
closed = 0;
nodes = (
(20,655,l),
(294,655,l)
);
}
);
width = 314;
}
);
unicode = 772;
},
{
glyphname = hookabovecomb;
lastChange = "2026-06-08 02:21:21 +0000";
layers = (
{
anchors = (
{
name = _top;
pos = (128,470);
},
{
name = top;
pos = (128,745);
}
);
layerId = m01;
shapes = (
{
closed = 1;
nodes = (
(138,517,l),
(138,530,l),
(138,560,o),
(236,564,o),
(236,652,c),
(236,699,o),
(200,729,o),
(127,729,c),
(56,729,o),
(20,699,o),
(20,637,c),
(91,622,l),
(90,682,o),
(108,703,o),
(123,703,c),
(142,703,o),
(151,689,o),
(151,649,c),
(151,588,o),
(110,589,o),
(110,542,c),
(110,510,l)
);
}
);
width = 256;
}
);
unicode = 777;
},
{
glyphname = horncomb;
lastChange = "2026-06-03 23:46:39 +0000";
layers = (
{
anchors = (
{
name = _topright;
pos = (-10,470);
},
{
name = topright;
pos = (215,720);
}
);
layerId = m01;
shapes = (
{
closed = 1;
nodes = (
(116,509,o),
(197,552,o),
(195,658,cs),
(194,693,o),
(167,720,o),
(132,720,cs),
(98,720,o),
(70,693,o),
(70,658,cs),
(70,623,o),
(98,596,o),
(132,596,cs),
(136,596,o),
(139,596,o),
(142,597,c),
(142,543,o),
(52,522,o),
(10,515,c),
(16,497,l)
);
}
);
width = 205;
}
);
unicode = 795;
},
{
glyphname = cedillacomb;
lastChange = "2026-06-03 23:46:39 +0000";
layers = (
{
anchors = (
{
name = _bottom;
pos = (109,0);
},
{
name = bottom;
pos = (136,-197);
}
);
layerId = m01;
shapes = (
{
closed = 1;
nodes = (
(243,-172,l),
(139,1,l),
(88,1,l),
(115,-54,ls),
(130,-84,o),
(130,-92,o),
(101,-96,cs),
(20,-108,l),
(47,-172,l)
);
}
);
width = 263;
}
);
unicode = 807;
},
{
glyphname = ogonekcomb;
lastChange = "2026-06-04 21:22:11 +0000";
layers = (
{
anchors = (
{
name = _ogonek;
pos = (187,0);
}
);
layerId = m01;
shapes = (
{
closed = 1;
nodes = (
(191,-148,l),
(149,-136,l),
(117,-128,o),
(115,-108,o),
(121,-90,c),
(146,1,l),
(90,1,l),
(23,-140,l),
(15,-162,o),
(26,-170,o),
(40,-172,c),
(172,-191,l)
);
}
);
width = 211;
}
);
unicode = 808;
},
{
glyphname = strokeshortcomb;
lastChange = "2026-05-27 02:21:55 +0000";
layers = (
{
anchors = (
{
name = _center;
pos = (173,515);
}
);
layerId = m01;
shapes = (
{
attr = {
strokeWidth = 60;
};
closed = 0;
nodes = (
(326,515,l),
(20,515,l)
);
}
);
width = 346;
}
);
unicode = 821;
},
{
glyphname = strokelongcomb;
lastChange = "2026-05-27 02:26:21 +0000";
layers = (
{
anchors = (
{
name = _center;
pos = (379,515);
}
);
layerId = m01;
shapes = (
{
attr = {
strokeWidth = 60;
};
closed = 0;
nodes = (
(738,515,l),
(20,515,l)
);
}
);
width = 758;
}
);
unicode = 822;
},
{
glyphname = slashshortcomb;
lastChange = "2026-05-27 02:45:22 +0000";
layers = (
{
anchors = (
{
name = _center;
pos = (218,401);
}
);
layerId = m01;
shapes = (
{
attr = {
lineCapEnd = 4;
lineCapStart = 4;
strokeWidth = 60;
};
closed = 0;
nodes = (
(400,561,l),
(62,217,l)
);
}
);
width = 462;
}
);
unicode = 823;
},
{
glyphname = slashlongcomb;
lastChange = "2026-05-27 02:21:55 +0000";
layers = (
{
anchors = (
{
name = _center;
pos = (195,235);
}
);
layerId = m01;
shapes = (
{
attr = {
identifier = ID0x31a4e2160;
lineCapEnd = "4";
lineCapStart = "4";
strokeWidth = 60;
};
closed = 0;
nodes = (
(336,533,l),
(53,-63,l)
);
}
);
width = 389;
}
);
unicode = 824;
},
{
glyphname = brevecomb_acutecomb;
lastChange = "2026-06-05 02:36:25 +0000";
layers = (
{
anchors = (
{
name = _top;
pos = (156,510);
},
{
name = top;
pos = (156,942);
}
);
layerId = m01;
shapes = (
{
closed = 1;
nodes = (
(84,569,o),
(228,569,o),
(292,680,c),
(264,708,l),
(224,652,o),
(88,652,o),
(48,708,c),
(20,680,l)
);
},
{
closed = 1;
nodes = (
(185,766,l),
(240,942,l),
(114,942,l),
(91,877,l),
(126,864,o),
(134,847,o),
(125,815,c),
(108,766,l)
);
}
);
width = 312;
}
);
},
{
glyphname = brevecomb_gravecomb;
lastChange = "2026-06-05 02:36:29 +0000";
layers = (
{
anchors = (
{
name = _top;
pos = (156,510);
},
{
name = top;
pos = (156,942);
}
);
layerId = m01;
shapes = (
{
closed = 1;
nodes = (
(84,569,o),
(228,569,o),
(292,680,c),
(264,708,l),
(224,652,o),
(88,652,o),
(48,708,c),
(20,680,l)
);
},
{
closed = 1;
nodes = (
(201,766,l),
(184,815,l),
(175,847,o),
(183,864,o),
(218,877,c),
(195,942,l),
(69,942,l),
(124,766,l)
);
}
);
width = 312;
}
);
},
{
glyphname = brevecomb_hookabovecomb;
lastChange = "2026-06-08 02:22:05 +0000";
layers = (
{
anchors = (
{
name = _top;
pos = (156,470);
},
{
name = top;
pos = (156,950);
}
);
layerId = m01;
shapes = (
{
closed = 1;
nodes = (
(84,569,o),
(228,569,o),
(292,680,c),
(264,708,l),
(224,652,o),
(88,652,o),
(48,708,c),
(20,680,l)
);
},
{
closed = 1;
nodes = (
(166,728,l),
(166,741,l),
(166,769,o),
(257,772,o),
(257,855,c),
(257,899,o),
(224,927,o),
(155,927,c),
(88,927,o),
(55,899,o),
(55,841,c),
(121,827,l),
(120,883,o),
(138,903,o),
(152,903,c),
(169,903,o),
(178,890,o),
(178,852,c),
(178,795,o),
(139,796,o),
(139,752,c),
(139,722,l)
);
}
);
width = 312;
}
);
},
{
glyphname = brevecomb_tildecomb;
lastChange = "2026-06-05 02:47:13 +0000";
layers = (
{
anchors = (
{
name = _top;
pos = (156,510);
},
{
name = top;
pos = (156,925);
}
);
layerId = m01;
shapes = (
{
closed = 1;
nodes = (
(84,569,o),
(228,569,o),
(292,680,c),
(264,708,l),
(224,652,o),
(88,652,o),
(48,708,c),
(20,680,l)
);
},
{
closed = 1;
nodes = (
(264,774,o),
(305,817,o),
(305,903,c),
(279,906,l),
(279,871,o),
(264,852,o),
(234,852,cs),
(190,853,o),
(158,909,o),
(99,909,cs),
(54,909,o),
(7,867,o),
(7,781,c),
(33,779,l),
(35,814,o),
(51,833,o),
(82,833,cs),
(118,833,o),
(162,774,o),
(216,774,cs)
);
}
);
width = 312;
}
);
},
{
glyphname = circumflexcomb_acutecomb;
lastChange = "2026-06-05 02:37:03 +0000";
layers = (
{
anchors = (
{
name = _top;
pos = (177,510);
},
{
name = top;
pos = (177,941);
}
);
layerId = m01;
shapes = (
{
closed = 1;
nodes = (
(177,621,l),
(322,553,l),
(334,567,l),
(177,717,l),
(20,567,l),
(32,553,l)
);
},
{
closed = 1;
nodes = (
(206,765,l),
(261,941,l),
(135,941,l),
(112,876,l),
(147,863,o),
(155,846,o),
(146,814,c),
(129,765,l)
);
}
);
width = 354;
}
);
},
{
glyphname = circumflexcomb_gravecomb;
lastChange = "2026-06-05 02:37:07 +0000";
layers = (
{
anchors = (
{
name = _top;
pos = (177,510);
},
{
name = top;
pos = (177,941);
}
);
layerId = m01;
shapes = (
{
closed = 1;
nodes = (
(177,621,l),
(322,553,l),
(334,567,l),
(177,717,l),
(20,567,l),
(32,553,l)
);
},
{
closed = 1;
nodes = (
(222,765,l),
(205,814,l),
(196,846,o),
(204,863,o),
(239,876,c),
(216,941,l),
(90,941,l),
(145,765,l)
);
}
);
width = 354;
}
);
},
{
glyphname = circumflexcomb_hookabovecomb;
lastChange = "2026-06-05 02:37:11 +0000";
layers = (
{
anchors = (
{
name = _top;
pos = (177,510);
},
{
name = top;
pos = (177,950);
}
);
layerId = m01;
shapes = (
{
closed = 1;
nodes = (
(177,621,l),
(322,553,l),
(334,567,l),
(177,717,l),
(20,567,l),
(32,553,l)
);
},
{
closed = 1;
nodes = (
(186,765,l),
(186,777,l),
(186,803,o),
(271,806,o),
(271,883,c),
(271,924,o),
(240,950,o),
(176,950,c),
(114,950,o),
(83,924,o),
(83,870,c),
(145,857,l),
(144,909,o),
(160,927,o),
(173,927,c),
(189,927,o),
(197,915,o),
(197,880,c),
(197,827,o),
(161,828,o),
(161,787,c),
(161,759,l)
);
}
);
width = 354;
}
);
},
{
glyphname = circumflexcomb_tildecomb;
lastChange = "2026-06-05 19:34:48 +0000";
layers = (
{
anchors = (
{
name = _top;
pos = (177,510);
},
{
name = top;
pos = (177,914);
}
);
guides = (
{
pos = (139,788);
}
);
layerId = m01;
shapes = (
{
closed = 1;
nodes = (
(177,621,l),
(322,553,l),
(334,567,l),
(177,717,l),
(20,567,l),
(32,553,l)
);
},
{
closed = 1;
nodes = (
(283,754,o),
(324,797,o),
(324,883,c),
(298,886,l),
(298,851,o),
(283,832,o),
(253,832,cs),
(209,833,o),
(177,889,o),
(118,889,cs),
(73,889,o),
(26,847,o),
(26,761,c),
(52,759,l),
(54,794,o),
(70,813,o),
(101,813,cs),
(137,813,o),
(181,754,o),
(235,754,cs)
);
}
);
width = 354;
}
);
},
{
glyphname = gravecomb.case;
lastChange = "2026-06-03 23:46:39 +0000";
layers = (
{
anchors = (
{
name = _top;
pos = (101,511);
},
{
name = top;
pos = (101,764);
}
);
layerId = m01;
shapes = (
{
closed = 1;
nodes = (
(144,580,l),
(130,615,l),
(120,641,o),
(125,658,o),
(143,664,c),
(189,677,l),
(172,742,l),
(10,742,l),
(77,580,l)
);
}
);
width = 199;
}
);
},
{
glyphname = acutecomb.case;
lastChange = "2026-06-03 23:46:39 +0000";
layers = (
{
anchors = (
{
name = _top;
pos = (98,523);
},
{
name = top;
pos = (98,766);
}
);
layerId = m01;
shapes = (
{
closed = 1;
nodes = (
(122,580,l),
(189,742,l),
(27,742,l),
(10,677,l),
(56,664,l),
(74,658,o),
(79,641,o),
(69,615,c),
(55,580,l)
);
}
);
width = 199;
}
);
},
{
glyphname = circumflexcomb.case;
lastChange = "2026-06-03 23:46:39 +0000";
layers = (
{
anchors = (
{
name = _top;
pos = (177,499);
},
{
name = top;
pos = (177,737);
}
);
layerId = m01;
shapes = (
{
closed = 1;
nodes = (
(177,611,l),
(322,543,l),
(334,557,l),
(177,705,l),
(20,557,l),
(32,543,l)
);
}
);
width = 354;
}
);
},
{
glyphname = circumflexcomb_gravecomb.case;
lastChange = "2026-06-07 23:10:04 +0000";
layers = (
{
anchors = (
{
name = _top;
pos = (177,540);
},
{
name = top;
pos = (177,941);
}
);
layerId = m01;
shapes = (
{
closed = 1;
nodes = (
(177,601,l),
(322,553,l),
(334,567,l),
(177,697,l),
(20,567,l),
(32,553,l)
);
},
{
closed = 1;
nodes = (
(341,682,l),
(324,731,l),
(315,763,o),
(323,780,o),
(358,793,c),
(335,858,l),
(209,858,l),
(264,682,l)
);
}
);
width = 338;
}
);
},
{
glyphname = circumflexcomb_acutecomb.case;
lastChange = "2026-06-07 23:09:08 +0000";
layers = (
{
anchors = (
{
name = _top;
pos = (177,540);
},
{
name = top;
pos = (177,941);
}
);
layerId = m01;
shapes = (
{
closed = 1;
nodes = (
(177,601,l),
(322,553,l),
(334,567,l),
(177,697,l),
(20,567,l),
(32,553,l)
);
},
{
closed = 1;
nodes = (
(325,682,l),
(380,858,l),
(254,858,l),
(231,793,l),
(266,780,o),
(274,763,o),
(265,731,c),
(248,682,l)
);
}
);
width = 400;
}
);
},
{
glyphname = circumflexcomb_tildecomb.case;
lastChange = "2026-06-05 19:32:51 +0000";
layers = (
{
anchors = (
{
name = _top;
pos = (177,540);
},
{
name = top;
pos = (177,914);
}
);
guides = (
{
pos = (139,788);
}
);
layerId = m01;
shapes = (
{
closed = 1;
nodes = (
(177,601,l),
(322,553,l),
(334,567,l),
(177,697,l),
(20,567,l),
(32,553,l)
);
},
{
closed = 1;
nodes = (
(286,723,o),
(327,766,o),
(327,853,c),
(302,856,l),
(302,820,o),
(286,801,o),
(255,801,cs),
(211,802,o),
(179,858,o),
(120,858,cs),
(74,858,o),
(27,816,o),
(27,729,c),
(52,727,l),
(54,762,o),
(71,782,o),
(102,782,cs),
(138,782,o),
(183,723,o),
(238,723,cs)
);
}
);
width = 354;
}
);
},
{
glyphname = circumflexcomb_hookabovecomb.case;
lastChange = "2026-06-08 02:22:27 +0000";
layers = (
{
anchors = (
{
name = _top;
pos = (177,540);
},
{
name = top;
pos = (177,950);
}
);
layerId = m01;
shapes = (
{
closed = 1;
nodes = (
(177,601,l),
(322,553,l),
(334,567,l),
(177,697,l),
(20,567,l),
(32,553,l)
);
},
{
closed = 1;
nodes = (
(293,669,l),
(293,681,l),
(293,708,o),
(383,712,o),
(383,792,c),
(383,835,o),
(350,863,o),
(283,863,c),
(218,863,o),
(185,835,o),
(185,779,c),
(250,765,l),
(249,820,o),
(266,839,o),
(280,839,c),
(297,839,o),
(305,826,o),
(305,789,c),
(305,734,o),
(267,735,o),
(267,692,c),
(267,662,l)
);
}
);
width = 398;
}
);
},
{
glyphname = caroncomb.case;
lastChange = "2026-06-03 23:46:39 +0000";
layers = (
{
anchors = (
{
name = _top;
pos = (177,499);
},
{
name = top;
pos = (177,737);
}
);
layerId = m01;
shapes = (
{
closed = 1;
nodes = (
(334,691,l),
(322,705,l),
(177,637,l),
(32,705,l),
(20,691,l),
(177,543,l)
);
}
);
width = 354;
}
);
},
{
glyphname = brevecomb_gravecomb.case;
lastChange = "2026-06-07 23:08:22 +0000";
layers = (
{
anchors = (
{
name = _top;
pos = (156,540);
},
{
name = top;
pos = (156,942);
}
);
layerId = m01;
shapes = (
{
closed = 1;
nodes = (
(84,569,o),
(228,569,o),
(292,680,c),
(264,708,l),
(224,652,o),
(88,652,o),
(48,708,c),
(20,680,l)
);
},
{
closed = 1;
nodes = (
(201,706,l),
(184,755,l),
(175,787,o),
(183,804,o),
(218,817,c),
(195,882,l),
(69,882,l),
(124,706,l)
);
}
);
width = 312;
}
);
},
{
glyphname = brevecomb_acutecomb.case;
lastChange = "2026-06-07 23:06:04 +0000";
layers = (
{
anchors = (
{
name = _top;
pos = (156,540);
},
{
name = top;
pos = (156,942);
}
);
layerId = m01;
shapes = (
{
closed = 1;
nodes = (
(84,569,o),
(228,569,o),
(292,680,c),
(264,708,l),
(224,652,o),
(88,652,o),
(48,708,c),
(20,680,l)
);
},
{
closed = 1;
nodes = (
(185,706,l),
(240,882,l),
(114,882,l),
(91,817,l),
(126,804,o),
(134,787,o),
(125,755,c),
(108,706,l)
);
}
);
width = 312;
}
);
},
{
glyphname = brevecomb_tildecomb.case;
lastChange = "2026-06-05 19:29:44 +0000";
layers = (
{
anchors = (
{
name = _top;
pos = (156,540);
},
{
name = top;
pos = (156,925);
}
);
layerId = m01;
shapes = (
{
closed = 1;
nodes = (
(84,569,o),
(228,569,o),
(292,680,c),
(264,708,l),
(224,652,o),
(88,652,o),
(48,708,c),
(20,680,l)
);
},
{
closed = 1;
nodes = (
(263,735,o),
(304,778,o),
(304,863,c),
(278,865,l),
(278,831,o),
(263,812,o),
(233,812,cs),
(189,813,o),
(158,868,o),
(100,868,cs),
(55,868,o),
(8,826,o),
(8,741,c),
(34,739,l),
(36,774,o),
(52,793,o),
(83,793,cs),
(118,793,o),
(162,735,o),
(216,735,cs)
);
}
);
width = 312;
}
);
},
{
glyphname = brevecomb_hookabovecomb.case;
lastChange = "2026-06-07 23:11:12 +0000";
layers = (
{
anchors = (
{
name = _top;
pos = (156,540);
},
{
name = top;
pos = (156,950);
}
);
layerId = m01;
shapes = (
{
closed = 1;
nodes = (
(84,569,o),
(228,569,o),
(292,680,c),
(264,708,l),
(224,652,o),
(88,652,o),
(48,708,c),
(20,680,l)
);
},
{
closed = 1;
nodes = (
(165,705,l),
(165,717,l),
(165,743,o),
(250,746,o),
(250,823,c),
(250,864,o),
(219,890,o),
(155,890,c),
(93,890,o),
(62,864,o),
(62,810,c),
(124,797,l),
(123,849,o),
(139,867,o),
(152,867,c),
(168,867,o),
(176,855,o),
(176,820,c),
(176,767,o),
(140,768,o),
(140,727,c),
(140,699,l)
);
}
);
width = 312;
}
);
},
{
glyphname = ringcomb.case;
lastChange = "2026-06-08 00:22:45 +0000";
layers = (
{
anchors = (
{
name = _top;
pos = (108,499);
},
{
name = top;
pos = (108,735);
}
);
layerId = m01;
shapes = (
{
attr = {
strokePos = 1;
strokeWidth = 60;
};
closed = 1;
nodes = (
(156,540,o),
(195,579,o),
(195,628,cs),
(195,676,o),
(156,715,o),
(108,715,cs),
(59,715,o),
(20,676,o),
(20,628,cs),
(20,579,o),
(59,540,o),
(108,540,cs)
);
}
);
width = 215;
}
);
},
{
glyphname = slashlongcomb.case;
lastChange = "2026-05-27 02:21:55 +0000";
layers = (
{
anchors = (
{
name = _center;
pos = (230,337);
}
);
layerId = m01;
shapes = (
{
attr = {
identifier = ID0x31a4e2160;
lineCapEnd = "4";
lineCapStart = "4";
strokeWidth = 60;
};
closed = 0;
nodes = (
(406,736,l),
(53,-63,l)
);
}
);
width = 459;
}
);
},
{
glyphname = apostrophemod;
lastChange = "2026-06-03 23:46:39 +0000";
layers = (
{
layerId = m01;
shapes = (
{
closed = 1;
nodes = (
(91,494,l),
(116,700,l),
(10,700,l),
(34,494,l)
);
}
);
width = 126;
}
);
unicode = 700;
},
{
glyphname = primemod;
lastChange = "2026-06-09 23:40:53 +0000";
layers = (
{
layerId = m01;
shapes = (
{
closed = 1;
nodes = (
(101,473,l),
(126,719,l),
(20,719,l),
(44,473,l)
);
}
);
width = 146;
}
);
unicode = 697;
},
{
glyphname = verticallinemod;
lastChange = "2026-06-09 23:43:24 +0000";
layers = (
{
layerId = m01;
shapes = (
{
closed = 1;
nodes = (
(100,473,l),
(100,719,l),
(20,719,l),
(20,473,l)
);
}
);
width = 120;
}
);
unicode = 712;
},
{
glyphname = "punc-tittle";
lastChange = "2026-06-03 23:46:39 +0000";
layers = (
{
layerId = m01;
shapes = (
{
closed = 1;
nodes = (
(148,-9,o),
(188,30,o),
(188,79,cs),
(188,129,o),
(148,168,o),
(99,168,cs),
(50,168,o),
(10,129,o),
(10,79,cs),
(10,30,o),
(50,-9,o),
(99,-9,cs)
);
}
